{
.formatVersion = 3;
DisplayStrings = (
hhheefrances.,
"€",
"/e.rulo"
);
axes = (
{
name = Weight;
tag = wght;
}
);
classes = (
{
code = "a.1 b.1 c.1 d.1 e.1 f.1 g.1 h.1 i.1 j.1 k.1 l.1 m.1 n.1 o.1 p.1 q.1 r.1 s.1 t.1 u.1 v.1 w.1 x.1 y.1 z.1 a.1grave a.1acute a.1circumflex a.1tilde a.1dieresis e.1grave e.1acute e.1circumflex e.1dieresis i.1grave i.1acute i.1circumflex i.1dieresis o.1grave o.1acute o.1circumflex o.1tilde o.1dieresis u.1grave u.1acute u.1circumflex u.1dieresis n.1tilde diamond.smcp";
name = smcps;
},
{
code = "a b c d e f g h i j k l m n o p q r s t u v w x y z agrave aacute acircumflex atilde adieresis egrave eacute ecircumflex edieresis igrave iacute icircumflex idieresis ograve oacute ocircumflex otilde odieresis ugrave uacute ucircumflex udieresis ntilde diamond";
name = desmcps;
},
{
code = "a.rulo b.rulo c.rulo d.rulo e.rulo f.rulo h.rulo k.rulo l.rulo m.rulo n.rulo p.rulo r.rulo s.rulo t.rulo u.rulo v.rulo w.rulo y.rulo";
name = rulo;
},
{
code = "a b c d e f h k l m n p r s t u v w y";
name = derulo;
}
);
familyName = "Reina Neue Capitals";
customParameters = (
{
name = glyphOrder;
value = (
.notdef,
NULL,
CR,
space,
A,
B,
C,
D,
E,
F,
G,
H,
I,
J,
K,
L,
M,
N,
O,
P,
Q,
R,
S,
T,
U,
V,
W,
X,
Y,
Z,
period,
R.alt,
exclam,
question,
quotesingle,
quotedbl,
numbersign,
at,
dollar,
Euro,
percent,
ampersand,
parenleft,
parenright,
braceleft,
bar,
braceright,
bracketleft,
bracketright,
quoteleft,
quoteright,
quotedblleft,
quotedblright,
quotesinglbase,
quotedblbase,
bullet,
underscore,
endash,
emdash,
macron,
logicalnot,
trademark,
registered,
copyright,
currency,
cent,
sterling,
yen,
florin,
comma,
comma.swsh,
zero,
one,
two,
three,
four,
five,
six,
seven,
eight,
nine,
hyphen,
plus,
asterisk,
asciicircum,
tilde,
slash,
backslash,
colon,
semicolon,
less,
equal,
greater,
questiondown,
Ntilde,
degree,
ordfeminine,
ordmasculine,
onesuperior,
twosuperior,
threesuperior,
fraction,
onequarter,
onehalf,
threequarters,
perthousand,
mu,
paragraph,
section,

glyphs = (
{
glyphname = A;
layers = (
{
background = {
shapes = (
{
closed = 1;
nodes = (
(338,251,o),
(386,203,o),
(446,203,cs),
(506,203,o),
(555,251,o),
(555,311,cs),
(555,371,o),
(506,420,o),
(446,420,cs),
(386,420,o),
(338,371,o),
(338,311,cs)
);
}
);
};
layerId = "1E866B1E-53BE-4037-8596-F70CE02E0A5A";
shapes = (
{
closed = 1;
nodes = (
(314,0,l),
(534,0,l),
(535,5,l),
(462,12,o),
(448,5,o),
(433,114,cs),
(356,676,l),
(221,676,l),
(220,671,l),
(287,666,o),
(313,666,o),
(325,657,c),
(71,127,ls),
(18,16,o),
(14,12,o),
(-83,5,c),
(-84,0,l),
(143,0,l),
(144,5,l),
(32,12,o),
(27,19,o),
(75,118,cs),
(157,289,l),
(383,289,l),
(408,106,ls),
(420,12,o),
(407,12,o),
(315,5,c)
);
},
{
closed = 1;
nodes = (
(161,297,l),
(331,650,l),
(334,644,o),
(335,636,o),
(337,624,cs),
(382,297,l)
);
}
);
width = 569;
},
{
layerId = "5534EA4B-8E80-4C74-8911-C7987B86627E";
shapes = (
{
closed = 1;
nodes = (
(245,0,l),
(645,0,l),
(646,8,l),
(619,8,o),
(588,28,o),
(573,114,cs),
(478,676,l),
(166,676,l),
(165,668,l),
(245,668,o),
(260,630,o),
(269,574,c),
(123,278,ls),
(90,211,o),
(-23,8,o),
(-119,8,c),
(-120,0,l),
(187,0,l),
(188,8,l),
(30,8,o),
(91,193,o),
(140,292,cs),
(143,298,l),
(314,298,l),
(342,129,ls),
(358,25,o),
(323,8,o),
(246,8,c)
);
},
{
closed = 1;
nodes = (
(148,308,l),
(271,559,l),
(273,548,o),
(274,543,o),
(276,532,cs),
(313,308,l)
);
}
);
width = 659;
}
);
leftKerningGroup = A;
rightKerningGroup = A;
unicode = 65;
},
{
glyphname = B;
layers = (
{
layerId = "1E866B1E-53BE-4037-8596-F70CE02E0A5A";
leftMetricsKey = h;
shapes = (
{
closed = 1;
nodes = (
(-30,0,l),
(102,0,l),
(164,349,l),
(245,349,ls),
(352,349,o),
(487,416,o),
(487,539,cs),
(487,618,o),
(415,676,o),
(294,676,cs),
(89,676,l),
(88,671,l),
(167,664,o),
(195,672,o),
(185,614,cs),
(88,62,ls,{name = hr02;}),
(78,4,o),
(52,12,o),
(-29,5,c)
);
},
{
closed = 1;
nodes = (
(165,357,l),
(220,668,l),
(284,668,ls),
(411,668,o),
(456,615,o),
(456,545,cs),
(456,420,o),
(358,357,o),
(238,357,cs)
);
},
{
closed = 1;
nodes = (
(75,8,l),
(71,0,l),
(216,0,ls),
(342,0,o),
(448,80,o),
(466,180,cs),
(483,277,o),
(408,348,o),
(274,355,cs),
(233,357,l),
(241,349,l),
(423,349,o),
(450,259,o),
(435,178,cs),
(420,88,o),
(341,8,o),
(194,8,cs)
);
}
);
width = 524;
},
{
layerId = "5534EA4B-8E80-4C74-8911-C7987B86627E";
shapes = (
{
closed = 1;
nodes = (
(-58,0,l),
(266,0,l),
(328,349,l),
(392,349,ls),
(570,349,o),
(703,436,o),
(703,536,cs),
(703,612,o),
(628,676,o),
(481,676,cs),
(61,676,l),
(60,668,l),
(140,668,o),
(162,639,o),
(151,581,cs),
(66,95,ls),
(56,37,o),
(23,8,o),
(-57,8,c)
);
},
{
closed = 1;
nodes = (
(329,358,l),
(384,667,l),
(417,667,ls),
(470,667,o),
(491,621,o),
(491,564,cs),
(491,492,o),
(448,358,o),
(363,358,cs)
);
},
{
closed = 1;
nodes = (
(252,10,l),
(250,0,l),
(377,0,ls),
(578,0,o),
(658,89,o),
(667,177,cs),
(677,279,o),
(581,345,o),
(410,356,cs),
(380,358,l),
(347,349,l),
(448,349,o),
(460,272,o),
(448,189,cs),
(437,112,o),
(392,10,o),
(318,10,cs)
);
}
);
width = 689;
}
);
rightKerningGroup = O;
unicode = 66;
},
{
glyphname = C;
leftMetricsKey = o;
layers = (
{
background = {
shapes = (
{
closed = 1;
nodes = (
(483,680,o),
(521,673,o),
(533,659,c),
(474,623,o),
(449,571,o),
(449,528,cs),
(449,471,o),
(492,423,o),
(555,423,cs),
(609,423,o),
(668,459,o),
(668,537,cs),
(668,640,o),
(565,692,o),
(435,692,cs),
(205,692,o),
(28,545,o),
(28,334,cs),
(28,152,o),
(163,-16,o),
(396,-16,cs),
(536,-16,o),
(631,51,o),
(659,149,c),
(659,154,o),
(660,158,o),
(656,158,c),
(625,70,o),
(578,36,o),
(488,36,cs),
(346,36,o),
(279,106,o),
(279,357,cs),
(279,610,o),
(347,679,o),
(451,680,c)
);
},
{
closed = 1;
nodes = (
(0,373,l),
(10,373,l),
(10,471,o),
(126,643,o),
(211,667,c),
(211,95,ls),
(211,37,o),
(184,8,o),
(104,8,c),
(104,0,l),
(535,0,l),
(535,8,l),
(455,8,o),
(428,37,o),
(428,95,cs),
(428,667,l),
(513,643,o),
(629,471,o),
(629,373,c),
(639,373,l),
(639,676,l),
(0,676,l)
);
}
);
};
layerId = "1E866B1E-53BE-4037-8596-F70CE02E0A5A";
shapes = (
{
closed = 1;
nodes = (
(541,91,l),
(489,32,o),
(390,-4,o),
(309,-4,cs),
(92,-4,o),
(41,179,o),
(69,341,cs),
(96,492,o),
(211,680,o),
(442,680,cs),
(545,680,o),
(630,634,o),
(621,520,c),
(625,520,l,{name = hr01;}),
(640,683,l),
(635,683,l),
(629,653,o),
(622,644,o),
(611,644,cs),
(583,644,o),
(544,688,o),
(443,688,cs),
(240,688,o),
(75,542,o),
(39,339,cs),
(1,125,o),
(125,-12,o),
(296,-12,cs),
(396,-12,o),
(486,26,o),
(539,79,c)
);
}
);
width = 636;
},
{
layerId = "5534EA4B-8E80-4C74-8911-C7987B86627E";
shapes = (
{
closed = 1;
nodes = (
(634,141,l),
(580,81,o),
(506,42,o),
(427,42,cs),
(334,42,o),
(259,108,o),
(259,269,cs),
(259,394,o),
(316,679,o),
(468,679,cs),
(587,679,o),
(640,512,o),
(659,373,c),
(667,373,l),
(702,687,l),
(693,687,l),
(691,668,o),
(681,654,o),
(657,654,cs),
(597,654,o),
(546,688,o),
(454,688,cs),
(192,688,o),
(13,529,o),
(13,278,cs),
(13,89,o),
(149,-17,o),
(320,-17,cs),
(457,-17,o),
(568,44,o),
(638,134,c)
);
}
);
width = 687;
}
);
leftKerningGroup = G;
unicode = 67;
},
{
glyphname = D;
rightMetricsKey = o;
layers = (
{
background = {
shapes = (
{
closed = 1;
nodes = (
(-238,338,o),
(-172,276,o),
(-82,276,cs),
(8,276,o),
(81,341,o),
(81,430,cs),
(81,496,o),
(39,566,o),
(-30,561,c),
(-28,540,o),
(-56,512,o),
(-86,512,cs),
(-109,512,o),
(-135,532,o),
(-135,571,cs),
(-135,647,o),
(-53,697,o),
(65,697,cs),
(108,697,l),
(108,134,ls),
(108,97,o),
(113,9,o),
(2,9,cs),
(-10,9,o),
(-11,0,o),
(2,0,cs),
(363,0,ls),
(559,0,o),
(741,103,o),
(741,369,cs),
(741,574,o),
(585,706,o),
(386,706,cs),
(39,706,ls),
(-96,706,o),
(-238,580,o),
(-238,448,cs)
);
},
{
closed = 1;
nodes = (
(322,697,l),
(380,697,ls),
(458,697,o),
(515,667,o),
(515,542,cs),
(515,205,ls),
(515,44,o),
(439,10,o),
(366,10,cs),
(229,10,ls),
(218,10,o),
(220,21,o),
(229,21,cs),
(315,21,o),
(322,106,o),
(322,149,c)
);
},
{
closed = 1;
nodes = (
(348,667,l),
(359,667,ls),
(433,667,o),
(465,595,o),
(465,519,cs),
(465,439,o),
(429,358,o),
(360,357,c),
(360,349,l),
(390,349,ls),
(568,349,o),
(670,432,o),
(670,523,cs),
(670,604,o),
(590,676,o),
(435,676,cs),
(348,676,l)
);
},
{
closed = 1;
nodes = (
(357,0,l),
(445,0,ls),
(614,0,o),
(705,89,o),
(705,180,cs),
(705,279,o),
(599,357,o),
(400,357,cs),
(370,357,l),
(370,349,l),
(449,347,o),
(490,272,o),
(490,184,cs),
(490,100,o),
(452,10,o),
(369,10,cs),
(303,10,l)
);
}
);
};
layerId = "1E866B1E-53BE-4037-8596-F70CE02E0A5A";
leftMetricsKey = h;
shapes = (
{
closed = 1;
nodes = (
(-30,0,l),
(270,0,ls),
(407,0,o),
(604,117,o),
(645,349,cs),
(685,581,o),
(526,676,o),
(388,676,cs),
(89,676,l),
(88,671,l),
(167,664,o),
(195,672,o),
(185,614,cs),
(88,62,ls),
(78,4,o),
(52,12,o),
(-29,5,c)
);
},
{
closed = 1;
nodes = (
(103,8,l),
(220,668,l),
(383,668,ls),
(571,668,o),
(645,519,o),
(615,349,cs),
(586,186,o),
(454,8,o),
(265,8,cs)
);
}
);
width = 663;
},
{
layerId = "5534EA4B-8E80-4C74-8911-C7987B86627E";
shapes = (
{
closed = 1;
nodes = (
(-58,0,l),
(336,0,ls),
(509,0,o),
(724,113,o),
(757,349,cs),
(790,582,o),
(604,676,o),
(432,676,cs),
(61,676,l),
(60,668,l),
(140,668,o),
(162,639,o),
(151,581,cs),
(66,95,ls),
(56,37,o),
(23,8,o),
(-57,8,c)
);
},
{
closed = 1;
nodes = (
(267,8,l),
(384,668,l),
(435,668,ls),
(549,668,o),
(549,519,o),
(524,349,cs),
(500,186,o),
(436,8,o),
(317,8,cs)
);
}
);
width = 766;
}
);
rightKerningGroup = O;
unicode = 68;
},
{
glyphname = E;
layers = (
{
anchors = (
{
name = top;
position = "{345, 751}";
}
);
background = {
shapes = (
{
closed = 1;
nodes = (
(581,0,ls),
(625,0,o),
(658,22,o),
(658,82,cs),
(658,303,ls),
(658,319,o),
(646,320,o),
(646,303,cs),
(646,168,o),
(576,10,o),
(388,10,cs),
(240,10,ls),
(228,10,o),
(229,21,o),
(240,21,cs),
(326,21,o),
(334,106,o),
(334,149,cs),
(334,365,l),
(359,365,ls),
(422,365,o),
(492,331,o),
(492,265,cs),
(492,247,ls),
(492,238,o),
(502,238,o),
(502,247,cs),
(502,499,ls),
(502,508,o),
(492,508,o),
(492,499,cs),
(492,479,ls),
(492,409,o),
(422,376,o),
(358,376,cs),
(334,376,l),
(334,697,l),
(425,697,ls),
(583,697,o),
(614,561,o),
(614,493,cs),
(614,476,o),
(626,477,o),
(626,493,c),
(626,493,o),
(628,608,o),
(628,661,cs),
(628,697,o),
(606,706,o),
(562,706,cs),
(64,706,ls),
(-115,706,o),
(-238,580,o),
(-238,448,cs),
(-238,338,o),
(-172,276,o),
(-82,276,cs),
(8,276,o),
(81,341,o),
(81,430,cs),
(81,496,o),
(39,566,o),
(-30,561,c),
(-28,540,o),
(-56,512,o),
(-86,512,cs),
(-109,512,o),
(-135,532,o),
(-135,571,cs),
(-135,645,o),
(-58,697,o),
(56,697,cs),
(119,697,l),
(119,134,ls),
(119,97,o),
(123,9,o),
(12,9,cs),
(0,9,o),
(-1,0,o),
(12,0,c)
);
},
{
closed = 1;
nodes = (
(341,667,ls),
(499,667,o),
(602,507,o),
(602,408,c),
(616,625,o),
(529,670,o),
(326,667,c)
);
},
{
closed = 1;
nodes = (
(632,157,l),
(595,24,o),
(466,3,o),
(426,0,c),
(632,0,l)
);
}
);
};
layerId = "1E866B1E-53BE-4037-8596-F70CE02E0A5A";
leftMetricsKey = h;
shapes = (
{
closed = 1;
nodes = (
(-30,0,l),
(416,0,l),
(448,149,l),
(443,149,l),
(408,16,o),
(414,8,o),
(256,8,cs),
(103,8,l),
(161,333,l),
(301,333,ls),
(344,333,o),
(335,282,o),
(329,231,c),
(335,231,l),
(373,443,l),
(367,443,l),
(355,392,o),
(346,341,o),
(303,341,cs),
(163,341,l),
(220,668,l),
(374,668,ls),
(511,668,o),
(493,643,o),
(487,528,c),
(492,528,l),
(512,676,l),
(89,676,l),
(88,671,l),
(167,664,o),
(195,672,o),
(185,614,cs),
(88,62,ls),
(78,4,o),
(52,12,o),
(-29,5,c)
);
}
);
width = 520;
},
{
anchors = (
{
name = top;
position = "{430, 751}";
}
);
layerId = "5534EA4B-8E80-4C74-8911-C7987B86627E";
shapes = (
{
closed = 1;
nodes = (
(-58,0,l),
(553,0,l),
(624,272,l),
(614,272,l),
(592,173,o),
(441,9,o),
(283,9,cs),
(268,9,l),
(323,326,l),
(338,326,ls),
(419,326,o),
(496,274,o),
(484,208,c),
(493,208,l),
(537,460,l),
(528,460,l),
(516,390,o),
(422,337,o),
(340,337,cs),
(325,337,l),
(384,667,l),
(399,667,ls),
(557,667,o),
(616,516,o),
(616,408,c),
(624,408,l),
(648,676,l),
(61,676,l),
(60,668,l),
(140,668,o),
(162,639,o),
(151,581,cs),
(66,95,ls),
(56,37,o),
(23,8,o),
(-57,8,c)
);
}
);
width = 658;
}
);
unicode = 69;
},
{
glyphname = F;
layers = (
{
background = {
shapes = (
{
closed = 1;
nodes = (
(344,376,l),
(328,376,l),
(328,697,l),
(347,697,l),
(347,706,l),
(62,706,ls),
(-116,706,o),
(-238,579,o),
(-238,448,cs),
(-238,338,o),
(-172,276,o),
(-82,276,cs),
(8,276,o),
(81,341,o),
(81,430,cs),
(81,496,o),
(39,566,o),
(-30,561,c),
(-28,540,o),
(-56,512,o),
(-86,512,cs),
(-109,512,o),
(-135,532,o),
(-135,571,cs),
(-135,646,o),
(-55,696,o),
(62,697,c),
(113,697,l),
(113,134,ls),
(113,97,o),
(117,9,o),
(6,9,cs),
(-6,9,o),
(-6,0,o),
(7,0,cs),
(394,0,ls),
(403,0,o),
(403,10,o),
(394,10,cs),
(231,10,ls),
(218,10,o),
(220,21,o),
(234,21,cs),
(320,21,o),
(328,106,o),
(328,149,cs),
(328,365,l),
(344,365,l)
);
},
{
closed = 1;
nodes = (
(326,667,l),
(341,667,ls),
(499,667,o),
(602,507,o),
(602,408,c),
(612,408,l),
(612,617,o),
(529,676,o),
(326,676,c)
);
}
);
};
layerId = "1E866B1E-53BE-4037-8596-F70CE02E0A5A";
leftMetricsKey = h;
shapes = (
{
closed = 1;
nodes = (
(-30,0,l),
(209,0,l),
(210,5,l),
(131,12,o),
(103,4,o),
(113,62,cs),
(220,668,l),
(377,668,ls),
(514,668,o),
(496,643,o),
(490,528,c),
(495,528,l),
(515,676,l),
(89,676,l),
(88,671,l),
(167,664,o),
(195,672,o),
(185,614,cs),
(88,62,ls),
(78,4,o),
(52,12,o),
(-29,5,c)
);
},
{
closed = 1;
nodes = (
(157,329,l),
(297,329,ls),
(338,329,o),
(332,283,o),
(326,235,c),
(325,227,l),
(331,227,l),
(368,439,l),
(362,439,l),
(361,431,l),
(349,382,o),
(339,337,o),
(298,337,cs),
(158,337,l)
);
}
);
width = 515;
},
{
layerId = "5534EA4B-8E80-4C74-8911-C7987B86627E";
shapes = (
{
closed = 1;
nodes = (
(-58,0,l),
(373,0,l),
(374,8,l),
(294,8,o),
(273,37,o),
(283,95,cs),
(384,667,l),
(399,667,ls),
(557,667,o),
(619,511,o),
(615,406,c),
(624,406,l),
(646,676,l),
(61,676,l),
(60,668,l),
(140,668,o),
(162,639,o),
(151,581,cs),
(66,95,ls),
(56,37,o),
(23,8,o),
(-57,8,c)
);
},
{
closed = 1;
nodes = (
(314,287,l),
(332,287,ls),
(413,287,o),
(491,242,o),
(479,176,cs),
(478,169,l),
(488,169,l),
(532,421,l),
(522,421,l),
(521,413,ls),
(508,343,o),
(416,298,o),
(334,298,cs),
(316,298,l)
);
}
);
width = 650;
}
);
unicode = 70;
},
{
glyphname = G;
leftMetricsKey = o;
layers = (
{
background = {
shapes = (
{
closed = 1;
nodes = (
(775,584,o),
(577,685,o),
(408,685,cs),
(387,685,ls),
(218,685,o),
(20,584,o),
(20,338,cs),
(20,91,o),
(218,-9,o),
(387,-9,cs),
(408,-9,ls),
(577,-9,o),
(775,91,o),
(775,338,cs)
);
},
{
closed = 1;
nodes = (
(542,156,o),
(516,0,o),
(404,0,cs),
(391,0,ls),
(279,0,o),
(253,156,o),
(253,338,cs),
(253,519,o),
(279,676,o),
(391,676,cs),
(404,676,ls),
(516,676,o),
(542,519,o),
(542,338,cs)
);
},
{
closed = 1;
nodes = (
(714,159,l),
(714,245,ls),
(714,303,o),
(741,332,o),
(821,332,c),
(821,340,l),
(390,340,l),
(390,332,l),
(470,332,o),
(497,303,o),
(497,245,cs),
(497,159,l)
);
}
);
};
layerId = "2AEC2686-2476-49B2-BBF6-37042191F199";
name = img;
width = 775;
},
{
layerId = "1E866B1E-53BE-4037-8596-F70CE02E0A5A";
shapes = (
{
closed = 1;
nodes = (
(450,249,l),
(522,242,o),
(547,250,o),
(537,192,cs),
(519,90,ls),
(509,31,o),
(413,-1,o),
(331,-1,cs),
(109,-1,o),
(41,194,o),
(69,355,cs),
(96,506,o),
(213,680,o),
(444,680,cs),
(547,680,o),
(632,634,o),
(623,520,c),
(627,520,l,{name = hr01;}),
(642,683,l),
(637,683,l),
(631,653,o),
(624,644,o),
(613,644,cs),
(585,644,o),
(546,688,o),
(445,688,cs),
(242,688,o),
(75,556,o),
(39,353,cs),
(1,139,o),
(139,-12,o),
(310,-12,cs),
(459,-12,o),
(484,44,o),
(512,44,cs),
(522,44,o),
(528,34,o),
(522,-5,c),
(527,-5,l),
(562,192,ls),
(572,250,o),
(595,242,o),
(669,249,c),
(670,254,l),
(451,254,l)
);
}
);
width = 689;
},
{
layerId = "5534EA4B-8E80-4C74-8911-C7987B86627E";
shapes = (
{
closed = 1;
nodes = (
(402,330,l),
(470,330,o),
(489,301,o),
(479,243,cs),
(452,90,ls),
(441,31,o),
(433,3,o),
(374,3,cs),
(268,3,o),
(225,101,o),
(270,344,cs),
(316,592,o),
(386,679,o),
(481,679,cs),
(600,679,o),
(653,512,o),
(672,373,c),
(680,373,l),
(715,687,l),
(706,687,l),
(704,668,o),
(694,654,o),
(670,654,cs),
(610,654,o),
(559,688,o),
(467,688,cs),
(222,688,o),
(46,551,o),
(17,337,cs),
(-8,153,o),
(87,-12,o),
(304,-12,cs),
(460,-12,o),
(534,48,o),
(595,48,cs),
(643,48,o),
(643,21,o),
(638,-5,c),
(646,-5,l),
(690,243,ls),
(700,301,o),
(728,330,o),
(792,330,c),
(794,338,l),
(404,338,l)
);
}
);
width = 774;
}
);
leftKerningGroup = G;
unicode = 71;
},
{
glyphname = H;
layers = (
{
background = {
};
layerId = "1E866B1E-53BE-4037-8596-F70CE02E0A5A";
shapes = (
{
closed = 1;
nodes = (
(416,0,l),
(655,0,l),
(656,5,l),
(577,12,o),
(549,4,o),
(559,62,cs),
(656,614,ls),
(666,672,o),
(692,664,o),
(773,671,c),
(774,676,l),
(535,676,l),
(534,671,l),
(613,664,o),
(641,672,o),
(631,614,cs),
(534,62,ls),
(524,4,o),
(498,12,o),
(417,5,c)
);
},
{
closed = 1;
nodes = (
(148,321,l),
(591,321,l),
(592,329,l),
(149,329,l)
);
},
{
closed = 1;
nodes = (
(-30,0,l),
(209,0,l),
(210,5,l),
(131,12,o),
(103,4,o),
(113,62,cs),
(210,614,ls),
(220,672,o),
(246,664,o),
(327,671,c),
(328,676,l),
(89,676,l),
(88,671,l),
(167,664,o),
(195,672,o),
(185,614,cs),
(88,62,ls),
(78,4,o),
(52,12,o),
(-29,5,c)
);
}
);
width = 745;
},
{
layerId = "5534EA4B-8E80-4C74-8911-C7987B86627E";
shapes = (
{
closed = 1;
nodes = (
(394,0,l),
(810,0,l),
(811,8,l),
(731,8,o),
(710,37,o),
(720,95,cs),
(805,581,ls),
(815,639,o),
(848,668,o),
(928,668,c),
(929,676,l),
(513,676,l),
(512,668,l),
(580,668,o),
(598,639,o),
(588,581,cs),
(503,95,ls),
(493,37,o),
(463,8,o),
(395,8,c)
);
},
{
closed = 1;
nodes = (
(312,321,l),
(586,321,l),
(588,332,l),
(314,332,l)
);
},
{
closed = 1;
nodes = (
(-58,0,l),
(358,0,l),
(359,8,l),
(291,8,o),
(273,37,o),
(283,95,cs),
(368,581,ls),
(378,639,o),
(408,668,o),
(476,668,c),
(477,676,l),
(61,676,l),
(60,668,l),
(140,668,o),
(161,639,o),
(151,581,cs),
(66,95,ls),
(56,37,o),
(23,8,o),
(-57,8,c)
);
}
);
width = 872;
}
);
unicode = 72;
},
{
glyphname = I;
layers = (
{
anchors = (
{
name = top;
position = "{220, 751}";
}
);
layerId = "1E866B1E-53BE-4037-8596-F70CE02E0A5A";
leftMetricsKey = h;
rightMetricsKey = h;
shapes = (
{
closed = 1;
nodes = (
(-30,0,l),
(209,0,l),
(210,5,l),
(131,12,o),
(103,4,o),
(113,62,cs),
(210,614,ls),
(220,672,o),
(246,664,o),
(327,671,c),
(328,676,l),
(89,676,l),
(88,671,l),
(167,664,o),
(195,672,o),
(185,614,cs),
(88,62,ls),
(78,4,o),
(52,12,o),
(-29,5,c)
);
}
);
width = 299;
},
{
anchors = (
{
name = top;
position = "{300, 751}";
}
);
layerId = "5534EA4B-8E80-4C74-8911-C7987B86627E";
shapes = (
{
closed = 1;
nodes = (
(-58,0,l),
(373,0,l),
(374,8,l),
(294,8,o),
(273,37,o),
(283,95,cs),
(368,581,ls),
(379,639,o),
(411,668,o),
(491,668,c),
(492,676,l),
(61,676,l),
(60,668,l),
(140,668,o),
(162,639,o),
(151,581,cs),
(66,95,ls),
(56,37,o),
(23,8,o),
(-57,8,c)
);
}
);
width = 435;
}
);
unicode = 73;
},
{
glyphname = J;
layers = (
{
background = {
shapes = (
{
closed = 1;
nodes = (
(274,375,l),
(274,95,ls),
(274,37,o),
(247,8,o),
(167,8,c),
(167,0,l),
(598,0,l),
(598,8,l),
(518,8,o),
(491,37,o),
(491,95,cs),
(491,375,l)
);
},
{
closed = 0;
nodes = (
(99,-67,l),
(175,-67,o),
(213,-12,o),
(213,41,cs),
(213,92,o),
(179,142,o),
(109,142,c)
);
}
);
};
layerId = "1E866B1E-53BE-4037-8596-F70CE02E0A5A";
rightMetricsKey = h;
shapes = (
{
closed = 1;
nodes = (
(147,671,l),
(226,664,o),
(254,672,o),
(244,614,cs),
(154,102,ls),
(146,56,o),
(123,-6,o),
(47,-6,cs),
(25,-6,o),
(7,5,o),
(6,18,c),
(19,20,o),
(26,30,o),
(28,41,cs),
(30,53,o),
(23,63,o),
(7,63,cs),
(-9,63,o),
(-20,52,o),
(-22,38,cs),
(-27,11,o),
(-8,-12,o),
(46,-12,cs),
(143,-12,o),
(172,65,o),
(191,170,cs),
(269,614,ls),
(279,672,o),
(305,664,o),
(386,671,c),
(387,676,l),
(148,676,l)
);
}
);
width = 358;
},
{
layerId = "5534EA4B-8E80-4C74-8911-C7987B86627E";
shapes = (
{
closed = 1;
nodes = (
(204,668,l),
(284,668,o),
(326,636,o),
(313,563,cs),
(232,102,ls),
(224,56,o),
(202,-1,o),
(140,-1,cs),
(109,-1,o),
(99,12,o),
(98,19,c),
(140,35,o),
(166,72,o),
(172,108,cs),
(181,158,o),
(156,209,o),
(83,209,cs),
(18,209,o),
(-25,168,o),
(-36,108,cs),
(-47,47,o),
(-15,-12,o),
(145,-12,cs),
(385,-12,o),
(455,122,o),
(479,263,cs),
(537,589,l),
(548,642,o),
(582,668,o),
(658,668,c),
(659,676,l),
(205,676,l)
);
}
);
width = 598;
}
);
unicode = 74;
},
{
glyphname = K;
layers = (
{
background = {
shapes = (
{
closed = 1;
nodes = (
(386,300,l),
(506,74,ls),
(518,52,o),
(529,8,o),
(488,8,c),
(488,0,l),
(861,0,ls),
(871,0,o),
(871,10,o),
(861,10,cs),
(820,10,o),
(787,31,o),
(760,75,cs),
(517,468,l)
);
},
{
closed = 1;
nodes = (
(-206,368,o),
(-146,314,o),
(-68,314,cs),
(9,314,o),
(46,369,o),
(46,422,cs),
(46,492,o),
(-10,522,o),
(-66,522,cs),
(-95,522,o),
(-125,514,o),
(-147,499,c),
(-147,574,o),
(-95,665,o),
(32,665,cs),
(72,665,o),
(109,642,o),
(109,589,cs),
(109,95,ls),
(109,37,o),
(82,8,o),
(2,8,c),
(2,0,l),
(433,0,l),
(433,8,l),
(353,8,o),
(326,37,o),
(326,95,cs),
(326,589,ls),
(326,642,o),
(357,668,o),
(433,668,c),
(433,676,l),
(63,676,ls),
(-109,676,o),
(-206,565,o),
(-206,459,cs)
);
},
{
closed = 1;
nodes = (
(791,676,l),
(508,676,l),
(508,667,l),
(539,667,ls),
(635,667,o),
(558,520,o),
(519,476,c),
(306,212,l),
(305,198,l),
(538,487,l),
(592,548,o),
(711,667,o),
(791,667,c)
);
}
);
};
layerId = "1E866B1E-53BE-4037-8596-F70CE02E0A5A";
leftMetricsKey = h;
shapes = (
{
closed = 1;
nodes = (
(-30,0,l),
(209,0,l),
(210,5,l),
(131,12,o),
(103,4,o),
(113,62,cs),
(210,614,ls),
(220,672,o),
(247,664,o),
(327,671,c),
(328,676,l),
(89,676,l),
(88,671,l),
(167,664,o),
(195,672,o),
(185,614,cs),
(88,62,ls),
(78,4,o),
(52,12,o),
(-29,5,c)
);
},
{
closed = 1;
nodes = (
(309,398,l),
(288,381,l),
(436,75,ls),
(469,7,o),
(434,14,o),
(339,5,c),
(338,0,l),
(614,0,l),
(615,5,l),
(546,12,o),
(505,-2,o),
(463,83,cs)
);
},
{
closed = 1;
nodes = (
(134,225,l),
(477,564,ls),
(569,655,o),
(596,664,o),
(688,671,c),
(689,676,l),
(461,676,l),
(460,671,l),
(549,664,o),
(584,679,o),
(474,570,cs),
(129,230,l)
);
}
);
width = 664;
},
{
layerId = "5534EA4B-8E80-4C74-8911-C7987B86627E";
shapes = (
{
closed = 1;
nodes = (
(-58,0,l),
(373,0,l),
(374,8,l),
(294,8,o),
(273,37,o),
(283,95,cs),
(370,589,ls),
(379,642,o),
(415,668,o),
(491,668,c),
(492,676,l),
(61,676,l),
(60,668,l),
(140,668,o),
(162,639,o),
(151,581,cs),
(66,95,ls),
(56,37,o),
(23,8,o),
(-57,8,c)
);
},
{
closed = 1;
nodes = (
(539,487,l),
(373,319,l),
(463,74,ls),
(471,51,o),
(470,8,o),
(429,8,c),
(428,0,l),
(801,0,l),
(802,8,l),
(761,8,o),
(732,31,o),
(713,75,c)
);
},
{
closed = 1;
nodes = (
(312,260,l),
(545,487,ls),
(609,550,o),
(762,668,o),
(842,668,c),
(843,676,l),
(548,676,l),
(547,668,l),
(661,668,o),
(547,505,o),
(492,451,cs),
(314,274,l)
);
}
);
width = 801;
}
);
unicode = 75;
},
{
glyphname = L;
layers = (
{
background = {
shapes = (
{
closed = 1;
nodes = (
(618,197,l),
(594,16,o),
(454,6,o),
(397,0,c),
(618,0,l)
);
}
);
};
layerId = "1E866B1E-53BE-4037-8596-F70CE02E0A5A";
shapes = (
{
closed = 1;
nodes = (
(-30,0,l),
(202,0,l),
(103,5,l),
(210,614,ls),
(220,672,o),
(246,664,o),
(327,671,c),
(328,676,l),
(89,676,l),
(88,671,l),
(167,664,o),
(195,672,o),
(185,614,cs),
(88,62,ls),
(78,4,o),
(51,8,o),
(-29,5,c)
);
},
{
closed = 1;
nodes = (
(74,8,l),
(103,0,l),
(394,0,l),
(437,193,l),
(432,193,l),
(382,17,o),
(396,8,o),
(232,8,cs)
);
}
);
width = 493;
},
{
layerId = "5534EA4B-8E80-4C74-8911-C7987B86627E";
shapes = (
{
closed = 1;
nodes = (
(-58,0,l),
(373,0,l),
(267,8,l),
(368,581,ls),
(379,639,o),
(411,668,o),
(491,668,c),
(492,676,l),
(61,676,l),
(60,668,l),
(140,668,o),
(162,639,o),
(151,581,cs),
(66,95,ls),
(56,37,o),
(23,8,o),
(-57,8,c)
);
},
{
closed = 1;
nodes = (
(231,9,l),
(251,0,l),
(533,0,l),
(612,308,l),
(604,308,l),
(565,209,o),
(430,9,o),
(272,9,cs)
);
}
);
width = 637;
}
);
rightKerningGroup = L;
unicode = 76;
},
{
glyphname = M;
layers = (
{
background = {
shapes = (
{
closed = 1;
nodes = (
(99,661,l),
(119,656,o),
(137,649,o),
(148,638,c),
(148,133,ls),
(148,65,o),
(126,10,o),
(56,10,cs),
(0,10,ls),
(-9,10,o),
(-9,0,o),
(0,0,cs),
(304,0,ls),
(313,0,o),
(313,10,o),
(304,10,cs),
(248,10,ls),
(173,10,o),
(158,65,o),
(158,133,cs),
(158,627,l),
(181,601,o),
(196,564,o),
(211,530,c),
(296,326,o),
(442,-26,o),
(442,-26,c),
(452,-26,l),
(673,563,ls),
(683,591,o),
(692,615,o),
(702,633,c),
(702,186,l),
(919,186,l),
(919,553,ls),
(919,661,o),
(941,667,o),
(1001,667,cs),
(1009,667,o),
(1010,676,o),
(1001,676,cs),
(759,676,ls),
(706,676,o),
(688,636,o),
(669,586,cs),
(557,285,ls),
(554,276,o),
(547,282,o),
(544,291,cs),
(500,401,o),
(449,518,o),
(440,541,c),
(393,647,o),
(367,676,o),
(281,676,cs),
(113,676,l)
);
},
{
closed = 1;
nodes = (
(190,676,l),
(71,676,ls),
(-101,676,o),
(-198,565,o),
(-198,459,cs),
(-198,368,o),
(-138,314,o),
(-60,314,cs),
(16,314,o),
(54,369,o),
(54,422,cs),
(54,473,o),
(20,523,o),
(-50,523,cs),
(-83,523,o),
(-115,515,o),
(-139,499,c),
(-139,574,o),
(-87,665,o),
(40,665,cs),
(80,665,o),
(117,650,o),
(117,605,cs),
(117,578,l)
);
},
{
closed = 1;
nodes = (
(122,676,l),
(71,676,ls),
(-101,676,o),
(-198,566,o),
(-198,456,cs),
(-198,370,o),
(-139,314,o),
(-60,314,cs),
(19,314,o),
(61,370,o),
(61,425,cs),
(61,475,o),
(26,523,o),
(-46,523,cs),
(-83,523,o),
(-114,510,o),
(-139,489,c),
(-139,573,o),
(-86,665,o),
(39,665,cs),
(57,665,o),
(115,663,o),
(148,638,c)
);
},
{
closed = 1;
nodes = (
(148,638,l),
(148,230,ls),
(148,78,o),
(126,10,o),
(56,10,cs),
(0,10,ls),
(-9,10,o),
(-9,0,o),
(0,0,cs),
(304,0,ls),
(313,0,o),
(313,10,o),
(304,10,cs),
(248,10,ls),
(173,10,o),
(158,78,o),
(158,230,cs),
(158,627,l),
(181,601,o),
(196,564,o),
(211,530,c),
(296,326,o),
(442,-26,o),
(442,-26,c),
(452,-26,l),
(673,563,ls),
(683,591,o),
(692,615,o),
(702,633,c),
(702,186,l),
(919,186,l),
(919,553,ls),
(919,661,o),
(946,667,o),
(1026,667,c),
(1026,676,l),
(702,676,l),
(669,586,l),
(557,285,ls),
(552,273,o),
(547,282,o),
(544,291,cs),
(500,401,o),
(449,518,o),
(440,541,c),
(393,647,o),
(367,676,o),
(281,676,cs),
(113,676,l)
);
},
{
closed = 1;
nodes = (
(702,236,l),
(702,95,ls),
(702,37,o),
(675,8,o),
(595,8,c),
(595,0,l),
(1026,0,l),
(1026,8,l),
(946,8,o),
(919,37,o),
(919,95,cs),
(919,236,l)
);
}
);
};
layerId = "1E866B1E-53BE-4037-8596-F70CE02E0A5A";
leftMetricsKey = n;
rightMetricsKey = h;
shapes = (
{
closed = 1;
nodes = (
(88,671,l),
(213,661,o),
(208,662,o),
(220,613,cs),
(376,-11,l),
(389,-11,l),
(769,653,l),
(665,62,ls),
(655,4,o),
(629,12,o),
(548,5,c),
(547,0,l),
(786,0,l),
(787,5,l),
(708,12,o),
(680,4,o),
(690,62,cs),
(787,614,ls),
(797,672,o),
(823,664,o),
(904,671,c),
(905,676,l),
(773,676,l),
(406,36,ls),
(399,23,o),
(397,28,o),
(395,35,cs),
(235,676,l),
(89,676,l)
);
},
{
closed = 1;
nodes = (
(209,671,l),
(111,116,ls),
(91,0,o),
(75,10,o),
(-29,5,c),
(-30,0,l),
(230,0,l),
(231,5,l),
(114,10,o),
(99,0,o),
(119,116,cs),
(217,668,l)
);
}
);
width = 876;
},
{
layerId = "5534EA4B-8E80-4C74-8911-C7987B86627E";
rightMetricsKey = H;
shapes = (
{
closed = 1;
nodes = (
(58,668,l),
(199,668,o),
(215,651,o),
(244,530,cs),
(379,-15,l),
(392,-15,l),
(756,644,l),
(659,95,ls),
(649,37,o),
(616,8,o),
(536,8,c),
(535,0,l),
(966,0,l),
(967,8,l),
(887,8,o),
(866,37,o),
(876,95,cs),
(957,554,ls),
(976,662,o),
(1004,668,o),
(1084,668,c),
(1085,676,l),
(761,676,l),
(547,285,ls),
(541,273,o),
(537,282,o),
(535,291,c),
(443,676,l),
(59,676,l)
);
},
{
closed = 1;
nodes = (
(204,656,l),
(140,296,ls),
(117,162,o),
(92,8,o),
(-59,8,c),
(-60,0,l),
(259,0,l),
(260,8,l),
(122,8,o),
(135,212,o),
(162,364,cs),
(214,656,l)
);
}
);
width = 1028;
}
);
unicode = 77;
},
{
glyphname = N;
layers = (
{
background = {
shapes = (
{
closed = 1;
nodes = (
(313,298,o),
(361,250,o),
(421,250,cs),
(481,250,o),
(530,298,o),
(530,358,cs),
(530,418,o),
(481,467,o),
(421,467,cs),
(361,467,o),
(313,418,o),
(313,358,cs)
);
}
);
};
guides = (
{
angle = 90;
position = "{30, 0}";
}
);
layerId = "1E866B1E-53BE-4037-8596-F70CE02E0A5A";
shapes = (
{
closed = 1;
nodes = (
(531,-2,l,{name = hr01;}),
(544,-2,l),
(544,47,l),
(544,43,o),
(543,40,o),
(541,44,cs),
(227,676,l),
(89,676,l),
(88,671,l),
(182,664,o),
(200,664,o),
(211,642,cs)
);
},
{
closed = 1;
nodes = (
(536,-2,l),
(544,-2,l),
(643,560,ls),
(663,676,o),
(679,666,o),
(783,671,c),
(784,676,l),
(524,676,l),
(523,671,l),
(640,666,o),
(655,676,o),
(635,560,cs)
);
},
{
closed = 1;
nodes = (
(-30,0,l),
(230,0,l),
(231,5,l),
(114,10,o),
(99,0,o),
(119,116,cs),
(217,668,l),
(209,671,l),
(111,116,ls),
(91,0,o),
(75,10,o),
(-29,5,c)
);
}
);
width = 735;
},
{
layerId = "5534EA4B-8E80-4C74-8911-C7987B86627E";
shapes = (
{
closed = 1;
nodes = (
(450,0,l,{name = hr01;}),
(578,0,l),
(610,238,l),
(608,228,o),
(602,227,o),
(598,234,cs),
(373,676,l),
(39,676,l),
(38,668,l),
(124,668,o),
(156,594,o),
(185,530,c)
);
},
{
closed = 1;
nodes = (
(568,0,l),
(578,0,l),
(641,356,ls),
(664,489,o),
(730,668,o),
(844,668,c),
(845,676,l),
(526,676,l),
(525,668,l),
(663,668,o),
(651,468,o),
(624,316,cs)
);
},
{
closed = 1;
nodes = (
(-70,0,l),
(249,0,l),
(250,8,l),
(112,8,o),
(140,297,o),
(167,449,cs),
(198,625,l),
(188,625,l),
(142,361,ls),
(118,227,o),
(82,8,o),
(-69,8,c)
);
}
);
width = 754;
}
);
unicode = 78;
},
{
glyphname = O;
layers = (
{
anchors = (
{
name = top;
position = "{452, 750}";
}
);
background = {
shapes = (
{
closed = 1;
nodes = (
(450,680,o),
(488,673,o),
(500,659,c),
(441,623,o),
(416,571,o),
(416,528,cs),
(416,471,o),
(459,423,o),
(522,423,cs),
(576,423,o),
(635,459,o),
(635,537,cs),
(635,640,o),
(532,692,o),
(402,692,cs),
(184,692,o),
(15,545,o),
(15,334,cs),
(15,152,o),
(142,-16,o),
(363,-16,cs),
(503,-16,o),
(598,51,o),
(626,149,c),
(626,154,o),
(627,158,o),
(623,158,c),
(592,70,o),
(545,36,o),
(455,36,cs),
(325,36,o),
(266,106,o),
(266,357,cs),
(266,610,o),
(326,679,o),
(418,680,c)
);
}
);
};
layerId = "1E866B1E-53BE-4037-8596-F70CE02E0A5A";
shapes = (
{
closed = 1;
nodes = (
(311,-4,ls),
(107,-4,o),
(38,156,o),
(70,338,cs),
(102,521,o),
(228,680,o),
(432,680,cs),
(436,680,ls),
(628,680,o),
(710,521,o),
(677,334,cs),
(646,156,o),
(519,-4,o),
(315,-4,cs)
);
},
{
closed = 1;
nodes = (
(-4,91,o),
(154,-12,o),
(308,-12,cs),
(316,-12,ls),
(470,-12,o),
(664,91,o),
(707,334,cs),
(751,586,o),
(581,688,o),
(439,688,cs),
(431,688,ls),
(277,688,o),
(83,586,o),
(40,339,cs)
);
}
);
width = 748;
},
{
anchors = (
{
name = top;
position = "{478, 751}";
}
);
layerId = "5534EA4B-8E80-4C74-8911-C7987B86627E";
shapes = (
{
closed = 1;
nodes = (
(341,-3,ls),
(235,-3,o),
(234,156,o),
(266,339,cs),
(298,521,o),
(356,679,o),
(462,679,cs),
(466,679,ls),
(564,679,o),
(574,521,o),
(542,339,cs),
(510,156,o),
(451,-3,o),
(345,-3,cs)
);
},
{
closed = 1;
nodes = (
(-22,91,o),
(166,-12,o),
(338,-12,cs),
(346,-12,ls),
(518,-12,o),
(745,90,o),
(788,334,cs),
(827,555,o),
(678,688,o),
(469,688,cs),
(461,688,ls),
(289,688,o),
(59,586,o),
(19,339,cs)
);
}
);
width = 800;
}
);
leftKerningGroup = G;
rightKerningGroup = O;
unicode = 79;
},
{
glyphname = P;
layers = (
{
background = {
shapes = (
{
closed = 1;
nodes = (
(393,0,ls),
(402,0,o),
(402,10,o),
(393,10,cs),
(232,10,l),
(223,11,o),
(225,21,o),
(234,21,cs),
(320,21,o),
(328,85,o),
(328,128,cs),
(328,319,l),
(448,319,l),
(727,297,o),
(766,706,o),
(450,706,cs),
(62,706,ls),
(-116,706,o),
(-238,579,o),
(-238,448,cs),
(-238,338,o),
(-172,276,o),
(-82,276,cs),
(8,276,o),
(81,341,o),
(81,430,cs),
(81,496,o),
(39,566,o),
(-30,561,c),
(-28,540,o),
(-56,512,o),
(-86,512,cs),
(-109,512,o),
(-135,532,o),
(-135,571,cs),
(-135,646,o),
(-55,696,o),
(62,697,c),
(113,697,l),
(113,134,ls),
(113,97,o),
(117,9,o),
(6,9,cs),
(-6,9,o),
(-6,0,o),
(7,0,c)
);
},
{
closed = 1;
nodes = (
(328,697,l),
(390,697,ls),
(461,697,o),
(488,646,o),
(488,547,cs),
(488,511,ls),
(488,403,o),
(456,329,o),
(371,329,cs),
(328,329,l)
);
}
);
};
layerId = "1E866B1E-53BE-4037-8596-F70CE02E0A5A";
leftMetricsKey = h;
shapes = (
{
closed = 1;
nodes = (
(-30,0,l),
(209,0,l),
(210,5,l),
(131,12,o),
(103,4,o),
(113,62,cs),
(220,668,l),
(293,668,ls),
(435,668,o),
(480,588,o),
(480,510,cs),
(480,400,o),
(377,299,o),
(268,299,cs),
(256,299,o),
(243,300,o),
(231,303,c),
(231,298,l),
(243,295,o),
(260,293,o),
(276,293,cs),
(391,293,o),
(510,392,o),
(510,511,cs),
(510,603,o),
(428,676,o),
(315,676,cs),
(89,676,l),
(88,671,l),
(167,664,o),
(195,672,o),
(185,614,cs),
(88,62,ls),
(78,4,o),
(52,12,o),
(-29,5,c)
);
}
);
width = 499;
},
{
layerId = "5534EA4B-8E80-4C74-8911-C7987B86627E";
shapes = (
{
closed = 1;
nodes = (
(-58,0,l),
(355,0,l),
(356,8,l),
(285,8,o),
(272,36,o),
(283,94,cs),
(384,668,l),
(403,668,ls),
(480,668,o),
(512,592,o),
(496,482,cs),
(482,386,o),
(423,276,o),
(357,276,cs),
(354,276,o),
(352,277,o),
(349,277,c),
(347,267,l),
(368,264,o),
(388,262,o),
(411,262,cs),
(545,262,o),
(693,332,o),
(714,467,cs),
(731,578,o),
(643,676,o),
(476,676,cs),
(61,676,l),
(60,668,l),
(140,668,o),
(162,639,o),
(151,581,cs),
(66,95,ls),
(56,37,o),
(23,8,o),
(-57,8,c)
);
}
);
width = 681;
}
);
rightKerningGroup = O;
unicode = 80;
},
{
glyphname = Q;
leftMetricsKey = o;
layers = (
{
background = {
shapes = (
{
closed = 1;
nodes = (
(323,34,l),
(321,38,o),
(319,43,o),
(319,49,cs),
(319,67,o),
(329,105,o),
(383,105,cs),
(472,105,o),
(485,-3,o),
(526,-92,c),
(564,-180,o),
(629,-254,o),
(726,-254,cs),
(821,-254,o),
(897,-185,o),
(897,-100,c),
(897,-155,o),
(863,-206,o),
(774,-201,cs),
(594,-190,o),
(538,122,o),
(404,122,cs),
(329,122,o),
(310,72,o),
(310,49,cs),
(310,41,o),
(314,34,o),
(318,29,c)
);
},
{
closed = 1;
nodes = (
(509,2,o),
(538,159,o),
(538,339,cs),
(538,520,o),
(508,677,o),
(404,679,c),
(520,678,o),
(662,584,o),
(662,339,cs),
(662,92,o),
(523,-2,o),
(407,-3,c)
);
}
);
};
layerId = "1E866B1E-53BE-4037-8596-F70CE02E0A5A";
shapes = (
{
closed = 1;
nodes = (
(240,3,l),
(214,12,o),
(199,30,o),
(204,59,cs),
(210,92,o),
(248,116,o),
(296,116,cs),
(351,116,o),
(400,85,o),
(434,33,cs),
(497,-65,o),
(528,-191,o),
(680,-191,cs),
(739,-191,o),
(793,-157,o),
(820,-108,c),
(815,-107,l),
(793,-147,o),
(752,-178,o),
(699,-178,cs),
(520,-178,o),
(474,125,o),
(300,125,cs),
(249,125,o),
(203,96,o),
(196,58,cs),
(191,28,o),
(208,10,o),
(233,0,c)
);
},
{
closed = 1;
nodes = (
(316,-12,ls),
(470,-12,o),
(664,91,o),
(707,334,cs),
(751,586,o),
(581,688,o),
(439,688,cs),
(431,688,ls),
(277,688,o),
(83,586,o),
(40,339,cs),
(-4,91,o),
(154,-12,o),
(308,-12,cs)
);
},
{
closed = 1;
nodes = (
(311,-4,ls),
(107,-4,o),
(38,156,o),
(70,338,cs),
(102,521,o),
(228,680,o),
(432,680,cs),
(436,680,ls),
(628,680,o),
(710,521,o),
(677,334,cs),
(646,156,o),
(519,-4,o),
(315,-4,cs)
);
}
);
width = 747;
},
{
layerId = "5534EA4B-8E80-4C74-8911-C7987B86627E";
shapes = (
{
closed = 1;
nodes = (
(300,7,l),
(282,18,o),
(266,36,o),
(271,60,cs),
(275,82,o),
(296,105,o),
(342,105,cs),
(431,105,o),
(424,-3,o),
(450,-92,c),
(472,-180,o),
(524,-254,o),
(621,-254,cs),
(716,-254,o),
(804,-185,o),
(819,-100,c),
(812,-100,l),
(806,-134,o),
(782,-158,o),
(735,-158,cs),
(575,-158,o),
(528,122,o),
(366,122,cs),
(298,122,o),
(267,86,o),
(262,59,cs),
(257,33,o),
(275,13,o),
(294,2,c)
);
},
{
closed = 1;
nodes = (
(346,-12,ls),
(518,-12,o),
(745,90,o),
(788,334,cs),
(827,555,o),
(678,688,o),
(469,688,cs),
(461,688,ls),
(289,688,o),
(59,586,o),
(19,339,cs),
(-22,91,o),
(166,-12,o),
(338,-12,cs)
);
},
{
closed = 1;
nodes = (
(341,-3,ls),
(235,-3,o),
(234,156,o),
(266,339,cs),
(298,521,o),
(356,679,o),
(462,679,cs),
(466,679,ls),
(564,679,o),
(574,521,o),
(542,339,cs),
(510,156,o),
(451,-3,o),
(345,-3,cs)
);
}
);
width = 800;
}
);
leftKerningGroup = G;
rightKerningGroup = O;
unicode = 81;
},
{
glyphname = R;
layers = (
{
layerId = "1E866B1E-53BE-4037-8596-F70CE02E0A5A";
leftMetricsKey = h;
shapes = (
{
closed = 1;
nodes = (
(-30,0,l),
(209,0,l),
(210,5,l),
(131,12,o),
(103,4,o),
(113,62,cs),
(220,668,l),
(293,668,ls),
(427,668,o),
(477,604,o),
(477,529,cs),
(477,396,o),
(349,320,o),
(263,315,c),
(261,307,l),
(354,307,o),
(392,22,o),
(448,0,c),
(524,0,l,{name = hr01;}),
(525,5,l),
(505,5,o),
(480,7,o),
(465,24,cs),
(428,65,o),
(404,155,o),
(376,219,cs),
(354,266,o),
(320,298,o),
(286,307,cs),
(271,311,o),
(280,311,o),
(289,312,cs),
(371,322,o),
(507,402,o),
(507,534,cs),
(507,627,o),
(420,676,o),
(314,676,cs),
(89,676,l),
(88,671,l),
(167,664,o),
(195,672,o),
(185,614,cs),
(88,62,ls),
(78,4,o),
(52,12,o),
(-29,5,c)
);
}
);
width = 556;
},
{
layerId = "5534EA4B-8E80-4C74-8911-C7987B86627E";
shapes = (
{
closed = 1;
nodes = (
(-58,0,l),
(373,0,l),
(374,8,l),
(294,8,o),
(273,37,o),
(283,95,cs),
(384,668,l),
(402,668,ls),
(476,668,o),
(506,612,o),
(506,545,cs),
(506,460,o),
(447,318,o),
(349,317,c),
(347,307,l),
(428,307,o),
(393,99,o),
(444,0,c),
(760,0,l,{name = hr01;}),
(761,8,l),
(738,8,o),
(721,17,o),
(707,32,cs),
(665,75,o),
(651,170,o),
(594,237,cs),
(558,281,o),
(489,311,o),
(408,311,cs),
(386,311,o),
(392,313,o),
(407,314,cs),
(588,324,o),
(731,414,o),
(731,519,cs),
(731,604,o),
(653,676,o),
(473,676,cs),
(61,676,l),
(60,668,l),
(140,668,o),
(162,639,o),
(151,581,cs),
(66,95,ls,{name = hr02;}),
(56,37,o),
(23,8,o),
(-57,8,c)
);
}
);
width = 733;
}
);
unicode = 82;
},
{
glyphname = S;
layers = (
{
anchors = (
{
name = top;
position = "{284, 750}";
}
);
background = {
shapes = (
{
closed = 1;
nodes = (
(251,-7,l),
(121,-7,o),
(45,60,o),
(48,126,c),
(69,100,o),
(105,87,o),
(134,87,cs),
(191,87,o),
(246,117,o),
(246,183,cs),
(246,239,o),
(206,281,o),
(135,281,cs),
(54,281,o),
(-5,226,o),
(-5,155,cs),
(-5,65,o),
(88,-15,o),
(251,-15,c)
);
},
{
closed = 1;
nodes = (
(209,292,o),
(257,244,o),
(317,244,cs),
(377,244,o),
(425,292,o),
(425,352,cs),
(425,412,o),
(377,460,o),
(317,460,cs),
(257,460,o),
(209,412,o),
(209,352,cs)
);
}
);
};
layerId = "1E866B1E-53BE-4037-8596-F70CE02E0A5A";
shapes = (
{
closed = 1;
nodes = (
(-14,-5,l),
(-8,-5,l),
(-6,14,o),
(0,25,o),
(13,25,cs),
(41,25,o),
(58,-10,o),
(154,-10,cs),
(260,-10,o),
(355,60,o),
(371,163,cs),
(387,265,o),
(318,310,o),
(230,384,cs),
(167,436,o),
(112,480,o),
(126,559,cs),
(139,633,o),
(204,678,o),
(284,678,cs),
(376,678,o),
(409,618,o),
(405,532,c),
(409,532,l,{name = hr01;}),
(429,681,l),
(424,681,l),
(418,659,o),
(413,652,o),
(404,652,cs),
(372,652,o),
(360,686,o),
(285,686,cs),
(189,686,o),
(101,620,o),
(101,519,cs),
(101,464,o),
(129,428,o),
(211,358,cs),
(293,289,o),
(359,245,o),
(342,148,cs),
(326,55,o),
(244,-2,o),
(156,-2,cs),
(110,-2,o),
(77,4,o),
(55,21,cs),
(20,47,o),
(1,61,o),
(6,185,c),
(0,184,l)
);
}
);
width = 445;
},
{
anchors = (
{
name = top;
position = "{383, 751}";
}
);
layerId = "5534EA4B-8E80-4C74-8911-C7987B86627E";
shapes = (
{
closed = 1;
nodes = (
(-9,-7,l),
(0,-7,l),
(2,7,o),
(12,29,o),
(39,29,cs),
(88,29,o),
(140,-12,o),
(233,-12,cs),
(390,-12,o),
(553,79,o),
(553,252,cs),
(553,348,o),
(484,405,o),
(347,472,cs),
(301,494,o),
(227,534,o),
(227,597,cs),
(227,652,o),
(285,679,o),
(336,679,cs),
(443,679,o),
(520,573,o),
(537,454,c),
(543,454,l),
(560,688,l),
(552,688,l),
(550,673,o),
(537,659,o),
(514,659,cs),
(481,659,o),
(416,688,o),
(346,688,cs),
(209,688,o),
(67,614,o),
(67,458,cs),
(67,351,o),
(134,310,o),
(254,238,cs),
(308,205,o),
(380,161,o),
(368,89,cs),
(358,34,o),
(316,-1,o),
(245,-1,cs),
(195,-1,o),
(156,18,o),
(124,47,cs),
(58,108,o),
(28,214,o),
(33,287,c),
(24,287,l)
);
}
);
width = 568;
}
);
leftKerningGroup = sS;
rightKerningGroup = sS;
unicode = 83;
},
{
glyphname = T;
layers = (
{
background = {
shapes = (
{
closed = 1;
nodes = (
(602,0,ls),
(611,0,o),
(611,10,o),
(602,10,cs),
(577,10,ls),
(488,10,o),
(492,98,o),
(492,128,cs),
(492,697,l),
(623,694,o),
(730,512,o),
(730,458,cs),
(730,448,o),
(741,448,o),
(741,458,cs),
(743,706,l),
(192,706,ls),
(13,706,o),
(-110,580,o),
(-110,448,cs),
(-110,338,o),
(-44,276,o),
(46,276,cs),
(136,276,o),
(209,341,o),
(209,430,cs),
(209,496,o),
(167,566,o),
(98,561,c),
(100,540,o),
(72,512,o),
(42,512,cs),
(19,512,o),
(-7,532,o),
(-7,571,cs),
(-7,646,o),
(73,696,o),
(190,697,c),
(273,697,l),
(273,134,ls),
(273,98,o),
(274,9,o),
(180,9,cs),
(165,9,ls),
(153,9,o),
(153,0,o),
(166,0,c)
);
},
{
closed = 1;
nodes = (
(30,676,l),
(30,373,l),
(40,373,l),
(40,478,o),
(174,668,o),
(260,668,c),
(241,668,l),
(241,95,ls),
(241,37,o),
(214,8,o),
(134,8,c),
(134,0,l),
(565,0,l),
(565,8,l),
(485,8,o),
(458,37,o),
(458,95,cs),
(458,668,l),
(469,668,ls),
(603,668,o),
(689,516,o),
(689,411,c),
(699,411,l),
(699,676,l)
);
},
{
closed = 1;
nodes = (
(241,95,ls),
(241,37,o),
(214,8,o),
(134,8,c),
(134,0,l),
(441,0,l),
(399,2,o),
(349,16,o),
(349,95,cs),
(349,581,ls),
(349,646,o),
(396,674,o),
(441,676,c),
(134,676,l),
(134,668,l),
(214,668,o),
(241,639,o),
(241,581,cs)
);
},
{
closed = 1;
nodes = (
(30,676,l),
(30,443,l),
(30,551,o),
(98,676,o),
(207,676,c)
);
}
);
};
layerId = "1E866B1E-53BE-4037-8596-F70CE02E0A5A";
shapes = (
{
closed = 1;
nodes = (
(106,0,l),
(345,0,l),
(346,5,l),
(267,12,o),
(239,4,o),
(249,62,cs),
(356,668,l),
(360,668,o),
(378,668,o),
(382,668,cs),
(572,668,o),
(573,674,o),
(561,536,c),
(566,536,l),
(584,676,l),
(99,676,l),
(75,536,l),
(80,536,l),
(110,675,o),
(109,668,o),
(305,668,c),
(307,668,o),
(329,668,o),
(331,668,c),
(224,62,ls),
(214,4,o),
(188,12,o),
(107,5,c)
);
}
);
width = 571;
},
{
layerId = "5534EA4B-8E80-4C74-8911-C7987B86627E";
shapes = (
{
closed = 1;
nodes = (
(74,0,l),
(505,0,l),
(506,8,l),
(426,8,o),
(405,37,o),
(415,95,cs),
(518,667,l),
(519,666,o),
(521,666,o),
(524,665,cs),
(603,634,o),
(670,468,o),
(670,373,c),
(679,373,l),
(711,676,l),
(104,676,l),
(36,373,l),
(47,373,l),
(66,467,o),
(198,630,o),
(288,664,cs),
(291,665,o),
(297,666,o),
(301,667,c),
(198,95,ls),
(188,37,o),
(155,8,o),
(75,8,c)
);
}
);
width = 699;
}
);
unicode = 84;
},
{
glyphname = U;
layers = (
{
anchors = (
{
name = top;
position = "{440, 751}";
}
);
background = {
shapes = (
{
closed = 1;
nodes = (
(143,676,l),
(34,676,ls),
(-145,676,o),
(-268,550,o),
(-268,418,cs),
(-268,308,o),
(-202,246,o),
(-112,246,cs),
(-22,246,o),
(51,311,o),
(51,400,cs),
(51,466,o),
(9,536,o),
(-60,531,c),
(-58,510,o),
(-86,482,o),
(-116,482,cs),
(-139,482,o),
(-165,502,o),
(-165,541,cs),
(-165,616,o),
(-85,666,o),
(32,667,c),
(84,667,l),
(84,616,l)
);
},
{
closed = 1;
nodes = (
(-23,0,l),
(408,0,l),
(408,8,l),
(328,8,o),
(301,37,o),
(301,95,cs),
(301,667,l),
(334,667,ls),
(414,667,o),
(450,585,o),
(450,501,cs),
(450,410,o),
(410,318,o),
(335,317,c),
(335,307,l),
(361,307,ls),
(437,307,o),
(430,247,o),
(441,150,cs),
(453,40,o),
(526,-11,o),
(630,-11,cs),
(702,-11,o),
(771,30,o),
(797,57,c),
(793,62,l),
(776,46,o),
(760,36,o),
(739,36,cs),
(684,36,o),
(685,104,o),
(677,179,cs),
(665,292,o),
(585,320,o),
(452,320,cs),
(447,320,ls),
(443,320,o),
(440,321,o),
(440,323,c),
(440,325,o),
(442,327,o),
(446,328,c),
(558,335,o),
(665,400,o),
(665,504,cs),
(665,596,o),
(576,676,o),
(410,676,cs),
(38,676,ls),
(-134,676,o),
(-231,565,o),
(-231,459,cs),
(-231,368,o),
(-171,314,o),
(-93,314,cs),
(-17,314,o),
(21,369,o),
(21,422,cs),
(21,491,o),
(-34,523,o),
(-91,523,cs),
(-120,523,o),
(-149,514,o),
(-172,499,c),
(-172,574,o),
(-120,665,o),
(7,665,cs),
(47,665,o),
(84,650,o),
(84,605,cs),
(84,95,ls),
(84,37,o),
(57,8,o),
(-23,8,c)
);
}
);
};
guides = (
{
position = "{0, 664}";
}
);
layerId = "1E866B1E-53BE-4037-8596-F70CE02E0A5A";
shapes = (
{
closed = 1;
nodes = (
(78,671,l),
(157,664,o),
(185,672,o),
(175,614,cs),
(110,242,ls),
(82,84,o),
(127,-14,o),
(295,-14,cs),
(454,-14,o),
(553,75,o),
(584,250,cs),
(646,600,ls),
(659,673,o),
(673,664,o),
(767,671,c),
(768,676,l),
(541,676,l),
(540,671,l),
(632,664,o),
(651,673,o),
(638,600,cs),
(576,250,ls),
(546,80,o),
(453,-3,o),
(304,-3,cs),
(157,-3,o),
(108,88,o),
(133,232,cs),
(200,614,ls),
(210,672,o),
(236,664,o),
(317,671,c),
(318,676,l),
(79,676,l)
);
}
);
width = 719;
},
{
anchors = (
{
name = top;
position = "{515, 751}";
}
);
layerId = "5534EA4B-8E80-4C74-8911-C7987B86627E";
shapes = (
{
closed = 1;
nodes = (
(58,668,l),
(109,668,o),
(140,658,o),
(129,597,cs),
(67,242,ls),
(39,84,o),
(113,-14,o),
(328,-14,cs),
(505,-14,o),
(617,75,o),
(648,250,cs),
(667,356,ls),
(690,489,o),
(756,668,o),
(870,668,c),
(871,676,l),
(552,676,l),
(551,668,l),
(689,668,o),
(677,468,o),
(650,316,cs),
(638,250,ls),
(617,131,o),
(534,21,o),
(423,21,cs),
(298,21,o),
(264,104,o),
(287,232,cs),
(351,597,ls),
(362,658,o),
(397,668,o),
(448,668,c),
(449,676,l),
(59,676,l)
);
}
);
width = 736;
}
);
unicode = 85;
},
{
glyphname = V;
layers = (
{
background = {
shapes = (
{
closed = 1;
nodes = (
(227,700,l),
(100,700,ls),
(-143,700,o),
(-249,573,o),
(-249,441,cs),
(-249,331,o),
(-183,269,o),
(-93,269,cs),
(-3,269,o),
(70,334,o),
(70,423,cs),
(70,489,o),
(28,559,o),
(-41,554,c),
(-39,533,o),
(-67,505,o),
(-97,505,cs),
(-120,505,o),
(-146,525,o),
(-146,564,cs),
(-146,640,o),
(-47,691,o),
(84,691,cs),
(138,691,ls),
(147,691,o),
(147,679,o),
(136,679,cs),
(85,679,o),
(43,634,o),
(80,553,c),
(92,526,l)
);
},
{
closed = 1;
nodes = (
(184,332,o),
(233,283,o),
(293,283,cs),
(353,283,o),
(402,332,o),
(402,392,cs),
(402,452,o),
(353,501,o),
(293,501,cs),
(233,501,o),
(184,452,o),
(184,392,cs)
);
},
{
closed = 1;
nodes = (
(192,287,o),
(240,239,o),
(300,239,cs),
(360,239,o),
(409,287,o),
(409,347,cs),
(409,407,o),
(360,456,o),
(300,456,cs),
(240,456,o),
(192,407,o),
(192,347,cs)
);
}
);
};
layerId = "1E866B1E-53BE-4037-8596-F70CE02E0A5A";
shapes = (
{
closed = 1;
nodes = (
(236,-7,l),
(246,-7,l),
(551,564,ls),
(610,675,o),
(619,664,o),
(711,671,c),
(712,676,l),
(475,676,l),
(474,671,l),
(563,664,o),
(610,689,o),
(538,554,cs),
(256,26,l),
(172,592,ls),
(161,666,o),
(170,664,o),
(281,671,c),
(282,676,l),
(29,676,l),
(28,671,l),
(124,664,o),
(135,667,o),
(147,588,cs)
);
}
);
width = 623;
},
{
layerId = "5534EA4B-8E80-4C74-8911-C7987B86627E";
shapes = (
{
closed = 1;
nodes = (
(251,-7,l),
(309,-7,l),
(560,408,ls),
(598,472,o),
(736,668,o),
(806,668,c),
(807,676,l),
(541,676,l),
(540,668,l),
(663,668,o),
(600,491,o),
(542,398,cs),
(433,218,l),
(370,568,ls),
(359,620,o),
(355,668,o),
(424,668,c),
(425,676,l),
(44,676,l),
(43,668,l),
(97,668,o),
(122,634,o),
(132,588,cs)
);
}
);
width = 696;
}
);
leftKerningGroup = VW;
rightKerningGroup = VW;
unicode = 86;
},
{
glyphname = W;
layers = (
{
background = {
shapes = (
{
closed = 1;
nodes = (
(419,668,l),
(467,668,o),
(495,612,o),
(505,588,cs),
(763,-1,l),
(774,-1,l),
(1000,487,ls),
(1029,549,o),
(1084,667,o),
(1154,667,cs),
(1164,667,ls),
(1175,667,o),
(1176,676,o),
(1165,676,cs),
(919,676,ls),
(908,676,o),
(907,667,o),
(918,667,cs),
(957,667,ls),
(1053,667,o),
(1004,523,o),
(985,476,c),
(876,242,l),
(747,568,ls),
(713,653,o),
(741,666,o),
(772,668,c),
(780,668,ls),
(790,668,o),
(792,676,o),
(783,676,cs),
(419,676,l)
);
},
{
closed = 1;
nodes = (
(28,676,ls),
(-134,676,o),
(-224,580,o),
(-224,470,cs),
(-224,384,o),
(-164,313,o),
(-86,313,cs),
(-9,313,o),
(28,367,o),
(28,422,cs),
(28,487,o),
(-24,519,o),
(-72,519,cs),
(-111,519,o),
(-154,498,o),
(-166,464,c),
(-168,473,o),
(-168,484,o),
(-168,487,cs),
(-168,572,o),
(-103,665,o),
(-1,665,cs),
(67,665,o),
(95,626,o),
(112,588,cs),
(370,-1,l),
(381,-1,l),
(607,487,ls),
(636,549,o),
(693,671,o),
(763,671,cs),
(766,671,ls),
(777,671,o),
(783,676,o),
(772,676,cs),
(526,676,ls),
(515,676,o),
(514,667,o),
(525,667,cs),
(564,667,ls),
(660,667,o),
(611,523,o),
(592,476,c),
(483,242,l),
(354,568,ls),
(320,653,o),
(348,666,o),
(379,668,c),
(387,668,ls),
(397,668,o),
(399,676,o),
(390,676,cs)
);
}
);
};
layerId = "1E866B1E-53BE-4037-8596-F70CE02E0A5A";
leftMetricsKey = v;
rightMetricsKey = v;
shapes = (
{
closed = 1;
nodes = (
(554,-7,l),
(564,-7,l),
(848,564,ls),
(903,674,o),
(936,664,o),
(1004,671,c),
(1008,671,l),
(1009,676,l),
(772,676,l),
(771,671,l),
(860,664,o),
(902,691,o),
(834,554,cs),
(574,28,l),
(509,592,ls),
(500,666,o),
(507,664,o),
(612,671,c),
(618,671,l),
(619,676,l),
(366,676,l),
(365,671,l),
(461,664,o),
(475,668,o),
(484,588,cs)
);
},
{
closed = 1;
nodes = (
(500,559,l),
(499,557,o),
(497,555,o),
(496,552,cs),
(237,28,l),
(172,592,ls),
(163,666,o),
(170,664,o),
(275,671,c),
(281,671,l),
(282,676,l),
(29,676,l),
(28,671,l),
(124,664,o),
(138,668,o),
(147,588,cs),
(217,-7,l),
(227,-7,l),
(499,538,ls),
(500,541,o),
(502,545,o),
(504,548,c)
);
}
);
width = 920;
},
{
guides = (
{
position = "{0, 218}";
}
);
layerId = "5534EA4B-8E80-4C74-8911-C7987B86627E";
leftMetricsKey = V;
shapes = (
{
closed = 1;
nodes = (
(677,-7,l),
(735,-7,l),
(973,408,ls),
(1010,473,o),
(1145,668,o),
(1215,668,cs),
(1219,668,l),
(1220,676,l),
(954,676,l),
(953,668,l),
(1076,668,o),
(1012,495,o),
(957,398,cs),
(854,218,l),
(783,568,ls),
(766,654,o),
(795,668,o),
(826,668,cs),
(837,668,l),
(838,676,l),
(457,676,l),
(456,668,l),
(510,668,o),
(535,634,o),
(545,588,cs)
);
},
{
closed = 1;
nodes = (
(600,527,l),
(587,482,o),
(566,436,o),
(544,398,cs),
(441,218,l),
(370,568,ls),
(353,654,o),
(382,668,o),
(413,668,cs),
(424,668,l),
(425,676,l),
(44,676,l),
(43,668,l),
(97,668,o),
(122,634,o),
(132,588,cs),
(264,-7,l),
(322,-7,l),
(560,408,ls),
(572,429,o),
(596,465,o),
(624,503,c)
);
}
);
width = 1109;
}
);
leftKerningGroup = VW;
rightKerningGroup = VW;
unicode = 87;
},
{
glyphname = X;
layers = (
{
background = {
shapes = (
{
closed = 0;
nodes = (
(179,278,ls),
(157,211,o),
(81,8,o),
(-15,8,c),
(-15,0,l),
(292,0,l),
(292,8,l),
(134,8,o),
(160,193,o),
(194,292,cs)
);
}
);
};
guides = (
{
angle = 90;
position = "{595, 0}";
},
{
angle = 90;
position = "{3, 0}";
}
);
layerId = "1E866B1E-53BE-4037-8596-F70CE02E0A5A";
shapes = (
{
closed = 1;
nodes = (
(296,331,l),
(466,563,ls),
(536,658,o),
(554,664,o),
(646,671,c),
(647,676,l),
(429,676,l),
(428,671,l),
(517,664,o),
(547,684,o),
(463,570,cs),
(294,340,l)
);
},
{
closed = 1;
nodes = (
(274,0,l),
(529,0,l),
(530,5,l),
(466,12,o),
(431,-4,o),
(399,83,cs),
(207,592,ls),
(182,659,o),
(178,664,o),
(289,671,c),
(290,676,l),
(62,676,l),
(61,671,l),
(157,664,o),
(153,661,o),
(180,588,cs),
(372,75,ls),
(400,3,o),
(353,12,o),
(275,5,c)
);
},
{
closed = 1;
nodes = (
(-63,0,l),
(139,0,l),
(140,5,l),
(56,12,o),
(54,13,o),
(110,89,cs),
(288,335,l),
(288,346,l),
(96,83,ls),
(36,2,o),
(10,11,o),
(-62,5,c)
);
}
);
width = 590;
},
{
layerId = "5534EA4B-8E80-4C74-8911-C7987B86627E";
shapes = (
{
closed = 1;
nodes = (
(375,316,l),
(480,449,ls),
(517,496,o),
(680,668,o),
(751,668,c),
(752,676,l),
(470,676,l),
(469,668,l),
(581,668,o),
(528,528,o),
(470,453,cs),
(372,329,l)
);
},
{
closed = 1;
nodes = (
(268,0,l),
(667,0,l),
(668,8,l),
(617,8,o),
(590,31,o),
(576,67,cs),
(360,594,ls),
(338,648,o),
(370,668,o),
(409,668,c),
(410,676,l),
(24,676,l),
(23,668,l),
(63,668,o),
(89,641,o),
(102,609,cs),
(314,92,ls),
(330,53,o),
(326,8,o),
(269,8,c)
);
},
{
closed = 1;
nodes = (
(-84,0,l),
(184,0,l),
(185,8,l),
(75,8,o),
(157,189,o),
(210,256,cs),
(282,347,l),
(279,360,l),
(188,244,ls),
(151,196,o),
(-16,8,o),
(-83,8,c)
);
}
);
width = 692;
}
);
unicode = 88;
},
{
glyphname = Y;
layers = (
{
anchors = (
{
name = top;
position = "{387, 751}";
}
);
background = {
shapes = (
{
closed = 1;
nodes = (
(520,0,ls),
(529,0,o),
(529,10,o),
(520,10,cs),
(360,10,ls),
(349,10,o),
(351,22,o),
(360,22,cs),
(446,22,o),
(454,106,o),
(454,149,cs),
(454,286,ls),
(454,306,o),
(452,322,o),
(445,342,c),
(600,602,ls),
(629,650,o),
(658,691,o),
(725,691,cs),
(736,691,ls),
(746,691,o),
(747,701,o),
(737,701,cs),
(517,701,ls),
(509,701,o),
(509,691,o),
(516,691,cs),
(540,691,ls),
(595,691,o),
(617,647,o),
(590,601,cs),
(441,351,l),
(422,399,o),
(379,467,o),
(293,622,cs),
(267,669,o),
(289,692,o),
(322,692,cs),
(332,692,o),
(332,702,o),
(323,702,cs),
(83,702,l),
(-116,701,o),
(-246,572,o),
(-246,441,cs),
(-246,331,o),
(-180,269,o),
(-90,269,cs),
(0,269,o),
(73,334,o),
(73,423,cs),
(73,489,o),
(31,559,o),
(-38,554,c),
(-36,533,o),
(-64,505,o),
(-94,505,cs),
(-117,505,o),
(-143,525,o),
(-143,564,cs),
(-143,640,o),
(-31,692,o),
(75,692,cs),
(141,692,ls),
(148,692,o),
(148,683,o),
(141,683,cs),
(110,683,o),
(76,652,o),
(76,596,cs),
(76,479,o),
(236,330,o),
(236,211,cs),
(236,134,ls),
(236,97,o),
(240,11,o),
(129,11,cs),
(117,11,o),
(116,0,o),
(129,0,cs)
);
}
);
};
layerId = "1E866B1E-53BE-4037-8596-F70CE02E0A5A";
shapes = (
{
closed = 1;
nodes = (
(47,671,l),
(143,664,o),
(141,662,o),
(166,588,cs),
(279,254,l),
(245,62,ls),
(235,4,o),
(209,12,o),
(128,5,c),
(127,0,l),
(366,0,l),
(367,5,l),
(288,12,o),
(260,4,o),
(270,62,cs),
(305,259,l),
(519,564,ls),
(594,670,o),
(598,668,o),
(679,671,c),
(680,676,l),
(456,676,l),
(455,671,l),
(544,664,o),
(593,678,o),
(505,554,cs),
(302,267,l),
(191,592,ls),
(168,662,o),
(189,664,o),
(300,671,c),
(301,676,l),
(48,676,l)
);
}
);
width = 607;
},
{
anchors = (
{
name = top;
position = "{502, 751}";
}
);
layerId = "5534EA4B-8E80-4C74-8911-C7987B86627E";
shapes = (
{
closed = 1;
nodes = (
(37,668,l),
(95,668,o),
(118,644,o),
(129,609,cs),
(237,307,l),
(200,95,ls),
(190,37,o),
(157,8,o),
(77,8,c),
(76,0,l),
(507,0,l),
(508,8,l),
(428,8,o),
(407,37,o),
(417,95,cs),
(461,347,l),
(464,350,l),
(503,401,o),
(712,668,o),
(809,668,c),
(810,676,l),
(516,676,l),
(515,668,l),
(701,668,o),
(500,403,o),
(460,360,cs),
(457,356,l),
(391,579,ls),
(379,622,o),
(386,668,o),
(448,668,c),
(449,676,l),
(38,676,l)
);
}
);
width = 684;
}
);
unicode = 89;
},
{
glyphname = Z;
layers = (
{
anchors = (
{
name = top;
position = "{334, 751}";
}
);
background = {
shapes = (
{
closed = 1;
nodes = (
(21,0,l),
(599,0,l),
(599,272,l),
(589,272,l),
(589,173,o),
(466,9,o),
(308,9,cs),
(30,9,l)
);
}
);
};
layerId = "1E866B1E-53BE-4037-8596-F70CE02E0A5A";
shapes = (
{
closed = 1;
nodes = (
(-10,0,l),
(389,0,l),
(421,149,l),
(416,149,l),
(381,16,o),
(387,8,o),
(229,8,cs),
(0,8,l)
);
},
{
closed = 1;
nodes = (
(-10,0,l),
(19,0,l),
(517,676,l),
(488,676,l)
);
},
{
closed = 1;
nodes = (
(97,536,l),
(102,536,l),
(139,675,o),
(138,668,o),
(328,668,cs),
(485,668,l),
(508,676,l),
(128,676,l)
);
}
);
width = 508;
},
{
anchors = (
{
name = top;
position = "{428, 751}";
}
);
layerId = "5534EA4B-8E80-4C74-8911-C7987B86627E";
shapes = (
{
closed = 1;
nodes = (
(-39,0,l),
(539,0,l),
(618,308,l),
(609,308,l),
(551,161,o),
(419,9,o),
(261,9,cs),
(-28,9,l)
);
},
{
closed = 1;
nodes = (
(-39,0,l),
(208,0,l),
(696,676,l),
(449,676,l)
);
},
{
closed = 1;
nodes = (
(70,404,l),
(80,404,l),
(107,503,o),
(219,668,o),
(377,668,cs),
(656,668,l),
(687,676,l),
(127,676,l)
);
}
);
width = 657;
}
);
unicode = 90;
},
{
glyphname = period;
layers = (
{
layerId = "1E866B1E-53BE-4037-8596-F70CE02E0A5A";
shapes = (
{
closed = 1;
nodes = (
(-18,9,o),
(-8,-2,o),
(8,-2,cs),
(24,-2,o),
(38,9,o),
(40,23,cs),
(43,37,o),
(32,48,o),
(16,48,cs),
(0,48,o),
(-13,37,o),
(-16,23,cs)
);
}
);
width = 136;
},
{
layerId = "5534EA4B-8E80-4C74-8911-C7987B86627E";
shapes = (
{
closed = 1;
nodes = (
(-14,34,o),
(26,-9,o),
(88,-9,cs),
(150,-9,o),
(206,34,o),
(216,89,cs),
(225,144,o),
(185,187,o),
(123,187,cs),
(61,187,o),
(5,144,o),
(-4,89,cs)
);
}
);
width = 300;
}
);
unicode = 46;
},
{
glyphname = R.alt;
layers = (
{
layerId = "1E866B1E-53BE-4037-8596-F70CE02E0A5A";
leftMetricsKey = h;
shapes = (
{
closed = 1;
nodes = (
(-30,0,l),
(209,0,l),
(210,5,l),
(131,12,o),
(103,4,o),
(113,62,cs),
(220,668,l),
(303,668,ls),
(432,668,o),
(480,607,o),
(480,541,cs),
(480,446,o),
(396,337,o),
(286,334,c),
(284,323,l),
(337,315,o),
(344,279,o),
(355,148,cs),
(363,48,o),
(388,-5,o),
(452,-5,cs,{name = hr01;}),
(474,-5,o),
(497,1,o),
(518,9,c),
(516,14,l),
(506,11,o),
(496,9,o),
(483,9,cs),
(419,9,o),
(399,60,o),
(383,169,cs),
(367,274,o),
(334,319,o),
(306,325,cs),
(292,328,o),
(301,328,o),
(313,329,cs),
(407,338,o),
(508,435,o),
(508,534,cs),
(508,627,o),
(419,676,o),
(315,676,cs),
(89,676,l),
(88,671,l),
(167,664,o),
(195,672,o),
(185,614,cs),
(88,62,ls),
(78,4,o),
(52,12,o),
(-29,5,c)
);
}
);
width = 568;
},
{
layerId = "5534EA4B-8E80-4C74-8911-C7987B86627E";
shapes = (
{
closed = 1;
nodes = (
(-58,0,l),
(373,0,l),
(374,8,l),
(294,8,o),
(273,37,o),
(283,95,cs),
(384,668,l),
(402,668,ls),
(477,668,o),
(505,610,o),
(505,542,cs),
(505,459,o),
(454,318,o),
(356,317,c),
(354,307,l),
(403,307,o),
(408,280,o),
(410,150,cs),
(413,42,o),
(467,-11,o),
(571,-11,cs,{name = hr01;}),
(643,-11,o),
(719,30,o),
(750,57,c),
(746,63,l),
(735,55,o),
(727,49,o),
(709,49,cs),
(671,49,o),
(676,117,o),
(657,185,cs),
(627,293,o),
(570,320,o),
(468,320,cs),
(427,320,o),
(430,326,o),
(444,326,c),
(590,339,o),
(731,404,o),
(731,520,cs),
(731,605,o),
(646,676,o),
(467,676,cs),
(61,676,l),
(60,668,l),
(140,668,o),
(162,639,o),
(151,581,cs),
(66,95,ls,{name = hr02;}),
(56,37,o),
(23,8,o),
(-57,8,c)
);
}
);
width = 733;
}
);
},
{
glyphname = exclam;
layers = (
{
layerId = "1E866B1E-53BE-4037-8596-F70CE02E0A5A";
shapes = (
{
closed = 1;
nodes = (
(194,651,o),
(204,609,o),
(112,84,c),
(118,84,l),
(210,609,o),
(236,651,o),
(240,677,cs),
(242,688,o),
(235,697,o),
(223,697,cs),
(211,697,o),
(200,688,o),
(198,677,cs)
);
},
{
closed = 1;
nodes = (
(72,2,o),
(82,-9,o),
(98,-9,cs),
(114,-9,o),
(128,2,o),
(131,16,cs),
(133,30,o),
(123,41,o),
(107,41,cs),
(91,41,o),
(77,30,o),
(75,16,cs)
);
}
);
width = 320;
},
{
layerId = "5534EA4B-8E80-4C74-8911-C7987B86627E";
shapes = (
{
closed = 1;
nodes = (
(94,508,o),
(165,389,o),
(134,217,c),
(142,217,l),
(173,389,o),
(294,499,o),
(318,634,cs),
(328,693,o),
(289,740,o),
(230,740,cs),
(162,740,o),
(112,694,o),
(106,634,cs)
);
},
{
closed = 1;
nodes = (
(-4,34,o),
(36,-9,o),
(98,-9,cs),
(160,-9,o),
(216,34,o),
(226,89,cs),
(235,144,o),
(195,187,o),
(133,187,cs),
(71,187,o),
(15,144,o),
(6,89,cs)
);
}
);
width = 320;
}
);
unicode = 33;
},
{
glyphname = question;
layers = (
{
layerId = "1E866B1E-53BE-4037-8596-F70CE02E0A5A";
shapes = (
{
closed = 1;
nodes = (
(170,9,o),
(180,-2,o),
(196,-2,cs),
(212,-2,o),
(226,9,o),
(228,23,cs),
(231,37,o),
(220,48,o),
(204,48,cs),
(188,48,o),
(175,37,o),
(172,23,cs)
);
},
{
closed = 1;
nodes = (
(227,148,l),
(243,221,o),
(277,254,o),
(323,306,cs),
(402,394,o),
(538,468,o),
(538,602,cs),
(538,690,o),
(468,740,o),
(368,740,cs),
(266,740,o),
(164,679,o),
(146,576,cs),
(141,548,o),
(143,521,o),
(177,521,cs),
(198,521,o),
(213,536,o),
(215,551,cs),
(218,565,o),
(208,580,o),
(189,580,cs),
(178,580,o),
(166,574,o),
(159,565,c),
(158,666,o),
(270,729,o),
(355,729,cs),
(460,729,o),
(508,677,o),
(508,602,cs),
(508,422,o),
(252,321,o),
(222,148,c)
);
}
);
width = 602;
},
{
layerId = "5534EA4B-8E80-4C74-8911-C7987B86627E";
shapes = (
{
closed = 1;
nodes = (
(94,34,o),
(134,-9,o),
(196,-9,cs),
(258,-9,o),
(314,34,o),
(324,89,cs),
(333,144,o),
(293,187,o),
(231,187,cs),
(169,187,o),
(113,144,o),
(104,89,cs)
);
},
{
closed = 1;
nodes = (
(233,217,l),
(245,314,o),
(326,355,o),
(407,388,cs),
(499,425,o),
(609,477,o),
(609,593,cs),
(609,708,o),
(462,740,o),
(361,740,cs),
(234,740,o),
(90,683,o),
(69,561,cs),
(56,486,o),
(99,447,o),
(161,447,cs),
(227,447,o),
(266,491,o),
(274,536,cs),
(284,593,o),
(241,620,o),
(195,620,cs),
(171,620,o),
(146,612,o),
(125,600,c),
(134,654,o),
(207,722,o),
(290,722,cs),
(372,722,o),
(403,676,o),
(403,613,cs),
(403,459,o),
(245,364,o),
(224,217,c)
);
}
);
width = 602;
}
);
unicode = 63;
},
{
glyphname = quotesingle;
layers = (
{
layerId = "1E866B1E-53BE-4037-8596-F70CE02E0A5A";
shapes = (
{
closed = 1;
nodes = (
(167,531,l),
(210,560,o),
(241,611,o),
(248,650,cs),
(254,688,o),
(242,714,o),
(211,714,cs),
(194,714,o),
(180,702,o),
(177,688,cs),
(175,676,o),
(181,664,o),
(199,664,cs),
(211,664,o),
(222,671,o),
(228,682,c),
(237,672,o),
(237,659,o),
(234,640,cs),
(229,612,o),
(212,569,o),
(164,531,c)
);
}
);
width = 282;
},
{
layerId = "5534EA4B-8E80-4C74-8911-C7987B86627E";
shapes = (
{
closed = 1;
nodes = (
(165,452,l),
(252,490,o),
(309,565,o),
(322,640,cs),
(336,721,o),
(291,773,o),
(221,773,cs),
(151,773,o),
(109,727,o),
(101,682,cs),
(93,637,o),
(119,593,o),
(182,593,cs),
(218,593,o),
(259,608,o),
(274,631,c),
(275,623,o),
(273,612,o),
(272,609,cs),
(262,551,o),
(222,490,o),
(158,459,c)
);
}
);
width = 282;
}
);
unicode = 39;
},
{
glyphname = quotedbl;
layers = (
{
layerId = "1E866B1E-53BE-4037-8596-F70CE02E0A5A";
shapes = (
{
closed = 1;
nodes = (
(151,531,l),
(194,560,o),
(225,611,o),
(232,650,cs),
(238,688,o),
(226,714,o),
(195,714,cs),
(178,714,o),
(164,702,o),
(161,688,cs),
(159,676,o),
(165,664,o),
(183,664,cs),
(195,664,o),
(206,671,o),
(212,682,c),
(221,672,o),
(221,659,o),
(218,640,cs),
(213,612,o),
(196,569,o),
(148,531,c)
);
},
{
closed = 1;
nodes = (
(281,531,l),
(324,560,o),
(355,611,o),
(362,650,cs),
(368,688,o),
(356,714,o),
(325,714,cs),
(308,714,o),
(294,702,o),
(291,688,cs),
(289,676,o),
(295,664,o),
(313,664,cs),
(325,664,o),
(336,671,o),
(342,682,c),
(351,672,o),
(351,659,o),
(348,640,cs),
(343,612,o),
(326,569,o),
(278,531,c)
);
}
);
width = 407;
},
{
layerId = "5534EA4B-8E80-4C74-8911-C7987B86627E";
shapes = (
{
closed = 1;
nodes = (
(165,452,l),
(252,490,o),
(309,565,o),
(322,640,cs),
(336,721,o),
(291,773,o),
(221,773,cs),
(151,773,o),
(109,727,o),
(101,682,cs),
(93,637,o),
(119,593,o),
(182,593,cs),
(218,593,o),
(259,608,o),
(274,631,c),
(275,623,o),
(273,612,o),
(272,609,cs,{name = hr01;}),
(262,551,o),
(222,490,o),
(158,459,c)
);
},
{
closed = 1;
nodes = (
(425,452,l),
(512,490,o),
(569,565,o),
(582,640,cs),
(596,721,o),
(551,773,o),
(481,773,cs),
(411,773,o),
(369,727,o),
(361,682,cs),
(353,637,o),
(379,593,o),
(442,593,cs),
(478,593,o),
(519,608,o),
(534,631,c),
(535,623,o),
(533,612,o),
(532,609,cs),
(522,551,o),
(482,490,o),
(418,459,c)
);
}
);
width = 555;
}
);
unicode = 34;
},
{
glyphname = numbersign;
layers = (
{
layerId = "1E866B1E-53BE-4037-8596-F70CE02E0A5A";
shapes = (
{
closed = 1;
nodes = (
(482,489,l),
(471,489,l),
(421,347,l),
(270,347,l),
(320,489,l),
(308,489,l),
(258,347,l),
(88,347,l),
(86,335,l),
(255,335,l),
(199,178,l),
(58,178,l),
(56,167,l),
(194,167,l),
(139,8,l),
(150,8,l),
(206,167,l),
(357,167,l),
(301,8,l),
(313,8,l),
(368,167,l),
(537,167,l),
(539,178,l),
(372,178,l),
(428,335,l),
(567,335,l),
(569,347,l),
(432,347,l)
);
},
{
closed = 1;
nodes = (
(265,335,l),
(417,335,l),
(362,178,l),
(210,178,l)
);
}
);
width = 654;
},
{
layerId = "5534EA4B-8E80-4C74-8911-C7987B86627E";
shapes = (
{
closed = 1;
nodes = (
(482,489,l),
(471,489,l),
(421,346,l),
(270,346,l),
(320,489,l),
(308,489,l),
(258,346,l),
(88,346,l),
(86,335,l),
(255,335,l),
(199,178,l),
(58,178,l),
(56,167,l),
(194,167,l),
(139,8,l),
(150,8,l),
(206,167,l),
(357,167,l),
(301,8,l),
(313,8,l),
(368,167,l),
(537,167,l),
(539,178,l),
(372,178,l),
(428,335,l),
(567,335,l),
(569,346,l),
(432,346,l)
);
},
{
closed = 1;
nodes = (
(265,335,l),
(417,335,l),
(362,178,l),
(210,178,l)
);
}
);
width = 654;
}
);
unicode = 35;
},
{
glyphname = at;
layers = (
{
layerId = "1E866B1E-53BE-4037-8596-F70CE02E0A5A";
shapes = (
{
closed = 1;
nodes = (
(534,466,l),
(526,420,l),
(523,420,l),
(517,458,o),
(482,478,o),
(440,478,cs),
(358,478,o),
(281,400,o),
(263,302,cs),
(250,228,o),
(275,145,o),
(366,145,cs),
(424,145,o),
(470,178,o),
(493,248,c),
(494,248,l),
(484,187,o),
(525,139,o),
(590,139,cs),
(706,139,o),
(786,231,o),
(807,349,cs),
(840,537,o),
(702,701,o),
(499,701,cs),
(287,701,o),
(83,528,o),
(46,316,cs),
(8,104,o),
(151,-69,o),
(363,-69,cs),
(439,-69,o),
(515,-47,o),
(582,-8,c),
(575,-3,l),
(511,-40,o),
(438,-61,o),
(364,-61,cs),
(156,-61,o),
(17,108,o),
(54,316,cs),
(90,524,o),
(289,693,o),
(497,693,cs),
(696,693,o),
(831,535,o),
(799,349,cs),
(776,221,o),
(679,147,o),
(606,147,cs),
(560,147,o),
(506,166,o),
(521,249,cs),
(559,466,l)
);
},
{
closed = 1;
nodes = (
(499,292,ls),
(480,182,o),
(420,161,o),
(379,161,cs),
(297,161,o),
(289,245,o),
(300,308,cs),
(315,393,o),
(371,470,o),
(445,470,cs),
(493,470,o),
(518,437,o),
(520,408,c)
);
}
);
width = 855;
},
{
layerId = "5534EA4B-8E80-4C74-8911-C7987B86627E";
shapes = (
{
closed = 1;
nodes = (
(495,480,l),
(483,443,l),
(479,443,l),
(482,484,o),
(451,490,o),
(423,490,cs),
(320,490,o),
(237,409,o),
(218,298,cs),
(200,200,o),
(242,132,o),
(321,132,cs),
(374,132,o),
(418,162,o),
(443,241,c),
(444,241,l),
(435,175,o),
(488,122,o),
(574,122,cs),
(698,122,o),
(785,229,o),
(807,350,cs),
(840,538,o),
(702,701,o),
(499,701,cs),
(287,701,o),
(83,528,o),
(46,316,cs),
(8,104,o),
(151,-69,o),
(363,-69,cs),
(439,-69,o),
(515,-47,o),
(582,-8,c),
(575,-3,l),
(511,-40,o),
(438,-61,o),
(364,-61,cs),
(156,-61,o),
(17,108,o),
(54,316,cs),
(90,524,o),
(289,693,o),
(497,693,cs),
(696,693,o),
(831,534,o),
(798,348,cs),
(777,228,o),
(696,152,o),
(637,152,cs),
(603,152,o),
(565,178,o),
(584,285,cs),
(619,480,l)
);
},
{
closed = 1;
nodes = (
(449,288,ls),
(433,196,o),
(401,178,o),
(384,178,cs),
(348,178,o),
(360,261,o),
(370,315,cs),
(382,383,o),
(404,475,o),
(450,475,cs),
(472,475,o),
(476,453,o),
(473,425,c)
);
}
);
width = 855;
}
);
unicode = 64;
},
{
color = (153, 255, 154, 255);
glyphname = dollar;
layers = (
{
layerId = "1E866B1E-53BE-4037-8596-F70CE02E0A5A";
shapes = (
{
closed = 1;
nodes = (
(180,-101,l),
(190,-101,l),
(340,746,l),
(330,746,l)
);
},
{
closed = 1;
nodes = (
(96,39,o),
(48,90,o),
(70,168,c),
(77,163,o),
(85,158,o),
(94,158,cs),
(109,158,o),
(126,167,o),
(130,186,cs),
(132,200,o),
(124,216,o),
(103,216,cs),
(73,216,o),
(61,191,o),
(56,167,cs),
(40,76,o),
(110,33,o),
(196,33,cs),
(289,33,o),
(370,94,o),
(386,185,cs),
(401,274,o),
(342,315,o),
(266,384,cs),
(213,432,o),
(160,463,o),
(172,532,cs),
(183,597,o),
(240,636,o),
(311,636,cs),
(388,636,o),
(419,588,o),
(414,522,c),
(413,515,l),
(417,515,l,{name = hr01;}),
(439,639,l),
(434,639,l),
(429,620,o),
(424,613,o),
(416,613,cs),
(388,613,o),
(377,643,o),
(312,643,cs),
(236,643,o),
(163,595,o),
(152,515,cs),
(144,457,o),
(166,423,o),
(247,355,cs),
(318,294,o),
(375,256,o),
(360,171,cs),
(345,85,o),
(257,39,o),
(191,39,cs)
);
}
);
width = 493;
},
{
layerId = "5534EA4B-8E80-4C74-8911-C7987B86627E";
shapes = (
{
closed = 1;
nodes = (
(205,-101,l),
(215,-101,l),
(365,746,l),
(355,746,l)
);
},
{
closed = 1;
nodes = (
(99,31,o),
(42,104,o),
(50,159,c),
(64,148,o),
(84,143,o),
(104,143,cs),
(146,143,o),
(189,166,o),
(198,216,cs),
(206,259,o),
(182,291,o),
(131,291,cs),
(75,291,o),
(30,251,o),
(18,200,cs),
(-1,115,o),
(60,24,o),
(204,24,cs),
(353,24,o),
(507,107,o),
(507,272,cs),
(507,345,o),
(466,395,o),
(358,459,cs),
(284,505,o),
(228,536,o),
(235,580,cs),
(242,621,o),
(299,635,o),
(339,635,cs),
(416,635,o),
(490,582,o),
(470,468,cs),
(468,458,l),
(477,458,l),
(510,646,l),
(503,646,l),
(500,631,o),
(488,619,o),
(470,619,cs),
(443,619,o),
(404,642,o),
(337,642,cs),
(234,642,o),
(103,583,o),
(103,464,cs),
(103,398,o),
(141,356,o),
(231,299,cs),
(308,249,o),
(370,219,o),
(356,141,cs),
(344,73,o),
(292,31,o),
(205,31,cs)
);
}
);
width = 573;
}
);
unicode = 36;
},
{
glyphname = Euro;
layers = (
{
layerId = "1E866B1E-53BE-4037-8596-F70CE02E0A5A";
shapes = (
{
closed = 1;
nodes = (
(552,127,l),
(508,77,o),
(423,47,o),
(354,47,cs),
(195,47,o),
(141,161,o),
(144,281,c),
(462,281,l),
(463,289,l),
(144,289,l),
(146,316,o),
(149,345,o),
(157,371,c),
(477,371,l),
(479,379,l),
(159,379,l),
(193,499,o),
(290,629,o),
(468,629,cs),
(549,629,o),
(632,598,o),
(615,514,cs),
(614,509,o),
(613,507,o),
(615,507,cs),
(616,507,o),
(616,508,o),
(617,512,cs,{name = hr01;}),
(638,632,l),
(634,632,l),
(628,608,o),
(623,600,o),
(615,600,cs),
(601,600,o),
(548,636,o),
(469,636,cs),
(308,636,o),
(175,533,o),
(133,379,c),
(13,379,l),
(11,371,l),
(131,371,l),
(125,344,o),
(119,317,o),
(119,289,c),
(-3,289,l),
(-4,281,l),
(119,281,l),
(118,134,o),
(214,40,o),
(343,40,cs),
(428,40,o),
(505,72,o),
(551,117,c)
);
}
);
width = 668;
},
{
layerId = "5534EA4B-8E80-4C74-8911-C7987B86627E";
shapes = (
{
closed = 1;
nodes = (
(561,174,l),
(522,107,o),
(471,81,o),
(400,81,cs),
(304,81,o),
(254,128,o),
(267,281,c),
(462,281,l),
(464,294,l),
(269,294,l),
(271,314,o),
(277,350,o),
(279,366,c),
(477,366,l),
(479,379,l),
(282,379,l),
(320,570,o),
(386,633,o),
(466,633,cs),
(541,633,o),
(626,576,o),
(597,459,cs),
(595,451,o),
(593,445,o),
(599,445,cs),
(601,445,o),
(605,447,o),
(606,452,cs),
(640,645,l),
(632,646,l),
(629,634,o),
(622,617,o),
(596,617,cs),
(568,617,o),
(534,641,o),
(452,641,cs),
(275,641,o),
(116,540,o),
(73,379,c),
(13,379,l),
(11,366,l),
(70,366,l),
(66,342,o),
(62,318,o),
(62,294,c),
(-2,294,l),
(-4,281,l),
(62,281,l),
(67,151,o),
(153,37,o),
(319,37,cs),
(440,37,o),
(529,92,o),
(569,174,c)
);
}
);
width = 668;
}
);
unicode = 8364;
},
{
glyphname = percent;
layers = (
{
layerId = "1E866B1E-53BE-4037-8596-F70CE02E0A5A";
shapes = (
{
closed = 1;
nodes = (
(237,574,l),
(198,574,o),
(173,541,o),
(168,509,cs),
(161,473,o),
(179,419,o),
(283,419,cs),
(399,419,o),
(517,487,o),
(563,552,cs),
(570,562,o),
(566,568,o),
(558,568,cs),
(554,568,o),
(550,566,o),
(545,561,cs),
(470,476,o),
(387,426,o),
(283,426,cs),
(182,426,o),
(168,476,o),
(174,509,cs),
(179,538,o),
(201,568,o),
(236,568,c)
);
},
{
closed = 1;
nodes = (
(508,320,o),
(525,267,o),
(516,213,cs),
(506,156,o),
(467,98,o),
(410,98,cs),
(350,98,o),
(333,154,o),
(343,210,cs),
(353,265,o),
(389,320,o),
(449,320,cs)
);
},
{
closed = 1;
nodes = (
(302,143,o),
(345,92,o),
(409,92,cs),
(472,92,o),
(533,143,o),
(545,209,cs),
(556,273,o),
(513,326,o),
(450,326,cs),
(386,326,o),
(325,273,o),
(314,209,cs)
);
},
{
closed = 1;
nodes = (
(545,561,l),
(76,88,l),
(85,88,l),
(555,561,l)
);
},
{
closed = 1;
nodes = (
(295,568,o),
(312,515,o),
(302,461,cs),
(292,404,o),
(253,346,o),
(197,346,cs),
(137,346,o),
(120,402,o),
(130,458,cs),
(139,513,o),
(176,568,o),
(236,568,cs)
);
},
{
closed = 1;
nodes = (
(89,391,o),
(132,340,o),
(196,340,cs),
(259,340,o),
(320,391,o),
(332,457,cs),
(343,521,o),
(300,574,o),
(237,574,cs),
(173,574,o),
(112,521,o),
(101,457,cs)
);
}
);
width = 648;
},
{
layerId = "5534EA4B-8E80-4C74-8911-C7987B86627E";
shapes = (
{
closed = 1;
nodes = (
(210,574,l),
(190,574,o),
(160,542,o),
(154,509,cs),
(147,473,o),
(171,435,o),
(281,435,cs),
(382,435,o),
(508,472,o),
(577,559,cs),
(595,582,o),
(585,600,o),
(565,600,cs),
(558,600,o),
(547,596,o),
(537,586,cs),
(434,479,o),
(367,444,o),
(272,444,cs),
(175,444,o),
(155,477,o),
(160,508,c),
(165,539,o),
(192,568,o),
(209,568,c)
);
},
{
closed = 1;
nodes = (
(453,320,o),
(458,267,o),
(449,213,cs),
(439,156,o),
(413,98,o),
(383,98,cs),
(351,98,o),
(346,154,o),
(356,210,cs),
(366,265,o),
(390,320,o),
(422,320,cs)
);
},
{
closed = 1;
nodes = (
(258,143,o),
(309,92,o),
(382,92,cs),
(454,92,o),
(523,143,o),
(535,209,cs),
(546,273,o),
(495,326,o),
(423,326,cs),
(350,326,o),
(281,273,o),
(270,209,cs)
);
},
{
closed = 1;
nodes = (
(537,586,l),
(44,88,l),
(53,88,l),
(547,586,l)
);
},
{
closed = 1;
nodes = (
(240,568,o),
(245,515,o),
(235,461,cs),
(225,404,o),
(200,346,o),
(170,346,cs),
(138,346,o),
(133,402,o),
(143,458,cs),
(152,513,o),
(177,568,o),
(209,568,cs)
);
},
{
closed = 1;
nodes = (
(45,391,o),
(96,340,o),
(169,340,cs),
(241,340,o),
(310,391,o),
(322,457,cs),
(333,521,o),
(282,574,o),
(210,574,cs),
(137,574,o),
(68,521,o),
(57,457,cs)
);
}
);
width = 599;
}
);
unicode = 37;
},
{
glyphname = ampersand;
layers = (
{
layerId = "1E866B1E-53BE-4037-8596-F70CE02E0A5A";
shapes = (
{
closed = 1;
nodes = (
(263,401,l),
(132,342,o),
(17,275,o),
(-5,149,cs),
(-24,42,o),
(50,-18,o),
(143,-18,cs),
(216,-18,o),
(318,26,o),
(394,125,cs),
(467,214,o),
(537,388,o),
(670,388,cs),
(673,388,o),
(680,388,o),
(678,387,c),
(667,384,o),
(658,371,o),
(656,358,cs),
(653,338,o),
(666,328,o),
(681,328,cs),
(698,328,o),
(716,339,o),
(720,362,cs),
(725,393,o),
(699,402,o),
(673,402,cs),
(544,402,o),
(465,227,o),
(396,137,cs),
(394,135,o),
(392,133,o),
(391,131,cs),
(324,46,o),
(243,-2,o),
(162,-2,cs),
(51,-2,o),
(10,87,o),
(24,165,cs),
(46,287,o),
(183,356,o),
(265,396,c)
);
},
{
closed = 1;
nodes = (
(268,398,l),
(352,434,o),
(483,487,o),
(483,599,cs),
(483,655,o),
(427,683,o),
(377,683,cs),
(318,683,o),
(247,638,o),
(231,547,cs),
(215,452,o),
(289,322,o),
(324,243,cs),
(382,112,o),
(433,-9,o),
(547,-9,cs),
(662,-9,o),
(734,105,o),
(742,167,c),
(739,167,l),
(722,91,o),
(658,12,o),
(563,12,cs),
(459,12,o),
(412,133,o),
(350,256,cs),
(314,328,o),
(241,476,o),
(257,565,cs),
(269,633,o),
(312,677,o),
(377,677,cs),
(427,677,o),
(456,653,o),
(456,607,cs),
(456,503,o),
(352,436,o),
(266,403,c)
);
}
);
width = 789;
},
{
layerId = "5534EA4B-8E80-4C74-8911-C7987B86627E";
shapes = (
{
closed = 1;
nodes = (
(270,393,l),
(152,363,o),
(8,277,o),
(8,145,cs),
(8,41,o),
(91,-9,o),
(183,-9,cs),
(282,-9,o),
(444,65,o),
(538,280,cs),
(582,386,o),
(660,437,o),
(738,437,cs),
(741,437,o),
(752,437,o),
(761,435,c),
(725,423,o),
(696,381,o),
(689,339,cs),
(678,276,o),
(721,242,o),
(771,242,cs),
(824,242,o),
(884,279,o),
(898,355,cs),
(910,427,o),
(864,483,o),
(778,483,cs),
(685,483,o),
(600,419,o),
(544,315,cs),
(538,305,o),
(534,297,o),
(530,288,cs),
(479,186,o),
(419,81,o),
(336,81,cs),
(259,81,o),
(172,182,o),
(191,288,cs),
(199,332,o),
(223,366,o),
(272,383,c)
);
},
{
closed = 1;
nodes = (
(471,430,l),
(578,462,o),
(638,515,o),
(638,581,cs),
(638,648,o),
(565,683,o),
(488,683,cs),
(390,683,o),
(262,633,o),
(239,505,cs),
(221,402,o),
(285,306,o),
(330,232,cs),
(435,57,o),
(490,-9,o),
(601,-9,cs),
(733,-9,o),
(827,140,o),
(839,220,c),
(831,220,l),
(817,176,o),
(790,127,o),
(741,127,cs),
(667,127,o),
(590,232,o),
(520,355,cs),
(413,541,o),
(414,581,o),
(419,608,cs),
(426,647,o),
(455,672,o),
(503,672,cs),
(565,672,o),
(581,625,o),
(570,564,cs),
(553,467,o),
(485,443,o),
(467,440,c)
);
}
);
width = 909;
}
);
unicode = 38;
},
{
glyphname = parenleft;
layers = (
{
background = {
shapes = (
{
closed = 1;
nodes = (
(50,-31,o),
(231,-188,o),
(429,-214,c),
(429,-203,l),
(312,-183,o),
(230,-62,o),
(230,259,cs),
(230,580,o),
(312,701,o),
(429,721,c),
(429,732,l),
(231,706,o),
(50,549,o),
(50,259,cs)
);
}
);
};
layerId = "1E866B1E-53BE-4037-8596-F70CE02E0A5A";
shapes = (
{
closed = 1;
nodes = (
(62,125,o),
(164,1,o),
(301,-41,c),
(304,-36,l),
(167,5,o),
(90,115,o),
(129,336,cs),
(168,557,o),
(284,667,o),
(435,708,c),
(434,713,l),
(282,671,o),
(138,557,o),
(100,341,cs)
);
}
);
width = 420;
},
{
layerId = "5534EA4B-8E80-4C74-8911-C7987B86627E";
shapes = (
{
closed = 1;
nodes = (
(13,132,o),
(137,-2,o),
(300,-44,c),
(304,-36,l),
(227,5,o),
(190,115,o),
(229,336,cs),
(268,557,o),
(344,667,o),
(435,708,c),
(434,716,l),
(256,674,o),
(89,564,o),
(51,348,cs)
);
}
);
width = 450;
}
);
unicode = 40;
},
{
glyphname = parenright;
layers = (
{
layerId = "1E866B1E-53BE-4037-8596-F70CE02E0A5A";
shapes = (
{
closed = 1;
nodes = (
(357,552,o),
(254,671,o),
(118,713,c),
(115,708,l),
(252,667,o),
(328,557,o),
(289,336,cs),
(250,115,o),
(135,5,o),
(-16,-36,c),
(-15,-41,l),
(136,1,o),
(281,120,o),
(319,336,cs)
);
}
);
width = 400;
},
{
layerId = "5534EA4B-8E80-4C74-8911-C7987B86627E";
shapes = (
{
closed = 1;
nodes = (
(435,541,o),
(312,674,o),
(148,716,c),
(145,708,l),
(222,667,o),
(258,557,o),
(219,336,cs),
(180,115,o),
(105,5,o),
(14,-36,c),
(14,-44,l),
(193,-2,o),
(359,109,o),
(397,325,cs)
);
}
);
width = 450;
}
);
unicode = 41;
},
{
glyphname = braceleft;
layers = (
{
background = {
shapes = (
{
closed = 1;
nodes = (
(356,552,o),
(209,674,o),
(38,716,c),
(36,708,l),
(120,667,o),
(176,557,o),
(176,336,cs),
(176,115,o),
(120,5,o),
(36,-36,c),
(38,-44,l),
(209,-2,o),
(356,120,o),
(356,336,cs)
);
}
);
};
layerId = "1E866B1E-53BE-4037-8596-F70CE02E0A5A";
shapes = (
{
closed = 1;
nodes = (
(127,326,l),
(156,326,o),
(186,301,o),
(179,262,cs),
(170,212,o),
(109,169,o),
(94,84,cs),
(84,28,o),
(102,-51,o),
(212,-51,cs),
(235,-51,o),
(274,-46,o),
(289,-42,c),
(287,-36,l),
(276,-40,o),
(236,-45,o),
(224,-45,cs),
(130,-45,o),
(99,2,o),
(109,56,cs),
(120,119,o),
(179,182,o),
(190,245,cs),
(200,298,o),
(169,329,o),
(137,331,c),
(138,333,l),
(170,335,o),
(212,366,o),
(221,419,cs),
(232,482,o),
(195,545,o),
(206,608,cs),
(216,662,o),
(263,709,o),
(357,709,cs),
(369,709,o),
(407,704,o),
(416,700,c),
(420,706,l),
(407,710,o),
(370,715,o),
(347,715,cs),
(237,715,o),
(191,636,o),
(181,580,cs),
(166,495,o),
(213,452,o),
(204,402,cs),
(197,363,o),
(159,338,o),
(130,338,c)
);
}
);
width = 417;
},
{
layerId = "5534EA4B-8E80-4C74-8911-C7987B86627E";
shapes = (
{
closed = 1;
nodes = (
(61,326,l),
(92,326,o),
(125,308,o),
(120,279,cs),
(113,239,o),
(34,191,o),
(20,111,cs),
(8,43,o),
(42,-52,o),
(209,-52,cs),
(233,-52,o),
(275,-50,o),
(289,-47,c),
(286,-39,l),
(280,-40,o),
(249,-41,o),
(240,-41,cs),
(189,-41,o),
(169,-9,o),
(176,28,cs),
(187,90,o),
(269,153,o),
(280,215,cs),
(291,276,o),
(230,325,o),
(168,328,c),
(169,336,l),
(233,339,o),
(310,388,o),
(321,449,cs),
(332,511,o),
(272,574,o),
(283,636,cs),
(290,673,o),
(320,705,o),
(371,705,cs),
(380,705,o),
(411,704,o),
(417,703,c),
(422,711,l),
(410,714,o),
(368,716,o),
(344,716,cs),
(177,716,o),
(109,621,o),
(98,553,cs),
(83,473,o),
(146,425,o),
(139,385,cs),
(134,356,o),
(95,338,o),
(64,338,c)
);
}
);
width = 417;
}
);
unicode = 123;
},
{
glyphname = bar;
layers = (
{
layerId = "1E866B1E-53BE-4037-8596-F70CE02E0A5A";
shapes = (
{
closed = 1;
nodes = (
(52,-214,l),
(67,-214,l),
(234,732,l),
(219,732,l)
);
}
);
width = 315;
},
{
layerId = "5534EA4B-8E80-4C74-8911-C7987B86627E";
shapes = (
{
closed = 1;
nodes = (
(52,-214,l),
(67,-214,l),
(234,732,l),
(219,732,l)
);
}
);
width = 315;
}
);
unicode = 124;
},
{
glyphname = braceright;
layers = (
{
layerId = "1E866B1E-53BE-4037-8596-F70CE02E0A5A";
shapes = (
{
closed = 1;
nodes = (
(287,338,l),
(258,338,o),
(228,363,o),
(235,402,cs),
(244,452,o),
(305,495,o),
(320,580,cs),
(330,636,o),
(312,715,o),
(202,715,cs),
(179,715,o),
(140,710,o),
(125,706,c),
(127,700,l),
(138,704,o),
(178,709,o),
(190,709,cs),
(284,709,o),
(315,662,o),
(305,608,cs),
(294,545,o),
(235,482,o),
(224,419,cs),
(215,366,o),
(245,335,o),
(277,333,c),
(276,331,l),
(244,329,o),
(203,298,o),
(193,245,cs),
(182,182,o),
(219,119,o),
(208,56,cs),
(198,2,o),
(151,-45,o),
(57,-45,cs),
(45,-45,o),
(7,-40,o),
(-2,-36,c),
(-6,-42,l),
(7,-46,o),
(44,-51,o),
(67,-51,cs),
(177,-51,o),
(223,28,o),
(233,84,cs),
(248,169,o),
(201,212,o),
(210,262,cs),
(217,301,o),
(255,326,o),
(284,326,c)
);
}
);
width = 417;
},
{
layerId = "5534EA4B-8E80-4C74-8911-C7987B86627E";
shapes = (
{
closed = 1;
nodes = (
(353,338,l),
(322,338,o),
(289,356,o),
(294,385,cs),
(301,425,o),
(380,473,o),
(395,553,cs),
(406,621,o),
(372,716,o),
(205,716,cs),
(181,716,o),
(139,714,o),
(125,711,c),
(128,703,l),
(134,704,o),
(165,705,o),
(174,705,cs),
(225,705,o),
(245,673,o),
(238,636,cs),
(227,574,o),
(145,511,o),
(134,449,cs),
(123,388,o),
(184,339,o),
(246,336,c),
(245,328,l),
(181,325,o),
(104,276,o),
(93,215,cs),
(82,153,o),
(142,90,o),
(131,28,cs),
(124,-9,o),
(94,-41,o),
(43,-41,cs),
(34,-41,o),
(3,-40,o),
(-3,-39,c),
(-8,-47,l),
(4,-50,o),
(46,-52,o),
(70,-52,cs),
(237,-52,o),
(305,43,o),
(317,111,cs),
(331,191,o),
(268,239,o),
(275,279,cs),
(280,308,o),
(319,326,o),
(350,326,c)
);
}
);
width = 417;
}
);
unicode = 125;
},
{
glyphname = bracketleft;
layers = (
{
background = {
shapes = (
{
closed = 1;
nodes = (
(357,191,o),
(286,239,o),
(286,279,cs),
(286,308,o),
(322,326,o),
(353,326,c),
(353,338,l),
(322,338,o),
(286,356,o),
(286,385,cs),
(286,425,o),
(357,473,o),
(357,553,cs),
(357,621,o),
(306,716,o),
(139,716,cs),
(115,716,o),
(73,714,o),
(60,711,c),
(64,703,l),
(70,704,o),
(101,705,o),
(110,705,cs),
(161,705,o),
(186,673,o),
(186,636,cs),
(186,574,o),
(115,511,o),
(115,449,cs),
(115,388,o),
(184,339,o),
(247,336,c),
(247,328,l),
(184,325,o),
(115,276,o),
(115,215,cs),
(115,153,o),
(186,90,o),
(186,28,cs),
(186,-9,o),
(161,-41,o),
(110,-41,cs),
(101,-41,o),
(70,-40,o),
(64,-39,c),
(60,-47,l),
(73,-50,o),
(115,-52,o),
(139,-52,cs),
(306,-52,o),
(357,43,o),
(357,111,cs)
);
}
);
};
layerId = "1E866B1E-53BE-4037-8596-F70CE02E0A5A";
shapes = (
{
closed = 1;
nodes = (
(151,-37,l),
(59,-33,l),
(188,697,l),
(282,701,l),
(282,705,l),
(164,705,l),
(33,-41,l),
(151,-41,l)
);
}
);
width = 318;
},
{
layerId = "5534EA4B-8E80-4C74-8911-C7987B86627E";
shapes = (
{
closed = 1;
nodes = (
(274,-33,l),
(202,-31,l),
(330,695,l),
(403,697,l),
(404,705,l),
(144,705,l),
(13,-41,l),
(273,-41,l)
);
}
);
width = 380;
}
);
unicode = 91;
},
{
glyphname = bracketright;
layers = (
{
layerId = "1E866B1E-53BE-4037-8596-F70CE02E0A5A";
shapes = (
{
closed = 1;
nodes = (
(33,-37,l),
(33,-41,l),
(151,-41,l),
(282,705,l),
(164,705,l),
(164,701,l),
(256,697,l),
(127,-33,l)
);
}
);
width = 318;
},
{
layerId = "5534EA4B-8E80-4C74-8911-C7987B86627E";
shapes = (
{
closed = 1;
nodes = (
(-26,-33,l),
(-27,-41,l),
(233,-41,l),
(364,705,l),
(104,705,l),
(103,697,l),
(176,695,l),
(48,-31,l)
);
}
);
width = 380;
}
);
unicode = 93;
},
{
glyphname = quoteleft;
layers = (
{
layerId = "1E866B1E-53BE-4037-8596-F70CE02E0A5A";
shapes = (
{
closed = 1;
nodes = (
(224,701,l),
(180,672,o),
(149,621,o),
(143,582,cs),
(136,544,o),
(148,518,o),
(179,518,cs),
(196,518,o),
(210,530,o),
(213,544,cs),
(215,556,o),
(209,568,o),
(191,568,cs),
(179,568,o),
(168,561,o),
(162,550,c),
(153,560,o),
(153,573,o),
(156,592,cs),
(161,620,o),
(178,663,o),
(227,701,c)
);
}
);
width = 277;
},
{
layerId = "5534EA4B-8E80-4C74-8911-C7987B86627E";
shapes = (
{
closed = 1;
nodes = (
(234,773,l),
(147,735,o),
(90,660,o),
(77,585,cs),
(63,504,o),
(108,452,o),
(178,452,cs),
(248,452,o),
(290,498,o),
(298,543,cs),
(306,588,o),
(280,632,o),
(217,632,cs),
(181,632,o),
(140,617,o),
(125,594,c),
(124,602,o),
(126,613,o),
(127,616,cs),
(137,674,o),
(177,735,o),
(241,766,c)
);
}
);
width = 296;
}
);
unicode = 8216;
},
{
glyphname = quoteright;
layers = (
{
layerId = "1E866B1E-53BE-4037-8596-F70CE02E0A5A";
shapes = (
{
closed = 1;
nodes = (
(158,452,l),
(201,481,o),
(232,532,o),
(239,571,cs),
(245,609,o),
(233,635,o),
(202,635,cs),
(185,635,o),
(171,623,o),
(168,609,cs),
(166,597,o),
(172,585,o),
(190,585,cs),
(202,585,o),
(213,592,o),
(219,603,c),
(229,593,o),
(228,580,o),
(225,561,cs),
(220,533,o),
(203,490,o),
(155,452,c)
);
}
);
width = 296;
},
{
layerId = "5534EA4B-8E80-4C74-8911-C7987B86627E";
shapes = (
{
closed = 1;
nodes = (
(158,452,l),
(245,490,o),
(302,565,o),
(315,640,cs),
(329,721,o),
(284,773,o),
(214,773,cs),
(144,773,o),
(102,727,o),
(94,682,cs),
(86,637,o),
(112,593,o),
(175,593,cs),
(211,593,o),
(252,608,o),
(267,631,c),
(268,623,o),
(266,612,o),
(265,609,cs,{name = hr01;}),
(255,551,o),
(215,490,o),
(151,459,c)
);
}
);
width = 296;
}
);
unicode = 8217;
},
{
glyphname = quotedblleft;
layers = (
{
layerId = "1E866B1E-53BE-4037-8596-F70CE02E0A5A";
shapes = (
{
closed = 1;
nodes = (
(354,701,l),
(310,672,o),
(279,621,o),
(273,582,cs),
(266,544,o),
(278,518,o),
(309,518,cs),
(326,518,o),
(340,530,o),
(343,544,cs),
(345,556,o),
(339,568,o),
(321,568,cs),
(309,568,o),
(298,561,o),
(292,550,c),
(283,560,o),
(283,573,o),
(286,592,cs),
(291,620,o),
(308,663,o),
(357,701,c)
);
},
{
closed = 1;
nodes = (
(224,701,l),
(180,672,o),
(149,621,o),
(143,582,cs),
(136,544,o),
(148,518,o),
(179,518,cs),
(196,518,o),
(210,530,o),
(213,544,cs),
(215,556,o),
(209,568,o),
(191,568,cs),
(179,568,o),
(168,561,o),
(162,550,c),
(153,560,o),
(153,573,o),
(156,592,cs),
(161,620,o),
(178,663,o),
(227,701,c)
);
}
);
width = 407;
},
{
layerId = "5534EA4B-8E80-4C74-8911-C7987B86627E";
shapes = (
{
closed = 1;
nodes = (
(533,773,l),
(446,735,o),
(389,660,o),
(376,585,cs),
(362,504,o),
(407,452,o),
(477,452,cs),
(547,452,o),
(589,498,o),
(597,543,cs),
(605,588,o),
(579,632,o),
(516,632,cs),
(480,632,o),
(439,617,o),
(424,594,c),
(423,602,o),
(425,613,o),
(426,616,cs),
(436,674,o),
(476,735,o),
(540,766,c)
);
},
{
closed = 1;
nodes = (
(273,773,l),
(186,735,o),
(129,660,o),
(116,585,cs),
(102,504,o),
(147,452,o),
(217,452,cs),
(287,452,o),
(329,498,o),
(337,543,cs),
(345,588,o),
(319,632,o),
(256,632,cs),
(220,632,o),
(179,617,o),
(164,594,c),
(163,602,o),
(165,613,o),
(166,616,cs),
(176,674,o),
(216,735,o),
(280,766,c)
);
}
);
width = 634;
}
);
unicode = 8220;
},
{
glyphname = quotedblright;
layers = (
{
layerId = "1E866B1E-53BE-4037-8596-F70CE02E0A5A";
shapes = (
{
closed = 1;
nodes = (
(151,531,l),
(194,560,o),
(225,611,o),
(232,650,cs),
(238,688,o),
(226,714,o),
(195,714,cs),
(178,714,o),
(164,702,o),
(161,688,cs),
(159,676,o),
(165,664,o),
(183,664,cs),
(195,664,o),
(206,671,o),
(212,682,c),
(221,672,o),
(221,659,o),
(218,640,cs),
(213,612,o),
(196,569,o),
(148,531,c)
);
},
{
closed = 1;
nodes = (
(281,531,l),
(324,560,o),
(355,611,o),
(362,650,cs),
(368,688,o),
(356,714,o),
(325,714,cs),
(308,714,o),
(294,702,o),
(291,688,cs),
(289,676,o),
(295,664,o),
(313,664,cs),
(325,664,o),
(336,671,o),
(342,682,c),
(351,672,o),
(351,659,o),
(348,640,cs),
(343,612,o),
(326,569,o),
(278,531,c)
);
}
);
width = 407;
},
{
layerId = "5534EA4B-8E80-4C74-8911-C7987B86627E";
shapes = (
{
closed = 1;
nodes = (
(197,452,l),
(284,490,o),
(341,565,o),
(354,640,cs),
(368,721,o),
(323,773,o),
(253,773,cs),
(183,773,o),
(141,727,o),
(133,682,cs),
(125,637,o),
(151,593,o),
(214,593,cs),
(250,593,o),
(291,608,o),
(306,631,c),
(307,623,o),
(305,612,o),
(304,609,cs,{name = hr01;}),
(294,551,o),
(254,490,o),
(190,459,c)
);
},
{
closed = 1;
nodes = (
(457,452,l),
(544,490,o),
(601,565,o),
(614,640,cs),
(628,721,o),
(583,773,o),
(513,773,cs),
(443,773,o),
(401,727,o),
(393,682,cs),
(385,637,o),
(411,593,o),
(474,593,cs),
(510,593,o),
(551,608,o),
(566,631,c),
(567,623,o),
(565,612,o),
(564,609,cs),
(554,551,o),
(514,490,o),
(450,459,c)
);
}
);
width = 634;
}
);
unicode = 8221;
},
{
glyphname = quotesinglbase;
layers = (
{
layerId = "1E866B1E-53BE-4037-8596-F70CE02E0A5A";
shapes = (
{
closed = 1;
nodes = (
(53,-143,l),
(96,-114,o),
(127,-63,o),
(134,-24,cs),
(140,14,o),
(128,40,o),
(97,40,cs),
(80,40,o),
(66,28,o),
(63,14,cs),
(61,2,o),
(67,-10,o),
(85,-10,cs),
(97,-10,o),
(108,-3,o),
(114,8,c),
(124,-2,o),
(123,-15,o),
(120,-34,cs),
(115,-62,o),
(98,-105,o),
(50,-143,c)
);
}
);
width = 296;
},
{
layerId = "5534EA4B-8E80-4C74-8911-C7987B86627E";
shapes = (
{
closed = 1;
nodes = (
(53,-143,l),
(140,-105,o),
(197,-30,o),
(210,45,cs),
(224,126,o),
(179,178,o),
(109,178,cs),
(39,178,o),
(-3,132,o),
(-11,87,cs),
(-19,42,o),
(7,-2,o),
(70,-2,cs),
(106,-2,o),
(147,13,o),
(162,36,c),
(163,28,o),
(161,17,o),
(160,14,cs,{name = hr01;}),
(150,-44,o),
(110,-105,o),
(46,-136,c)
);
}
);
width = 296;
}
);
unicode = 8218;
},
{
glyphname = quotedblbase;
layers = (
{
layerId = "1E866B1E-53BE-4037-8596-F70CE02E0A5A";
shapes = (
{
closed = 1;
nodes = (
(33,-135,l),
(76,-106,o),
(107,-55,o),
(114,-16,cs),
(121,22,o),
(108,48,o),
(77,48,cs),
(60,48,o),
(46,36,o),
(44,22,cs),
(42,10,o),
(48,-2,o),
(66,-2,cs),
(78,-2,o),
(89,5,o),
(95,16,c),
(104,6,o),
(104,-7,o),
(100,-26,cs),
(95,-54,o),
(79,-97,o),
(30,-135,c)
);
},
{
closed = 1;
nodes = (
(163,-135,l),
(206,-106,o),
(237,-55,o),
(244,-16,cs),
(251,22,o),
(238,48,o),
(207,48,cs),
(190,48,o),
(176,36,o),
(174,22,cs),
(172,10,o),
(178,-2,o),
(196,-2,cs),
(208,-2,o),
(219,5,o),
(225,16,c),
(234,6,o),
(234,-7,o),
(230,-26,cs),
(225,-54,o),
(209,-97,o),
(160,-135,c)
);
}
);
width = 407;
},
{
layerId = "5534EA4B-8E80-4C74-8911-C7987B86627E";
shapes = (
{
closed = 1;
nodes = (
(92,-143,l),
(179,-105,o),
(236,-30,o),
(249,45,cs),
(263,126,o),
(218,178,o),
(148,178,cs),
(78,178,o),
(36,132,o),
(28,87,cs),
(20,42,o),
(46,-2,o),
(109,-2,cs),
(145,-2,o),
(186,13,o),
(201,36,c),
(202,28,o),
(200,17,o),
(199,14,cs),
(189,-44,o),
(149,-105,o),
(85,-136,c)
);
},
{
closed = 1;
nodes = (
(352,-143,l),
(439,-105,o),
(496,-30,o),
(509,45,cs),
(523,126,o),
(478,178,o),
(408,178,cs),
(338,178,o),
(296,132,o),
(288,87,cs),
(280,42,o),
(306,-2,o),
(369,-2,cs),
(405,-2,o),
(446,13,o),
(461,36,c),
(462,28,o),
(460,17,o),
(459,14,cs),
(449,-44,o),
(409,-105,o),
(345,-136,c)
);
}
);
width = 634;
}
);
unicode = 8222;
},
{
glyphname = bullet;
layers = (
{
layerId = "1E866B1E-53BE-4037-8596-F70CE02E0A5A";
shapes = (
{
closed = 1;
nodes = (
(168,384,l),
(172,352,l),
(206,343,l),
(169,334,l),
(153,302,l),
(150,334,l),
(114,343,l),
(153,352,l)
);
},
{
closed = 1;
nodes = (
(94,312,o),
(116,288,o),
(151,288,cs),
(186,288,o),
(216,312,o),
(221,343,cs),
(227,374,o),
(205,398,o),
(170,398,cs),
(135,398,o),
(105,374,o),
(99,343,cs)
);
}
);
width = 320;
},
{
layerId = "5534EA4B-8E80-4C74-8911-C7987B86627E";
shapes = (
{
closed = 1;
nodes = (
(172,409,l),
(173,353,l),
(234,343,l),
(170,333,l),
(149,276,l),
(149,333,l),
(86,343,l),
(152,353,l)
);
},
{
closed = 1;
nodes = (
(30,283,o),
(74,236,o),
(142,236,cs),
(210,236,o),
(270,283,o),
(280,343,cs),
(291,403,o),
(247,450,o),
(179,450,cs),
(111,450,o),
(51,403,o),
(40,343,cs)
);
}
);
width = 320;
}
);
unicode = 8226;
},
{
glyphname = underscore;
layers = (
{
layerId = "1E866B1E-53BE-4037-8596-F70CE02E0A5A";
shapes = (
{
closed = 1;
nodes = (
(461,-30,l,{name = hr01;}),
(463,-17,l,{name = hr02;}),
(10,-17,l),
(8,-30,l,{name = hr03;})
);
}
);
width = 599;
},
{
layerId = "5534EA4B-8E80-4C74-8911-C7987B86627E";
shapes = (
{
closed = 1;
nodes = (
(492,-30,l,{name = hr01;}),
(494,-17,l,{name = hr02;}),
(10,-17,l),
(8,-30,l,{name = hr03;})
);
}
);
width = 630;
}
);
unicode = 95;
},
{
glyphname = endash;
layers = (
{
layerId = "1E866B1E-53BE-4037-8596-F70CE02E0A5A";
shapes = (
{
closed = 1;
nodes = (
(374,323,l,{name = hr01;}),
(376,336,l,{name = hr02;}),
(54,336,l),
(52,323,l,{name = hr03;})
);
}
);
width = 432;
},
{
layerId = "5534EA4B-8E80-4C74-8911-C7987B86627E";
shapes = (
{
closed = 1;
nodes = (
(418,323,l,{name = hr01;}),
(420,336,l,{name = hr02;}),
(54,336,l),
(52,323,l,{name = hr03;})
);
}
);
width = 476;
}
);
unicode = 8211;
},
{
glyphname = emdash;
layers = (
{
layerId = "1E866B1E-53BE-4037-8596-F70CE02E0A5A";
shapes = (
{
closed = 1;
nodes = (
(537,323,l,{name = hr01;}),
(539,336,l,{name = hr02;}),
(74,336,l),
(72,323,l,{name = hr03;})
);
}
);
width = 615;
},
{
layerId = "5534EA4B-8E80-4C74-8911-C7987B86627E";
shapes = (
{
closed = 1;
nodes = (
(573,323,l,{name = hr01;}),
(575,336,l,{name = hr02;}),
(74,336,l),
(72,323,l,{name = hr03;})
);
}
);
width = 651;
}
);
unicode = 8212;
},
{
glyphname = macron;
layers = (
{
layerId = "1E866B1E-53BE-4037-8596-F70CE02E0A5A";
shapes = (
{
closed = 1;
nodes = (
(131,772,l),
(499,772,l),
(501,785,l),
(133,785,l)
);
}
);
width = 478;
},
{
layerId = "5534EA4B-8E80-4C74-8911-C7987B86627E";
shapes = (
{
closed = 1;
nodes = (
(131,772,l),
(499,772,l),
(501,785,l),
(133,785,l)
);
}
);
width = 478;
}
);
unicode = 175;
},
{
glyphname = logicalnot;
layers = (
{
layerId = "1E866B1E-53BE-4037-8596-F70CE02E0A5A";
shapes = (
{
closed = 1;
nodes = (
(56,345,l),
(54,332,l,{name = hr03;}),
(408,332,l,{name = hr01;}),
(391,238,l),
(403,238,l),
(422,345,l,{name = hr02;})
);
}
);
width = 476;
},
{
layerId = "5534EA4B-8E80-4C74-8911-C7987B86627E";
shapes = (
{
closed = 1;
nodes = (
(56,345,l),
(54,332,l,{name = hr03;}),
(408,332,l,{name = hr01;}),
(391,238,l),
(403,238,l),
(422,345,l,{name = hr02;})
);
}
);
width = 476;
}
);
unicode = 172;
},
{
glyphname = trademark;
layers = (
{
layerId = "1E866B1E-53BE-4037-8596-F70CE02E0A5A";
shapes = (
{
closed = 1;
nodes = (
(610,341,l),
(628,341,l),
(826,685,ls),
(831,694,o),
(833,699,o),
(839,708,c),
(781,380,ls),
(775,348,o),
(760,353,o),
(716,349,c),
(715,346,l),
(857,346,l),
(858,349,l),
(814,353,o),
(799,348,o),
(805,380,cs),
(859,687,ls),
(865,719,o),
(878,714,o),
(923,718,c),
(923,721,l),
(841,721,l),
(638,366,ls),
(633,359,o),
(633,362,o),
(632,366,cs),
(542,721,l),
(451,721,l),
(451,718,l),
(520,712,o),
(517,713,o),
(524,686,cs)
);
},
{
closed = 1;
nodes = (
(385,346,l),
(530,346,l),
(531,349,l),
(465,352,o),
(457,346,o),
(468,410,cs),
(522,717,l),
(519,718,l),
(464,410,ls),
(453,346,o),
(444,352,o),
(386,349,c)
);
},
{
closed = 1;
nodes = (
(159,346,l),
(304,346,l),
(305,349,l),
(260,353,o),
(244,348,o),
(250,380,cs),
(309,717,l),
(324,717,l),
(432,717,o),
(433,720,o),
(423,644,c),
(426,644,l),
(439,721,l),
(156,721,l),
(143,644,l),
(146,644,l),
(163,720,o),
(162,717,o),
(270,717,c),
(284,717,l),
(225,380,ls),
(219,348,o),
(206,353,o),
(160,349,c)
);
}
);
width = 973;
},
{
layerId = "5534EA4B-8E80-4C74-8911-C7987B86627E";
shapes = (
{
closed = 1;
nodes = (
(672,336,l),
(678,336,l),
(857,658,ls),
(867,676,o),
(874,687,o),
(881,697,c),
(829,401,ls),
(823,368,o),
(804,352,o),
(760,352,c),
(759,345,l),
(1000,345,l),
(1001,352,l),
(956,352,o),
(944,368,o),
(950,401,cs),
(994,653,ls),
(1005,713,o),
(1020,714,o),
(1065,714,c),
(1066,721,l),
(882,721,l),
(763,503,ls),
(760,497,o),
(766,497,o),
(765,502,cs),
(714,721,l),
(495,721,l),
(494,714,l),
(572,714,o),
(580,709,o),
(597,640,cs)
);
},
{
closed = 1;
nodes = (
(429,345,l),
(606,345,l),
(607,352,l),
(530,352,o),
(534,446,o),
(552,549,cs),
(580,709,l),
(572,711,l),
(544,549,ls),
(533,486,o),
(521,352,o),
(430,352,c)
);
},
{
closed = 1;
nodes = (
(126,345,l),
(365,345,l),
(366,352,l),
(321,352,o),
(310,368,o),
(316,401,cs),
(371,716,l),
(377,716,ls),
(431,716,o),
(483,632,o),
(473,573,c),
(480,573,l),
(506,721,l),
(117,721,l),
(91,573,l),
(97,573,l),
(107,632,o),
(190,716,o),
(244,716,cs),
(250,716,l),
(195,401,ls),
(189,368,o),
(172,352,o),
(127,352,c)
);
}
);
width = 1049;
}
);
unicode = 8482;
},
{
glyphname = registered;
layers = (
{
layerId = "1E866B1E-53BE-4037-8596-F70CE02E0A5A";
shapes = (
{
closed = 1;
nodes = (
(22,140,o),
(166,-29,o),
(374,-29,cs),
(582,-29,o),
(777,140,o),
(807,348,cs),
(838,556,o),
(693,726,o),
(485,726,cs),
(277,726,o),
(83,556,o),
(52,348,cs)
);
},
{
closed = 1;
nodes = (
(90,552,o),
(280,718,o),
(484,718,cs),
(688,718,o),
(829,552,o),
(799,348,cs),
(769,144,o),
(579,-21,o),
(375,-21,cs),
(171,-21,o),
(30,144,o),
(60,348,cs)
);
},
{
closed = 1;
nodes = (
(235,138,l),
(395,138,l),
(396,142,l),
(347,147,o),
(329,141,o),
(335,178,cs),
(405,574,l),
(457,574,ls),
(520,574,o),
(571,545,o),
(559,474,cs),
(548,416,o),
(482,361,o),
(425,361,c),
(424,355,l),
(437,355,ls),
(465,355,o),
(473,304,o),
(478,229,cs),
(484,165,o),
(514,130,o),
(554,130,cs,{name = hr01;}),
(568,130,o),
(583,134,o),
(596,139,c),
(595,142,l),
(588,140,o),
(582,139,o),
(574,139,cs),
(533,139,o),
(514,178,o),
(505,247,cs),
(494,314,o),
(464,355,o),
(446,359,c),
(499,363,o),
(575,408,o),
(587,474,cs),
(599,544,o),
(541,580,o),
(470,580,cs),
(313,580,l),
(313,576,l),
(363,572,o),
(381,578,o),
(374,541,cs),
(310,178,ls),
(304,141,o),
(288,147,o),
(236,142,c)
);
}
);
width = 855;
},
{
layerId = "5534EA4B-8E80-4C74-8911-C7987B86627E";
shapes = (
{
closed = 1;
nodes = (
(94,140,o),
(239,-29,o),
(447,-29,cs),
(655,-29,o),
(849,140,o),
(877,348,cs),
(906,556,o),
(760,726,o),
(552,726,cs),
(344,726,o),
(151,556,o),
(122,348,cs)
);
},
{
closed = 1;
nodes = (
(158,552,o),
(347,718,o),
(551,718,cs),
(755,718,o),
(897,552,o),
(869,348,cs),
(840,144,o),
(652,-21,o),
(448,-21,cs),
(244,-21,o),
(101,144,o),
(130,348,cs)
);
},
{
closed = 1;
nodes = (
(219,138,l),
(501,138,l),
(502,143,l),
(449,143,o),
(436,162,o),
(442,200,cs),
(508,574,l),
(520,574,ls),
(575,574,o),
(596,525,o),
(586,473,cs),
(577,418,o),
(546,345,o),
(483,345,c),
(482,339,l),
(493,339,ls),
(543,339,o),
(539,299,o),
(535,236,cs),
(530,164,o),
(579,131,o),
(640,131,cs),
(696,131,o),
(741,158,o),
(762,175,c),
(760,179,l),
(747,168,o),
(736,162,o),
(722,162,cs),
(684,162,o),
(695,211,o),
(691,255,cs),
(685,321,o),
(641,345,o),
(581,353,c),
(649,363,o),
(717,404,o),
(728,467,cs),
(739,528,o),
(689,580,o),
(580,580,cs),
(297,580,l),
(296,575,l),
(348,575,o),
(363,556,o),
(356,518,cs),
(300,200,ls),
(294,162,o),
(272,143,o),
(220,143,c)
);
}
);
width = 981;
}
);
unicode = 174;
},
{
glyphname = copyright;
layers = (
{
layerId = "1E866B1E-53BE-4037-8596-F70CE02E0A5A";
shapes = (
{
closed = 1;
nodes = (
(217,231,o),
(267,129,o),
(397,129,cs),
(457,129,o),
(511,151,o),
(546,186,c),
(545,194,l),
(509,156,o),
(460,136,o),
(405,136,cs),
(324,136,o),
(238,180,o),
(268,352,cs),
(298,522,o),
(398,571,o),
(489,571,cs),
(526,571,o),
(560,563,o),
(577,541,c),
(557,541,o),
(547,526,o),
(545,514,cs),
(543,502,o),
(548,490,o),
(562,490,cs),
(578,490,o),
(591,504,o),
(593,518,cs),
(598,547,o),
(558,578,o),
(489,578,cs),
(369,578,o),
(261,483,o),
(237,348,cs)
);
},
{
closed = 1;
nodes = (
(22,140,o),
(166,-29,o),
(374,-29,cs),
(582,-29,o),
(777,140,o),
(807,348,cs),
(838,556,o),
(693,726,o),
(485,726,cs),
(277,726,o),
(83,556,o),
(52,348,cs)
);
},
{
closed = 1;
nodes = (
(90,552,o),
(280,718,o),
(484,718,cs),
(688,718,o),
(829,552,o),
(799,348,cs),
(769,144,o),
(579,-21,o),
(375,-21,cs),
(171,-21,o),
(30,144,o),
(60,348,cs)
);
}
);
width = 855;
},
{
layerId = "5534EA4B-8E80-4C74-8911-C7987B86627E";
shapes = (
{
closed = 1;
nodes = (
(254,238,o),
(313,131,o),
(463,131,cs),
(552,131,o),
(622,174,o),
(651,236,c),
(648,240,l),
(619,185,o),
(581,162,o),
(524,162,cs),
(450,162,o),
(402,209,o),
(430,371,cs),
(459,533,o),
(510,579,o),
(577,579,cs),
(598,579,o),
(621,570,o),
(626,563,c),
(588,541,o),
(568,513,o),
(564,486,cs),
(558,454,o),
(578,426,o),
(614,426,cs),
(646,426,o),
(683,447,o),
(691,492,cs),
(701,551,o),
(640,586,o),
(556,586,cs),
(408,586,o),
(282,492,o),
(267,356,cs)
);
},
{
closed = 1;
nodes = (
(85,140,o),
(230,-29,o),
(438,-29,cs),
(646,-29,o),
(840,140,o),
(869,348,cs),
(898,556,o),
(752,726,o),
(544,726,cs),
(336,726,o),
(143,556,o),
(114,348,cs)
);
},
{
closed = 1;
nodes = (
(150,552,o),
(340,718,o),
(544,718,cs),
(748,718,o),
(889,552,o),
(861,348,cs),
(832,144,o),
(642,-21,o),
(438,-21,cs),
(234,-21,o),
(93,144,o),
(122,348,cs)
);
}
);
width = 981;
}
);
unicode = 169;
},
{
glyphname = currency;
layers = (
{
layerId = "1E866B1E-53BE-4037-8596-F70CE02E0A5A";
shapes = (
{
closed = 1;
nodes = (
(70,242,o),
(140,157,o),
(246,157,cs),
(352,157,o),
(453,242,o),
(471,348,cs),
(490,454,o),
(419,540,o),
(313,540,cs),
(207,540,o),
(107,454,o),
(88,348,cs)
);
},
{
closed = 1;
nodes = (
(123,443,o),
(215,523,o),
(310,523,cs),
(405,523,o),
(469,443,o),
(452,348,cs),
(436,253,o),
(344,174,o),
(249,174,cs),
(154,174,o),
(90,253,o),
(106,348,cs)
);
},
{
closed = 1;
nodes = (
(439,472,l),
(536,554,l),
(524,567,l),
(428,485,l)
);
},
{
closed = 1;
nodes = (
(124,227,l),
(31,148,l),
(42,134,l),
(136,214,l)
);
},
{
closed = 1;
nodes = (
(382,215,l),
(448,134,l),
(464,148,l),
(397,230,l)
);
},
{
closed = 1;
nodes = (
(186,485,l),
(118,567,l),
(103,554,l),
(169,473,l)
);
}
);
width = 563;
},
{
layerId = "5534EA4B-8E80-4C74-8911-C7987B86627E";
shapes = (
{
closed = 1;
nodes = (
(70,242,o),
(140,157,o),
(246,157,cs),
(352,157,o),
(453,242,o),
(471,348,cs),
(490,454,o),
(419,540,o),
(313,540,cs),
(207,540,o),
(107,454,o),
(88,348,cs)
);
},
{
closed = 1;
nodes = (
(123,443,o),
(215,523,o),
(310,523,cs),
(405,523,o),
(469,443,o),
(452,348,cs),
(436,253,o),
(344,174,o),
(249,174,cs),
(154,174,o),
(90,253,o),
(106,348,cs)
);
},
{
closed = 1;
nodes = (
(439,472,l),
(536,554,l),
(524,567,l),
(428,485,l)
);
},
{
closed = 1;
nodes = (
(124,227,l),
(31,148,l),
(42,134,l),
(136,214,l)
);
},
{
closed = 1;
nodes = (
(382,215,l),
(448,134,l),
(464,148,l),
(397,230,l)
);
},
{
closed = 1;
nodes = (
(186,485,l),
(118,567,l),
(103,554,l),
(169,473,l)
);
}
);
width = 563;
}
);
unicode = 164;
},
{
glyphname = cent;
layers = (
{
layerId = "1E866B1E-53BE-4037-8596-F70CE02E0A5A";
shapes = (
{
closed = 1;
nodes = (
(264,-101,l),
(274,-101,l),
(298,37,l),
(383,38,o),
(458,71,o),
(503,115,c),
(505,126,l),
(464,80,o),
(398,53,o),
(335,46,cs),
(323,45,o),
(311,44,o),
(300,44,c),
(404,632,l),
(409,632,o),
(414,632,o),
(419,632,cs),
(501,632,o),
(581,598,o),
(567,515,c),
(566,511,l),
(566,509,o),
(567,508,o),
(568,508,c),
(570,508,o),
(570,510,o),
(570,511,c),
(592,635,l),
(592,638,o),
(592,640,o),
(590,640,c),
(584,640,o),
(584,603,o),
(568,603,cs),
(554,603,o),
(501,639,o),
(421,639,cs),
(416,639,o),
(410,639,o),
(405,639,c),
(424,746,l),
(414,746,l),
(395,638,l),
(232,626,o),
(99,504,o),
(71,339,cs),
(38,160,o),
(140,43,o),
(283,37,cs),
(285,37,o),
(286,37,o),
(288,37,c)
);
},
{
closed = 1;
nodes = (
(290,44,l),
(117,53,o),
(75,205,o),
(99,341,cs),
(121,464,o),
(213,618,o),
(394,631,c)
);
}
);
width = 646;
},
{
layerId = "5534EA4B-8E80-4C74-8911-C7987B86627E";
shapes = (
{
closed = 1;
nodes = (
(317,-101,l),
(327,-101,l),
(351,37,l),
(466,41,o),
(550,95,o),
(589,174,c),
(581,174,l),
(542,107,o),
(491,81,o),
(420,81,cs),
(398,81,o),
(378,83,o),
(361,89,c),
(456,630,l),
(466,632,o),
(476,633,o),
(486,633,cs),
(561,633,o),
(638,578,o),
(617,459,c),
(616,452,ls),
(615,447,o),
(616,445,o),
(619,445,c),
(621,445,o),
(625,447,o),
(626,452,cs),
(660,645,l),
(660,649,o),
(658,651,o),
(656,651,c),
(646,651,o),
(650,617,o),
(616,617,cs),
(588,617,o),
(554,641,o),
(472,641,cs),
(467,641,o),
(463,641,o),
(458,641,c),
(477,746,l),
(467,746,l),
(448,640,l),
(270,630,o),
(111,506,o),
(80,336,cs),
(53,180,o),
(144,37,o),
(339,37,c),
(340,37,o),
(340,37,o),
(341,37,c)
);
},
{
closed = 1;
nodes = (
(351,93,l),
(290,120,o),
(269,195,o),
(298,358,cs),
(329,531,o),
(381,607,o),
(446,627,c)
);
}
);
width = 699;
}
);
unicode = 162;
},
{
glyphname = sterling;
layers = (
{
layerId = "1E866B1E-53BE-4037-8596-F70CE02E0A5A";
shapes = (
{
closed = 1;
nodes = (
(133,44,l),
(243,44,o),
(296,135,o),
(319,266,cs),
(361,503,ls),
(377,598,o),
(424,636,o),
(476,636,cs),
(502,636,o),
(522,629,o),
(534,609,c),
(514,609,o),
(504,594,o),
(502,582,cs),
(500,570,o),
(505,558,o),
(521,558,cs),
(535,558,o),
(548,572,o),
(550,586,cs),
(555,614,o),
(524,642,o),
(478,642,cs),
(411,642,o),
(340,588,o),
(320,474,cs,{name = hr01;}),
(307,400,o),
(321,339,o),
(299,218,cs),
(286,141,o),
(236,49,o),
(134,49,c)
);
},
{
closed = 1;
nodes = (
(134,49,l),
(111,49,o),
(100,62,o),
(102,75,cs),
(105,89,o),
(119,102,o),
(144,102,cs),
(219,102,o),
(247,13,o),
(366,13,cs),
(470,13,o),
(535,77,o),
(564,150,c),
(561,151,l),
(531,77,o),
(468,46,o),
(397,46,cs),
(303,46,o),
(214,110,o),
(149,110,cs),
(118,110,o),
(99,92,o),
(96,76,cs),
(94,60,o),
(106,44,o),
(133,44,c)
);
},
{
closed = 1;
nodes = (
(160,330,l),
(159,324,l),
(457,324,l),
(458,330,l)
);
}
);
width = 661;
},
{
layerId = "5534EA4B-8E80-4C74-8911-C7987B86627E";
shapes = (
{
closed = 1;
nodes = (
(119,11,l),
(239,11,o),
(295,135,o),
(318,266,cs),
(359,501,ls),
(375,591,o),
(422,632,o),
(468,632,cs),
(480,632,o),
(504,629,o),
(507,614,c),
(472,599,o),
(450,565,o),
(444,531,cs),
(436,486,o),
(454,443,o),
(507,443,cs),
(556,443,o),
(591,480,o),
(599,529,cs),
(610,587,o),
(581,642,o),
(449,642,cs),
(340,642,o),
(180,585,o),
(156,446,cs,{name = hr01;}),
(132,310,o),
(293,305,o),
(295,226,cs),
(296,150,o),
(228,20,o),
(121,20,c)
);
},
{
closed = 1;
nodes = (
(121,20,l),
(92,20,o),
(79,35,o),
(82,49,cs),
(84,64,o),
(102,78,o),
(133,78,cs),
(210,78,o),
(217,-9,o),
(351,-9,cs),
(549,-9,o),
(596,182,o),
(614,281,c),
(606,281,l),
(594,213,o),
(528,178,o),
(446,178,cs),
(355,178,o),
(255,221,o),
(182,221,cs),
(99,221,o),
(50,165,o),
(41,111,cs),
(32,60,o),
(58,11,o),
(119,11,c)
);
},
{
closed = 1;
nodes = (
(97,330,l),
(95,320,l),
(455,320,l),
(457,330,l)
);
}
);
width = 705;
}
);
unicode = 163;
},
{
glyphname = yen;
layers = (
{
layerId = "1E866B1E-53BE-4037-8596-F70CE02E0A5A";
shapes = (
{
closed = 1;
nodes = (
(121,628,l),
(216,621,o),
(214,619,o),
(239,545,cs),
(326,291,l),
(294,105,ls),
(283,47,o),
(258,55,o),
(176,48,c),
(176,43,l),
(415,43,l),
(415,48,l),
(337,55,o),
(308,47,o),
(319,105,cs),
(352,296,l),
(513,521,ls),
(583,620,o),
(592,628,o),
(666,628,cs),
(673,628,l),
(674,633,l),
(450,633,l),
(449,628,l),
(458,627,l),
(541,622,o),
(584,630,o),
(498,511,cs),
(350,304,l),
(265,549,ls),
(242,618,o),
(261,621,o),
(368,628,c),
(374,628,l),
(375,633,l),
(122,633,l)
);
},
{
closed = 1;
nodes = (
(548,281,l),
(549,287,l),
(108,287,l),
(107,281,l)
);
},
{
closed = 1;
nodes = (
(531,189,l),
(532,195,l),
(91,195,l),
(90,189,l)
);
}
);
width = 692;
},
{
layerId = "5534EA4B-8E80-4C74-8911-C7987B86627E";
shapes = (
{
closed = 1;
nodes = (
(151,625,l),
(192,625,o),
(211,601,o),
(222,574,cs),
(328,312,l),
(295,127,ls),
(286,76,o),
(259,51,o),
(189,51,c),
(188,43,l),
(563,43,l),
(564,51,l),
(495,51,o),
(475,76,o),
(484,127,cs),
(521,332,l),
(658,507,ls),
(691,548,o),
(760,625,o),
(822,625,c),
(824,625,l),
(826,633,l),
(593,633,l),
(591,625,l),
(626,625,ls),
(710,625,o),
(644,507,o),
(619,474,cs),
(518,346,l),
(446,561,ls),
(427,617,o),
(452,625,o),
(479,625,cs),
(489,625,l),
(491,633,l),
(153,633,l)
);
},
{
closed = 1;
nodes = (
(648,322,l),
(650,335,l),
(197,335,l),
(195,322,l)
);
},
{
closed = 1;
nodes = (
(633,237,l),
(635,250,l),
(182,250,l),
(180,237,l)
);
}
);
width = 875;
}
);
unicode = 165;
},
{
glyphname = florin;
layers = (
{
layerId = "1E866B1E-53BE-4037-8596-F70CE02E0A5A";
shapes = (
{
closed = 1;
nodes = (
(19,53,o),
(46,24,o),
(91,24,cs),
(204,24,o),
(276,130,o),
(318,266,cs),
(376,455,ls),
(421,600,o),
(474,636,o),
(519,636,cs),
(543,636,o),
(561,627,o),
(570,609,c),
(550,609,o),
(540,594,o),
(538,582,cs),
(536,570,o),
(541,558,o),
(557,558,cs),
(571,558,o),
(584,572,o),
(586,586,cs),
(591,613,o),
(563,642,o),
(518,642,cs),
(464,642,o),
(396,605,o),
(359,501,cs),
(324,399,o),
(319,246,o),
(245,124,cs),
(222,87,o),
(172,30,o),
(92,30,cs,{name = hr01;}),
(68,30,o),
(52,39,o),
(40,57,c),
(60,57,o),
(71,72,o),
(73,84,cs),
(75,96,o),
(69,108,o),
(53,108,cs),
(39,108,o),
(27,94,o),
(24,80,cs)
);
},
{
closed = 1;
nodes = (
(162,330,l),
(161,324,l),
(484,324,l),
(485,330,l)
);
}
);
width = 613;
},
{
layerId = "5534EA4B-8E80-4C74-8911-C7987B86627E";
shapes = (
{
closed = 1;
nodes = (
(44,78,o),
(84,24,o),
(171,24,cs),
(293,24,o),
(370,130,o),
(412,266,cs),
(484,501,ls),
(513,593,o),
(549,632,o),
(594,632,cs),
(618,632,o),
(627,621,o),
(629,614,c),
(594,599,o),
(572,565,o),
(566,531,cs),
(558,486,o),
(576,443,o),
(629,443,cs),
(678,443,o),
(713,480,o),
(721,528,cs),
(732,587,o),
(699,642,o),
(578,642,cs),
(445,642,o),
(294,575,o),
(265,407,cs),
(250,322,o),
(263,192,o),
(249,113,cs),
(240,65,o),
(222,33,o),
(181,33,cs,{name = hr01;}),
(157,33,o),
(148,44,o),
(146,51,c),
(182,66,o),
(204,100,o),
(210,134,cs),
(218,179,o),
(199,222,o),
(146,222,cs),
(97,222,o),
(62,184,o),
(55,139,cs)
);
},
{
closed = 1;
nodes = (
(219,330,l),
(217,320,l),
(577,320,l),
(579,330,l)
);
}
);
width = 778;
}
);
unicode = 402;
},
{
glyphname = comma;
layers = (
{
layerId = "1E866B1E-53BE-4037-8596-F70CE02E0A5A";
shapes = (
{
closed = 1;
nodes = (
(-16,-135,l),
(27,-106,o),
(58,-55,o),
(65,-16,cs),
(72,22,o),
(59,48,o),
(28,48,cs),
(11,48,o),
(-3,36,o),
(-5,22,cs),
(-7,10,o),
(-1,-2,o),
(17,-2,cs),
(29,-2,o),
(40,5,o),
(46,16,c),
(55,6,o),
(55,-7,o),
(51,-26,cs),
(46,-54,o),
(30,-97,o),
(-19,-135,c)
);
}
);
width = 177;
},
{
layerId = "5534EA4B-8E80-4C74-8911-C7987B86627E";
shapes = (
{
closed = 1;
nodes = (
(60,-143,l),
(147,-105,o),
(204,-30,o),
(217,45,cs),
(231,126,o),
(186,178,o),
(116,178,cs),
(46,178,o),
(4,132,o),
(-4,87,cs),
(-12,42,o),
(14,-2,o),
(77,-2,cs),
(113,-2,o),
(154,13,o),
(169,36,c),
(170,28,o),
(168,17,o),
(167,14,cs,{name = hr01;}),
(157,-44,o),
(117,-105,o),
(53,-136,c)
);
}
);
width = 301;
}
);
unicode = 44;
},
{
color = (154, 153, 255, 255);
glyphname = comma.swsh;
layers = (
{
layerId = "1E866B1E-53BE-4037-8596-F70CE02E0A5A";
shapes = (
{
closed = 1;
nodes = (
(1151,764,l),
(1264,852,o),
(1406,906,o),
(1554,906,cs),
(1887,906,o),
(2134,644,o),
(2103,326,cs),
(2072,8,o),
(1775,-254,o),
(1442,-254,cs),
(842,-254,o),
(535,591,o),
(-51,591,cs),
(-276,591,o),
(-549,399,o),
(-574,151,cs),
(-600,-109,o),
(-442,-272,o),
(-184,-272,cs),
(65,-272,o),
(140,-123,o),
(157,-30,cs),
(162,1,o),
(161,48,o),
(121,48,cs),
(104,48,o),
(90,36,o),
(88,22,cs),
(86,10,o),
(92,-2,o),
(110,-2,cs),
(122,-2,o),
(133,5,o),
(139,16,c),
(167,-89,o),
(75,-266,o),
(-183,-266,cs),
(-440,-266,o),
(-594,-102,o),
(-568,151,cs),
(-543,396,o),
(-274,585,o),
(-51,585,cs),
(531,585,o),
(835,-260,o),
(1442,-260,cs),
(1779,-260,o),
(2078,4,o),
(2109,326,cs),
(2140,648,o),
(1892,912,o),
(1555,912,cs),
(1406,912,o),
(1263,858,o),
(1147,768,c)
);
}
);
width = 301;
},
{
layerId = "5534EA4B-8E80-4C74-8911-C7987B86627E";
shapes = (
{
closed = 1;
nodes = (
(1185,764,l),
(1305,852,o),
(1451,906,o),
(1599,906,cs),
(1932,906,o),
(2158,644,o),
(2101,326,cs),
(2045,8,o),
(1727,-254,o),
(1394,-254,cs),
(794,-254,o),
(519,585,o),
(-32,585,cs),
(-292,585,o),
(-547,391,o),
(-590,145,cs),
(-636,-115,o),
(-490,-278,o),
(-232,-278,cs),
(-29,-278,o),
(184,-144,o),
(215,34,cs),
(231,126,o),
(186,178,o),
(114,178,cs),
(46,178,o),
(4,132,o),
(-4,87,cs),
(-12,42,o),
(14,-2,o),
(77,-2,cs),
(112,-2,o),
(152,12,o),
(168,34,c),
(137,-137,o),
(-44,-272,o),
(-238,-272,cs),
(-491,-272,o),
(-629,-108,o),
(-584,145,cs),
(-542,388,o),
(-290,579,o),
(-33,579,cs),
(515,579,o),
(786,-260,o),
(1393,-260,cs),
(1730,-260,o),
(2051,4,o),
(2107,326,cs),
(2164,648,o),
(1937,912,o),
(1600,912,cs),
(1451,912,o),
(1304,858,o),
(1181,768,c)
);
}
);
width = 301;
}
);
},
{
glyphname = zero;
layers = (
{
hints = (
{
horizontal = 1;
place = (-14,21);
target = up;
type = BottomGhost;
},
{
horizontal = 1;
place = (387,167);
type = Stem;
},
{
horizontal = 1;
place = (722,-20);
target = down;
type = TopGhost;
},
{
place = (-34,248);
type = Stem;
},
{
place = (447,243);
type = Stem;
}
);
layerId = "1E866B1E-53BE-4037-8596-F70CE02E0A5A";
shapes = (
{
closed = 1;
nodes = (
(647,586,o),
(526,685,o),
(397,685,cs),
(257,685,o),
(105,586,o),
(64,339,cs),
(22,91,o),
(146,-9,o),
(280,-9,cs),
(418,-9,o),
(564,91,o),
(606,339,cs)
);
},
{
closed = 1;
nodes = (
(546,153,o),
(460,-1,o),
(280,-1,cs),
(109,-1,o),
(62,153,o),
(93,339,cs),
(124,523,o),
(217,677,o),
(393,677,cs),
(569,677,o),
(608,523,o),
(577,339,cs)
);
}
);
width = 664;
},
{
layerId = "5534EA4B-8E80-4C74-8911-C7987B86627E";
shapes = (
{
closed = 1;
nodes = (
(763,586,o),
(596,685,o),
(440,685,cs),
(284,685,o),
(73,586,o),
(30,339,cs),
(-14,91,o),
(161,-9,o),
(317,-9,cs),
(473,-9,o),
(676,91,o),
(720,339,cs)
);
},
{
closed = 1;
nodes = (
(461,156,o),
(407,0,o),
(317,0,cs),
(227,0,o),
(225,156,o),
(257,339,cs),
(289,521,o),
(346,676,o),
(436,676,cs),
(526,676,o),
(525,521,o),
(493,339,cs)
);
}
);
width = 750;
}
);
unicode = 48;
},
{
glyphname = one;
layers = (
{
hints = (
{
horizontal = 1;
place = (0,21);
target = up;
type = BottomGhost;
},
{
place = (47,217);
type = Stem;
}
);
layerId = "1E866B1E-53BE-4037-8596-F70CE02E0A5A";
shapes = (
{
closed = 1;
nodes = (
(106,647,l),
(174,657,o),
(203,659,o),
(196,617,cs),
(98,62,ls),
(88,4,o),
(62,12,o),
(-19,5,c),
(-20,0,l),
(219,0,l),
(220,5,l),
(141,12,o),
(113,4,o),
(123,62,cs),
(231,676,l),
(107,653,l)
);
}
);
width = 299;
},
{
layerId = "5534EA4B-8E80-4C74-8911-C7987B86627E";
shapes = (
{
closed = 1;
nodes = (
(30,626,l),
(112,626,o),
(137,595,o),
(127,539,cs),
(49,95,ls),
(39,37,o),
(5,8,o),
(-79,8,c),
(-80,0,l),
(351,0,l),
(352,8,l),
(268,8,o),
(246,37,o),
(256,95,cs),
(358,676,l),
(32,634,l)
);
}
);
width = 391;
}
);
unicode = 49;
},
{
glyphname = two;
layers = (
{
background = {
shapes = (
{
closed = 1;
nodes = (
(551,79,o),
(557,216,o),
(554,281,c),
(554,213,o),
(500,197,o),
(425,197,cs),
(367,197,o),
(293,209,o),
(225,209,cs),
(134,209,o),
(72,164,o),
(35,108,c),
(107,186,o),
(253,79,o),
(378,79,cs)
);
}
);
};
hints = (
{
horizontal = 1;
place = (-5,217);
type = Stem;
},
{
horizontal = 1;
place = (-9,21);
target = up;
type = BottomGhost;
},
{
horizontal = 1;
place = (87,138);
type = Stem;
},
{
horizontal = 1;
place = (400,164);
type = Stem;
},
{
horizontal = 1;
place = (722,-20);
target = down;
type = TopGhost;
},
{
place = (-25,153);
type = Stem;
},
{
place = (323,225);
type = Stem;
},
{
place = (323,238);
type = Stem;
}
);
layerId = "1E866B1E-53BE-4037-8596-F70CE02E0A5A";
shapes = (
{
closed = 1;
nodes = (
(53,79,o),
(27,65,o),
(18,46,cs),
(15,41,o),
(18,52,o),
(23,64,cs),
(119,318,o),
(450,358,o),
(450,557,cs),
(450,634,o),
(387,685,o),
(301,685,cs),
(215,685,o),
(120,631,o),
(105,534,cs),
(100,505,o),
(109,478,o),
(135,478,cs),
(154,478,o),
(168,493,o),
(170,508,cs),
(172,523,o),
(163,538,o),
(146,538,cs),
(136,538,o),
(125,532,o),
(117,523,c),
(117,618,o),
(214,678,o),
(292,678,cs),
(360,678,o),
(420,634,o),
(420,561,cs),
(420,347,o),
(45,308,o),
(-1,-15,c,{name = hr01;}),
(3,-15,l),
(6,3,ls),
(13,47,o),
(42,71,o),
(72,71,cs),
(133,71,o),
(147,-10,o),
(247,-10,cs),
(357,-10,o),
(397,76,o),
(412,148,c),
(409,149,l),
(388,56,o),
(346,21,o),
(266,21,cs),
(179,21,o),
(155,79,o),
(79,79,cs)
);
}
);
width = 472;
},
{
layerId = "5534EA4B-8E80-4C74-8911-C7987B86627E";
shapes = (
{
closed = 1;
nodes = (
(111,209,o),
(41,164,o),
(-6,108,cs),
(-8,105,o),
(-10,105,o),
(-10,108,c),
(132,390,o),
(581,260,o),
(581,539,cs),
(581,649,o),
(443,685,o),
(336,685,cs),
(221,685,o),
(74,633,o),
(51,505,cs),
(39,435,o),
(82,395,o),
(146,395,cs),
(203,395,o),
(248,439,o),
(256,484,cs),
(266,541,o),
(224,568,o),
(178,568,cs),
(154,568,o),
(129,560,o),
(108,548,c),
(117,602,o),
(188,667,o),
(277,667,cs),
(336,667,o),
(367,635,o),
(367,587,cs),
(367,373,o),
(1,315,o),
(-56,-9,c,{name = hr01;}),
(-47,-9,l),
(-44,8,ls),
(-36,51,o),
(-2,78,o),
(38,78,cs),
(113,78,o),
(155,-9,o),
(284,-9,cs),
(487,-9,o),
(534,182,o),
(552,281,c),
(544,281,l),
(532,213,o),
(475,197,o),
(400,197,cs),
(342,197,o),
(270,209,o),
(202,209,cs)
);
}
);
width = 591;
}
);
unicode = 50;
},
{
glyphname = three;
layers = (
{
background = {
shapes = (
{
closed = 0;
nodes = (
(221,15,l),
(131,15,o),
(73,73,o),
(73,125,c),
(93,114,o),
(116,105,o),
(140,105,cs),
(205,105,o),
(238,148,o),
(238,190,cs),
(238,232,o),
(205,274,o),
(138,274,cs),
(74,274,o),
(23,235,o),
(23,166,cs),
(23,42,o),
(163,-9,o),
(278,-9,c)
);
},
{
closed = 1;
nodes = (
(213,426,o),
(243,465,o),
(243,506,cs),
(243,530,o),
(227,540,o),
(205,540,cs),
(155,540,o),
(154,480,o),
(100,480,cs),
(77,480,o),
(61,506,o),
(61,536,cs),
(61,587,o),
(103,631,o),
(134,651,c),
(90,630,o),
(50,587,o),
(50,523,cs),
(50,475,o),
(84,426,o),
(155,426,cs)
);
}
);
};
hints = (
{
horizontal = 1;
place = (164,167);
type = Stem;
},
{
horizontal = 1;
place = (164,249);
type = Stem;
},
{
horizontal = 1;
place = (398,167);
type = Stem;
},
{
horizontal = 1;
place = (423,142);
type = Stem;
},
{
horizontal = 1;
place = (723,-20);
target = down;
type = TopGhost;
},
{
place = (14,162);
type = Stem;
},
{
place = (51,246);
type = Stem;
},
{
place = (388,209);
type = Stem;
}
);
layerId = "1E866B1E-53BE-4037-8596-F70CE02E0A5A";
shapes = (
{
closed = 1;
nodes = (
(197,350,l),
(319,350,o),
(385,300,o),
(385,215,cs),
(385,78,o),
(279,3,o),
(154,3,cs),
(65,3,o),
(3,58,o),
(30,139,c),
(37,134,o),
(44,129,o),
(53,129,cs),
(68,129,o),
(85,138,o),
(88,157,cs),
(90,171,o),
(82,187,o),
(62,187,cs),
(23,187,o),
(15,142,o),
(15,111,cs),
(15,26,o),
(94,-10,o),
(180,-10,cs),
(298,-10,o),
(411,65,o),
(411,199,cs),
(411,310,o),
(303,354,o),
(208,354,cs),
(197,354,l)
);
},
{
closed = 1;
nodes = (
(197,351,l),
(229,350,l),
(339,378,o),
(458,420,o),
(458,559,cs),
(458,647,o),
(380,685,o),
(302,685,cs),
(217,685,o),
(124,635,o),
(109,545,cs),
(104,517,o),
(112,490,o),
(139,490,cs),
(159,490,o),
(173,505,o),
(176,520,cs),
(178,534,o),
(170,549,o),
(151,549,cs),
(141,549,o),
(129,543,o),
(121,534,c),
(121,623,o),
(217,678,o),
(294,678,cs),
(402,678,o),
(431,623,o),
(431,570,cs),
(431,445,o),
(317,354,o),
(197,354,c)
);
}
);
width = 487;
},
{
layerId = "5534EA4B-8E80-4C74-8911-C7987B86627E";
shapes = (
{
closed = 1;
nodes = (
(212,350,l),
(303,350,o),
(336,287,o),
(317,183,cs),
(305,112,o),
(266,10,o),
(164,10,cs),
(74,10,o),
(26,73,o),
(35,125,c),
(53,114,o),
(75,105,o),
(99,105,cs),
(164,105,o),
(205,153,o),
(212,195,cs),
(220,236,o),
(190,274,o),
(126,274,cs),
(62,274,o),
(4,235,o),
(-8,166,cs),
(-30,42,o),
(101,-9,o),
(216,-9,cs),
(337,-9,o),
(548,35,o),
(548,193,cs),
(548,321,o),
(377,356,o),
(236,356,cs),
(213,356,l)
);
},
{
closed = 1;
nodes = (
(222,351,l),
(243,351,l),
(307,362,o),
(562,384,o),
(588,531,cs),
(608,648,o),
(459,685,o),
(345,685,cs),
(239,685,o),
(102,638,o),
(83,525,cs),
(71,461,o),
(112,426,o),
(170,426,cs),
(229,426,o),
(265,465,o),
(272,505,cs),
(281,556,o),
(242,581,o),
(199,581,cs),
(177,581,o),
(155,573,o),
(135,563,c),
(144,610,o),
(209,669,o),
(291,669,cs),
(376,669,o),
(390,597,o),
(380,539,cs),
(363,445,o),
(304,356,o),
(223,356,c)
);
}
);
width = 607;
}
);
unicode = 51;
},
{
glyphname = four;
layers = (
{
guides = (
{
position = "{0, 158}";
},
{
position = "{0, 165}";
}
);
hints = (
{
horizontal = 1;
place = (0,230);
type = Stem;
},
{
horizontal = 1;
place = (221,23);
type = Stem;
},
{
horizontal = 1;
place = (721,-20);
target = down;
type = TopGhost;
},
{
place = (181,213);
type = Stem;
},
{
horizontal = 1;
place = (0,21);
target = up;
type = BottomGhost;
},
{
place = (174,217);
type = Stem;
}
);
layerId = "1E866B1E-53BE-4037-8596-F70CE02E0A5A";
shapes = (
{
closed = 1;
nodes = (
(456,169,l),
(311,169,l),
(405,689,l),
(399,689,l),
(-20,165,l),
(-22,152,l),
(283,152,l),
(267,62,ls),
(257,4,o),
(231,12,o),
(150,5,c),
(149,0,l),
(388,0,l),
(389,5,l),
(310,12,o),
(282,4,o),
(292,62,cs),
(308,152,l),
(446,152,l)
);
},
{
closed = 1;
nodes = (
(372,642,l),
(364,595,l),
(286,169,l),
(-7,169,l)
);
}
);
width = 496;
},
{
layerId = "5534EA4B-8E80-4C74-8911-C7987B86627E";
shapes = (
{
closed = 1;
nodes = (
(537,183,l),
(425,183,l),
(512,676,l),
(438,676,l),
(-31,165,l),
(-35,140,l),
(211,140,l),
(203,95,ls),
(193,37,o),
(159,8,o),
(75,8,c),
(74,0,l),
(505,0,l),
(506,8,l),
(422,8,o),
(400,37,o),
(410,95,cs),
(418,140,l),
(515,140,l)
);
},
{
closed = 1;
nodes = (
(268,466,l),
(263,439,l),
(218,183,l),
(2,183,l)
);
}
);
width = 605;
}
);
unicode = 52;
},
{
glyphname = five;
layers = (
{
background = {
shapes = (
{
closed = 0;
nodes = (
(144,10,l),
(58,10,o),
(-2,73,o),
(-2,125,c),
(19,114,o),
(40,105,o),
(66,105,cs),
(111,105,o),
(159,132,o),
(159,187,cs),
(159,231,o),
(127,274,o),
(61,274,cs),
(-1,274,o),
(-52,236,o),
(-52,163,cs),
(-52,45,o),
(80,-9,o),
(213,-9,c)
);
}
);
};
hints = (
{
horizontal = 1;
place = (-8,21);
target = up;
type = BottomGhost;
},
{
horizontal = 1;
place = (164,167);
type = Stem;
},
{
horizontal = 1;
place = (426,211);
type = Stem;
},
{
horizontal = 1;
place = (519,118);
type = Stem;
},
{
horizontal = 1;
place = (544,183);
type = Stem;
},
{
place = (-49,163);
type = Stem;
},
{
place = (510,67);
type = Stem;
}
);
layerId = "1E866B1E-53BE-4037-8596-F70CE02E0A5A";
shapes = (
{
closed = 1;
nodes = (
(164,692,l),
(110,367,l),
(116,372,l),
(161,633,ls),
(163,643,o),
(163,646,o),
(166,638,cs),
(170,627,o),
(186,611,o),
(217,611,cs),
(275,611,o),
(300,652,o),
(372,652,cs),
(444,652,o),
(484,610,o),
(473,539,cs),
(466,495,l),
(472,495,l),
(502,672,l),
(496,672,l),
(481,580,ls),
(481,578,o),
(480,571,o),
(480,580,cs),
(483,656,o),
(443,682,o),
(390,682,cs),
(308,682,o),
(282,617,o),
(209,617,cs),
(181,617,o),
(158,640,o),
(168,683,cs),
(170,692,l)
);
},
{
closed = 1;
nodes = (
(351,406,o),
(427,332,o),
(427,231,cs),
(427,95,o),
(321,-3,o),
(189,-3,cs),
(115,-3,o),
(13,47,o),
(39,144,c),
(45,139,o),
(53,134,o),
(62,134,cs),
(76,134,o),
(93,143,o),
(96,162,cs),
(98,176,o),
(91,192,o),
(70,192,cs),
(35,192,o),
(25,156,o),
(25,128,cs),
(25,31,o),
(123,-10,o),
(209,-10,cs),
(347,-10,o),
(459,90,o),
(459,234,cs),
(459,358,o),
(359,414,o),
(248,410,cs),
(195,408,o),
(143,390,o),
(113,374,c),
(110,367,l),
(143,384,o),
(191,401,o),
(231,402,cs)
);
}
);
width = 532;
},
{
layerId = "5534EA4B-8E80-4C74-8911-C7987B86627E";
shapes = (
{
closed = 1;
nodes = (
(160,676,l),
(104,360,l),
(115,368,l),
(147,552,ls),
(149,560,o),
(154,562,o),
(156,555,cs),
(168,504,o),
(193,479,o),
(262,479,cs),
(330,479,o),
(428,504,o),
(470,504,cs),
(523,504,o),
(557,465,o),
(548,416,cs),
(543,385,l),
(551,385,l),
(598,651,l),
(590,651,l),
(565,512,ls),
(564,503,o),
(558,503,o),
(559,512,cs),
(574,596,o),
(535,688,o),
(433,688,cs),
(336,688,o),
(280,597,o),
(222,597,cs),
(171,597,o),
(161,626,o),
(166,665,c),
(168,676,l)
);
},
{
closed = 1;
nodes = (
(291,376,o),
(331,321,o),
(331,241,cs),
(331,140,o),
(276,10,o),
(158,10,cs),
(72,10,o),
(23,73,o),
(32,125,c),
(51,114,o),
(71,105,o),
(97,105,cs),
(142,105,o),
(194,132,o),
(204,187,cs),
(212,231,o),
(187,274,o),
(121,274,cs),
(59,274,o),
(2,236,o),
(-11,163,cs),
(-32,45,o),
(90,-9,o),
(223,-9,cs),
(355,-9,o),
(558,44,o),
(558,211,cs),
(558,340,o),
(407,394,o),
(274,394,cs),
(207,394,o),
(143,382,o),
(111,369,c),
(104,360,l),
(136,369,o),
(161,376,o),
(195,376,cs)
);
}
);
width = 613;
}
);
unicode = 53;
},
{
glyphname = six;
layers = (
{
hints = (
{
horizontal = 1;
place = (-13,21);
target = up;
type = BottomGhost;
},
{
horizontal = 1;
place = (394,36);
type = Stem;
},
{
horizontal = 1;
place = (458,110);
type = Stem;
},
{
horizontal = 1;
place = (717,-20);
target = down;
type = TopGhost;
},
{
place = (304,227);
type = Stem;
},
{
place = (348,237);
type = Stem;
}
);
layerId = "1E866B1E-53BE-4037-8596-F70CE02E0A5A";
shapes = (
{
closed = 1;
nodes = (
(60,240,l),
(83,330,o),
(160,414,o),
(269,414,cs),
(361,414,o),
(412,343,o),
(412,255,cs),
(412,145,o),
(337,-4,o),
(211,-4,cs),
(63,-4,o),
(50,158,o),
(66,266,cs),
(102,504,o),
(309,668,o),
(465,678,c),
(465,683,l),
(238,668,o),
(30,413,o),
(30,198,cs),
(30,92,o),
(74,-10,o),
(202,-10,cs),
(343,-10,o),
(442,116,o),
(442,244,cs),
(442,344,o),
(372,421,o),
(271,421,cs),
(164,421,o),
(85,341,o),
(63,256,c)
);
}
);
width = 495;
},
{
layerId = "5534EA4B-8E80-4C74-8911-C7987B86627E";
shapes = (
{
closed = 1;
nodes = (
(269,355,l),
(290,369,o),
(318,378,o),
(344,378,cs),
(384,378,o),
(406,347,o),
(381,203,cs),
(359,81,o),
(325,2,o),
(277,2,cs),
(224,2,o),
(220,106,o),
(241,226,cs),
(288,492,o),
(455,652,o),
(576,678,c),
(577,685,l),
(320,685,o),
(10,500,o),
(10,216,cs),
(10,74,o),
(98,-9,o),
(261,-9,cs),
(418,-9,o),
(613,65,o),
(613,251,cs),
(613,355,o),
(528,414,o),
(420,414,cs),
(355,414,o),
(303,390,o),
(269,364,c)
);
}
);
width = 654;
}
);
unicode = 54;
},
{
color = (153, 255, 154, 255);
glyphname = seven;
layers = (
{
hints = (
{
horizontal = 1;
place = (-15,21);
target = up;
type = BottomGhost;
},
{
horizontal = 1;
place = (510,120);
type = Stem;
},
{
horizontal = 1;
place = (535,188);
type = Stem;
},
{
place = (-17,249);
type = Stem;
}
);
layerId = "1E866B1E-53BE-4037-8596-F70CE02E0A5A";
shapes = (
{
closed = 1;
nodes = (
(411,601,o),
(432,614,o),
(451,633,cs),
(456,639,o),
(454,634,o),
(446,613,cs),
(355,362,o),
(131,244,o),
(81,17,cs),
(77,0,o),
(82,-10,o),
(95,-10,cs),
(105,-10,o),
(114,-1,o),
(118,15,cs),
(142,117,o),
(192,196,o),
(242,270,cs),
(328,398,o),
(441,510,o),
(470,685,c,{name = hr01;}),
(465,685,l),
(462,668,ls),
(456,636,o),
(427,611,o),
(391,611,cs),
(326,611,o),
(307,681,o),
(228,681,cs),
(147,681,o),
(103,626,o),
(81,567,cs),
(80,564,o),
(78,564,o),
(79,569,cs),
(95,658,l),
(89,658,l),
(60,495,l),
(66,495,l),
(72,530,o),
(89,654,o),
(196,654,cs),
(264,654,o),
(297,601,o),
(362,601,cs)
);
}
);
width = 462;
},
{
layerId = "5534EA4B-8E80-4C74-8911-C7987B86627E";
shapes = (
{
closed = 1;
nodes = (
(458,476,o),
(544,520,o),
(592,578,cs),
(602,591,o),
(608,587,o),
(602,577,cs),
(478,369,o),
(140,348,o),
(81,120,cs),
(61,43,o),
(94,-13,o),
(161,-13,cs),
(216,-13,o),
(257,10,o),
(284,48,cs),
(326,107,o),
(314,180,o),
(375,276,cs),
(461,410,o),
(615,503,o),
(645,676,c),
(636,676,l),
(634,661,ls),
(626,620,o),
(584,591,o),
(544,591,cs),
(461,591,o),
(415,684,o),
(302,684,cs),
(178,684,o),
(108,605,o),
(69,521,cs),
(64,510,o),
(57,504,o),
(60,519,cs),
(83,651,l),
(75,651,l),
(28,387,l),
(36,387,l),
(50,466,o),
(91,494,o),
(168,496,cs),
(227,497,o),
(281,465,o),
(374,471,cs)
);
}
);
width = 596;
}
);
unicode = 55;
},
{
color = (153, 255, 154, 255);
glyphname = eight;
layers = (
{
background = {
shapes = (
{
closed = 1;
nodes = (
(408,485,l),
(459,473,o),
(489,522,o),
(489,571,cs),
(489,641,o),
(424,675,o),
(356,675,cs),
(307,675,o),
(272,657,o),
(272,617,cs),
(272,484,o),
(624,482,o),
(624,246,cs),
(624,108,o),
(502,-9,o),
(294,-9,cs),
(114,-9,o),
(30,79,o),
(30,173,cs),
(30,276,o),
(131,355,o),
(221,323,c),
(247,309,l),
(201,333,o),
(112,267,o),
(112,159,cs),
(112,59,o),
(185,1,o),
(273,1,cs),
(362,1,o),
(401,60,o),
(401,122,cs),
(401,307,o),
(74,312,o),
(74,499,cs),
(74,618,o),
(211,685,o),
(348,685,cs),
(474,685,o),
(551,629,o),
(551,566,cs),
(551,504,o),
(473,455,o),
(425,476,c)
);
}
);
};
guides = (
{
angle = 90;
position = "{261, 0}";
}
);
hints = (
{
horizontal = 1;
place = (-19,21);
target = up;
type = BottomGhost;
},
{
horizontal = 1;
place = (715,-20);
target = down;
type = TopGhost;
},
{
place = (-55,85);
type = Stem;
},
{
place = (-14,44);
type = Stem;
},
{
place = (-14,206);
type = Stem;
},
{
place = (331,232);
type = Stem;
},
{
place = (417,65);
type = Stem;
}
);
layerId = "1E866B1E-53BE-4037-8596-F70CE02E0A5A";
shapes = (
{
closed = 1;
nodes = (
(242,375,l),
(141,328,o),
(15,262,o),
(15,131,cs),
(15,29,o),
(103,-10,o),
(198,-10,cs),
(311,-10,o),
(428,52,o),
(428,181,cs),
(428,257,o),
(360,316,o),
(282,381,cs),
(205,445,o),
(158,481,o),
(158,549,cs),
(158,633,o),
(235,679,o),
(312,679,cs),
(376,679,o),
(425,652,o),
(425,585,cs),
(425,478,o),
(339,420,o),
(252,381,c),
(262,378,l),
(341,415,o),
(448,468,o),
(448,571,cs),
(448,648,o),
(380,684,o),
(312,684,cs),
(228,684,o),
(134,627,o),
(134,534,cs),
(134,465,o),
(195,416,o),
(263,357,cs),
(329,300,o),
(398,251,o),
(398,175,cs),
(398,60,o),
(305,-5,o),
(200,-5,cs),
(110,-5,o),
(41,35,o),
(41,127,cs),
(41,262,o),
(145,321,o),
(250,371,c)
);
}
);
width = 488;
},
{
layerId = "5534EA4B-8E80-4C74-8911-C7987B86627E";
shapes = (
{
closed = 1;
nodes = (
(197,305,l),
(124,306,o),
(28,255,o),
(11,158,cs),
(-9,40,o),
(114,-12,o),
(243,-12,cs),
(428,-12,o),
(556,93,o),
(571,216,cs),
(587,340,o),
(493,402,o),
(399,461,cs),
(334,501,o),
(259,540,o),
(259,600,cs),
(259,660,o),
(335,677,o),
(380,677,cs),
(469,677,o),
(523,622,o),
(510,545,cs),
(501,495,o),
(468,452,o),
(419,437,c),
(423,431,l),
(489,435,o),
(563,478,o),
(574,541,cs),
(585,608,o),
(523,685,o),
(382,685,cs),
(254,685,o),
(83,615,o),
(83,456,cs),
(83,352,o),
(166,304,o),
(263,242,cs),
(334,197,o),
(397,150,o),
(386,85,cs),
(377,36,o),
(332,-2,o),
(252,-2,cs),
(140,-2,o),
(84,73,o),
(100,166,cs),
(112,236,o),
(158,284,o),
(196,298,c)
);
}
);
width = 633;
}
);
unicode = 56;
},
{
glyphname = nine;
layers = (
{
guides = (
{
position = "{0, 685}";
}
);
hints = (
{
horizontal = 1;
place = (-13,21);
target = up;
type = BottomGhost;
},
{
horizontal = 1;
place = (136,110);
type = Stem;
},
{
horizontal = 1;
place = (274,36);
type = Stem;
},
{
horizontal = 1;
place = (717,-20);
target = down;
type = TopGhost;
},
{
place = (-44,237);
type = Stem;
},
{
place = (10,227);
type = Stem;
}
);
layerId = "1E866B1E-53BE-4037-8596-F70CE02E0A5A";
shapes = (
{
closed = 1;
nodes = (
(30,-5,l),
(273,10,o),
(465,265,o),
(465,480,cs),
(465,584,o),
(422,683,o),
(297,683,cs),
(161,683,o),
(52,560,o),
(52,428,cs),
(52,324,o),
(132,257,o),
(216,257,cs),
(319,257,o),
(399,334,o),
(431,414,c),
(434,430,l),
(401,345,o),
(323,264,o),
(219,264,cs),
(142,264,o),
(83,325,o),
(83,417,cs),
(83,531,o),
(159,677,o),
(288,677,cs),
(432,677,o),
(445,518,o),
(429,412,cs),
(393,174,o),
(186,10,o),
(30,0,c)
);
}
);
width = 495;
},
{
layerId = "5534EA4B-8E80-4C74-8911-C7987B86627E";
shapes = (
{
closed = 1;
nodes = (
(70,-9,l),
(305,-9,o),
(587,144,o),
(633,403,cs),
(663,575,o),
(571,685,o),
(384,685,cs),
(229,685,o),
(66,618,o),
(39,467,cs),
(17,340,o),
(106,262,o),
(220,262,cs),
(287,262,o),
(342,286,o),
(378,312,c),
(379,321,l),
(357,307,o),
(329,298,o),
(306,298,cs),
(264,298,o),
(241,328,o),
(266,472,cs),
(288,594,o),
(322,674,o),
(369,674,cs),
(423,674,o),
(427,569,o),
(407,456,cs),
(359,181,o),
(195,26,o),
(72,-2,c)
);
}
);
width = 652;
}
);
unicode = 57;
},
{
glyphname = hyphen;
layers = (
{
layerId = "1E866B1E-53BE-4037-8596-F70CE02E0A5A";
shapes = (
{
closed = 1;
nodes = (
(425,333,l,{name = hr01;}),
(427,346,l,{name = hr02;}),
(61,346,l),
(59,333,l,{name = hr03;})
);
}
);
width = 486;
},
{
layerId = "5534EA4B-8E80-4C74-8911-C7987B86627E";
shapes = (
{
closed = 1;
nodes = (
(425,333,l,{name = hr01;}),
(427,346,l,{name = hr02;}),
(61,346,l),
(59,333,l,{name = hr03;})
);
}
);
width = 486;
}
);
unicode = 45;
},
{
glyphname = plus;
layers = (
{
layerId = "1E866B1E-53BE-4037-8596-F70CE02E0A5A";
shapes = (
{
closed = 1;
nodes = (
(603,351,l),
(605,364,l),
(320,364,l),
(369,643,l),
(356,643,l),
(307,364,l),
(22,364,l),
(20,351,l),
(305,351,l),
(254,60,l),
(267,60,l),
(318,351,l)
);
}
);
width = 622;
},
{
layerId = "5534EA4B-8E80-4C74-8911-C7987B86627E";
shapes = (
{
closed = 1;
nodes = (
(603,351,l),
(605,364,l),
(320,364,l),
(369,643,l),
(356,643,l),
(307,364,l),
(22,364,l),
(20,351,l),
(305,351,l),
(254,60,l),
(267,60,l),
(318,351,l)
);
}
);
width = 622;
}
);
unicode = 43;
},
{
glyphname = asterisk;
layers = (
{
guides = (
{
position = "{0, 574}";
},
{
angle = 90;
position = "{59, 0}";
},
{
position = "{0, 417}";
}
);
layerId = "1E866B1E-53BE-4037-8596-F70CE02E0A5A";
shapes = (
{
closed = 1;
nodes = (
(232,571,l,{name = hr01;}),
(255,585,o),
(291,585,o),
(312,596,cs),
(325,602,o),
(331,612,o),
(326,623,cs),
(322,634,o),
(310,637,o),
(297,630,cs),
(278,620,o),
(253,588,o),
(230,577,c),
(223,573,l),
(224,576,l),
(227,601,o),
(250,638,o),
(254,659,cs,{name = hr02;}),
(257,673,o),
(251,682,o),
(238,682,cs),
(226,682,o),
(218,673,o),
(215,659,cs,{name = hr03;}),
(211,638,o),
(222,601,o),
(218,576,c,{name = hr04;}),
(217,573,l),
(213,576,l),
(193,587,o),
(179,619,o),
(162,630,cs),
(151,637,o),
(139,634,o),
(131,624,cs),
(123,613,o),
(125,602,o),
(135,595,cs),
(151,583,o),
(189,584,o),
(207,571,c),
(212,568,l),
(207,565,ls),
(182,552,o),
(146,551,o),
(125,540,cs),
(113,534,o),
(107,523,o),
(111,513,cs),
(117,503,o),
(126,500,o),
(139,507,cs),
(159,518,o),
(186,548,o),
(209,559,c),
(215,562,l),
(215,560,l),
(210,535,o),
(187,498,o),
(183,477,cs,{name = hr05;}),
(181,463,o),
(186,454,o),
(199,454,cs),
(211,454,o),
(220,463,o),
(222,477,cs,{name = hr06;}),
(226,498,o),
(215,535,o),
(221,560,c,{name = hr07;}),
(221,562,l),
(226,560,ls),
(246,551,o),
(261,519,o),
(276,507,cs),
(286,499,o),
(299,503,o),
(305,513,cs),
(313,523,o),
(312,533,o),
(301,540,cs),
(285,550,o),
(248,552,o),
(231,565,c),
(225,568,l)
);
}
);
width = 357;
},
{
guides = (
{
angle = 90;
position = "{50, 0}";
}
);
layerId = "5534EA4B-8E80-4C74-8911-C7987B86627E";
shapes = (
{
closed = 1;
nodes = (
(275,499,ls,{name = hr01;}),
(320,523,o),
(382,506,o),
(415,524,c),
(449,541,o),
(464,570,o),
(452,596,cs),
(442,622,o),
(414,629,o),
(381,611,cs),
(348,594,o),
(317,529,o),
(273,506,c),
(264,501,l),
(265,504,ls),
(273,551,o),
(330,605,o),
(336,640,cs,{name = hr02;}),
(342,675,o),
(326,697,o),
(295,697,cs),
(265,697,o),
(241,675,o),
(235,640,cs,{name = hr03;}),
(229,605,o),
(266,551,o),
(258,504,cs,{name = hr04;}),
(257,501,l),
(252,505,l),
(215,528,o),
(208,593,o),
(180,611,cs),
(153,628,o),
(122,622,o),
(103,596,cs),
(84,570,o),
(86,541,o),
(114,524,cs),
(141,507,o),
(210,522,o),
(246,499,cs),
(252,495,l),
(246,491,l),
(200,467,o),
(137,484,o),
(104,466,c),
(70,449,o),
(56,420,o),
(67,394,cs),
(78,368,o),
(106,361,o),
(139,379,cs),
(172,396,o),
(203,461,o),
(247,484,cs),
(255,488,l),
(255,486,l),
(246,439,o),
(190,385,o),
(184,350,cs,{name = hr05;}),
(178,315,o),
(194,293,o),
(225,293,cs),
(255,293,o),
(279,315,o),
(285,350,cs,{name = hr06;}),
(291,385,o),
(253,439,o),
(262,486,c,{name = hr07;}),
(262,488,l),
(268,485,l),
(304,462,o),
(312,396,o),
(340,379,c),
(367,361,o),
(398,368,o),
(416,394,cs),
(436,420,o),
(433,449,o),
(405,466,cs),
(378,483,o),
(310,468,o),
(274,491,cs),
(267,495,l)
);
}
);
width = 465;
}
);
unicode = 42;
},
{
glyphname = asciicircum;
layers = (
{
layerId = "1E866B1E-53BE-4037-8596-F70CE02E0A5A";
shapes = (
{
closed = 1;
nodes = (
(52,354,l),
(63,349,l),
(425,714,l),
(660,349,l),
(671,354,l),
(432,727,l),
(423,727,l)
);
}
);
width = 719;
},
{
layerId = "5534EA4B-8E80-4C74-8911-C7987B86627E";
shapes = (
{
closed = 1;
nodes = (
(52,354,l),
(63,349,l),
(425,714,l),
(660,349,l),
(671,354,l),
(432,727,l),
(423,727,l)
);
}
);
width = 719;
}
);
unicode = 94;
},
{
glyphname = tilde;
layers = (
{
anchors = (
{
name = _top;
position = "{282, 750}";
}
);
layerId = "1E866B1E-53BE-4037-8596-F70CE02E0A5A";
shapes = (
{
closed = 1;
nodes = (
(496,896,l,{name = hr01;}),
(486,837,o),
(438,810,o),
(400,810,cs),
(335,810,o),
(284,891,o),
(213,891,cs,{name = hr02;}),
(148,891,o),
(109,824,o),
(118,781,c),
(123,781,l),
(120,839,o),
(168,862,o),
(201,862,cs),
(263,862,o),
(315,783,o),
(387,783,cs,{name = hr03;}),
(448,783,o),
(494,841,o),
(502,896,c,{name = hr04;})
);
}
);
width = 433;
},
{
anchors = (
{
name = _top;
position = "{264, 750}";
}
);
layerId = "5534EA4B-8E80-4C74-8911-C7987B86627E";
shapes = (
{
closed = 1;
nodes = (
(490,919,l,{name = hr01;}),
(484,886,o),
(446,872,o),
(413,872,cs),
(356,872,o),
(301,914,o),
(242,914,cs,{name = hr02;}),
(152,914,o),
(103,815,o),
(109,751,c),
(116,751,l),
(120,779,o),
(152,796,o),
(187,796,cs),
(239,796,o),
(281,758,o),
(336,758,cs,{name = hr03;}),
(421,758,o),
(482,849,o),
(496,919,c,{name = hr04;})
);
}
);
width = 433;
}
);
unicode = 732;
},
{
glyphname = slash;
layers = (
{
layerId = "1E866B1E-53BE-4037-8596-F70CE02E0A5A";
shapes = (
{
closed = 1;
nodes = (
(-7,0,l),
(1,0,l),
(392,721,l,{name = hr01;}),
(384,721,l)
);
}
);
width = 377;
},
{
layerId = "5534EA4B-8E80-4C74-8911-C7987B86627E";
shapes = (
{
closed = 1;
nodes = (
(-10,0,l),
(3,0,l),
(394,721,l),
(381,721,l)
);
}
);
width = 377;
}
);
unicode = 47;
},
{
glyphname = backslash;
layers = (
{
layerId = "1E866B1E-53BE-4037-8596-F70CE02E0A5A";
shapes = (
{
closed = 1;
nodes = (
(130,721,l),
(120,721,l),
(257,0,l),
(267,0,l)
);
}
);
width = 377;
},
{
layerId = "5534EA4B-8E80-4C74-8911-C7987B86627E";
shapes = (
{
closed = 1;
nodes = (
(130,721,l),
(117,721,l),
(254,0,l),
(267,0,l)
);
}
);
width = 377;
}
);
unicode = 92;
},
{
glyphname = colon;
layers = (
{
guides = (
{
position = "{0, 381}";
}
);
layerId = "1E866B1E-53BE-4037-8596-F70CE02E0A5A";
shapes = (
{
closed = 1;
nodes = (
(53,186,o),
(63,175,o),
(79,175,cs),
(95,175,o),
(109,186,o),
(111,200,cs),
(114,214,o),
(104,225,o),
(88,225,cs),
(72,225,o),
(58,214,o),
(55,200,cs)
);
},
{
closed = 1;
nodes = (
(99,447,o),
(109,436,o),
(125,436,cs),
(141,436,o),
(155,447,o),
(157,461,cs),
(160,475,o),
(150,486,o),
(134,486,cs),
(118,486,o),
(104,475,o),
(101,461,cs)
);
}
);
width = 216;
},
{
layerId = "5534EA4B-8E80-4C74-8911-C7987B86627E";
shapes = (
{
closed = 1;
nodes = (
(3,133,o),
(44,90,o),
(106,90,cs),
(168,90,o),
(223,133,o),
(233,188,cs),
(243,243,o),
(202,286,o),
(140,286,cs),
(78,286,o),
(23,243,o),
(13,188,cs)
);
},
{
closed = 1;
nodes = (
(59,446,o),
(99,403,o),
(161,403,cs),
(223,403,o),
(279,446,o),
(288,501,cs),
(298,556,o),
(258,599,o),
(196,599,cs),
(134,599,o),
(78,556,o),
(68,501,cs)
);
}
);
width = 300;
}
);
unicode = 58;
},
{
glyphname = semicolon;
layers = (
{
layerId = "1E866B1E-53BE-4037-8596-F70CE02E0A5A";
shapes = (
{
closed = 1;
nodes = (
(-8,-135,l),
(35,-106,o),
(66,-55,o),
(73,-16,cs),
(80,22,o),
(67,48,o),
(36,48,cs),
(19,48,o),
(5,36,o),
(3,22,cs),
(1,10,o),
(7,-2,o),
(25,-2,cs),
(37,-2,o),
(48,5,o),
(54,16,c),
(63,6,o),
(63,-7,o),
(59,-26,cs),
(54,-54,o),
(38,-97,o),
(-11,-135,c)
);
},
{
closed = 1;
nodes = (
(49,271,o),
(59,260,o),
(75,260,cs),
(91,260,o),
(105,271,o),
(107,285,cs),
(110,299,o),
(100,310,o),
(84,310,cs),
(68,310,o),
(54,299,o),
(51,285,cs)
);
}
);
width = 177;
},
{
layerId = "5534EA4B-8E80-4C74-8911-C7987B86627E";
shapes = (
{
closed = 1;
nodes = (
(60,-143,l),
(147,-105,o),
(204,-30,o),
(217,45,cs),
(231,126,o),
(186,178,o),
(116,178,cs),
(46,178,o),
(4,132,o),
(-4,87,cs),
(-12,42,o),
(14,-2,o),
(77,-2,cs),
(113,-2,o),
(154,13,o),
(169,36,c),
(170,28,o),
(168,17,o),
(167,14,cs,{name = hr01;}),
(157,-44,o),
(117,-105,o),
(53,-136,c)
);
},
{
closed = 1;
nodes = (
(41,347,o),
(82,304,o),
(144,304,cs),
(206,304,o),
(261,347,o),
(271,402,cs),
(281,457,o),
(240,500,o),
(178,500,cs),
(116,500,o),
(61,457,o),
(51,402,cs)
);
}
);
width = 301;
}
);
unicode = 59;
},
{
glyphname = less;
layers = (
{
layerId = "1E866B1E-53BE-4037-8596-F70CE02E0A5A";
shapes = (
{
closed = 1;
nodes = (
(609,26,l),
(616,37,l),
(110,335,l),
(721,634,l),
(718,645,l),
(94,340,l),
(92,331,l)
);
}
);
width = 768;
},
{
layerId = "5534EA4B-8E80-4C74-8911-C7987B86627E";
shapes = (
{
closed = 1;
nodes = (
(609,26,l),
(616,37,l),
(110,335,l),
(721,634,l),
(718,645,l),
(94,340,l),
(92,331,l)
);
}
);
width = 768;
}
);
unicode = 60;
},
{
glyphname = equal;
layers = (
{
layerId = "1E866B1E-53BE-4037-8596-F70CE02E0A5A";
shapes = (
{
closed = 1;
nodes = (
(640,501,l),
(643,514,l),
(101,514,l),
(98,501,l)
);
},
{
closed = 1;
nodes = (
(581,163,l),
(583,176,l),
(41,176,l),
(39,163,l)
);
}
);
width = 682;
},
{
layerId = "5534EA4B-8E80-4C74-8911-C7987B86627E";
shapes = (
{
closed = 1;
nodes = (
(640,501,l),
(643,514,l),
(101,514,l),
(98,501,l)
);
},
{
closed = 1;
nodes = (
(581,163,l),
(583,176,l),
(41,176,l),
(39,163,l)
);
}
);
width = 682;
}
);
unicode = 61;
},
{
glyphname = greater;
layers = (
{
layerId = "1E866B1E-53BE-4037-8596-F70CE02E0A5A";
shapes = (
{
closed = 1;
nodes = (
(199,645,l),
(192,634,l),
(697,335,l),
(87,37,l),
(90,26,l),
(713,331,l),
(715,340,l)
);
}
);
width = 780;
},
{
layerId = "5534EA4B-8E80-4C74-8911-C7987B86627E";
shapes = (
{
closed = 1;
nodes = (
(199,645,l),
(192,634,l),
(697,335,l),
(87,37,l),
(90,26,l),
(713,331,l),
(715,340,l)
);
}
);
width = 780;
}
);
unicode = 62;
},
{
glyphname = questiondown;
layers = (
{
background = {
shapes = (
{
closed = 1;
nodes = (
(153,34,o),
(201,-9,o),
(263,-9,cs),
(325,-9,o),
(373,34,o),
(373,89,cs),
(373,144,o),
(325,187,o),
(263,187,cs),
(201,187,o),
(153,144,o),
(153,89,cs)
);
},
{
closed = 1;
nodes = (
(260,217,l),
(255,314,o),
(328,355,o),
(404,388,cs),
(496,428,o),
(572,472,o),
(572,567,cs),
(572,703,o),
(404,740,o),
(296,740,cs),
(169,740,o),
(35,683,o),
(35,561,cs),
(35,486,o),
(85,447,o),
(147,447,cs),
(213,447,o),
(244,491,o),
(244,536,cs),
(244,593,o),
(197,620,o),
(151,620,cs),
(127,620,o),
(103,612,o),
(84,600,c),
(84,654,o),
(145,722,o),
(228,722,cs),
(326,722,o),
(363,655,o),
(363,573,cs),
(363,441,o),
(246,350,o),
(251,217,c)
);
}
);
};
layerId = "1E866B1E-53BE-4037-8596-F70CE02E0A5A";
shapes = (
{
closed = 1;
nodes = (
(431,675,o),
(421,686,o),
(405,686,cs),
(389,686,o),
(375,675,o),
(373,661,cs),
(370,647,o),
(380,636,o),
(396,636,cs),
(412,636,o),
(426,647,o),
(429,661,cs)
);
},
{
closed = 1;
nodes = (
(380,530,l),
(365,457,o),
(331,424,o),
(285,372,cs),
(203,281,o),
(71,210,o),
(71,83,cs),
(71,-11,o),
(133,-62,o),
(231,-62,cs),
(333,-62,o),
(444,-1,o),
(462,102,cs),
(467,130,o),
(465,157,o),
(431,157,cs),
(410,157,o),
(395,142,o),
(392,127,cs),
(390,113,o),
(399,98,o),
(418,98,cs),
(429,98,o),
(441,104,o),
(449,113,c),
(449,12,o),
(338,-51,o),
(253,-51,cs),
(147,-51,o),
(99,2,o),
(99,76,cs),
(99,255,o),
(356,362,o),
(385,530,c)
);
}
);
width = 584;
},
{
layerId = "5534EA4B-8E80-4C74-8911-C7987B86627E";
shapes = (
{
closed = 1;
nodes = (
(507,643,o),
(467,686,o),
(405,686,cs),
(343,686,o),
(287,643,o),
(278,588,cs),
(268,533,o),
(308,490,o),
(370,490,cs),
(432,490,o),
(488,533,o),
(498,588,cs)
);
},
{
closed = 1;
nodes = (
(368,460,l),
(356,363,o),
(276,322,o),
(194,289,cs),
(95,249,o),
(-6,199,o),
(-6,98,cs),
(-6,-27,o),
(135,-63,o),
(240,-63,cs),
(367,-63,o),
(511,-6,o),
(532,116,cs),
(546,191,o),
(503,230,o),
(441,230,cs),
(375,230,o),
(336,186,o),
(328,141,cs),
(318,84,o),
(360,57,o),
(406,57,cs),
(430,57,o),
(455,65,o),
(477,77,c),
(467,23,o),
(394,-45,o),
(311,-45,cs),
(213,-45,o),
(188,22,o),
(202,104,cs),
(226,236,o),
(359,327,o),
(377,460,c)
);
}
);
width = 584;
}
);
unicode = 191;
},
{
glyphname = Ntilde;
layers = (
{
layerId = "1E866B1E-53BE-4037-8596-F70CE02E0A5A";
leftMetricsKey = N;
rightMetricsKey = N;
shapes = (
{
closed = 1;
nodes = (
(531,-2,l,{name = hr01;}),
(544,-2,l),
(544,47,l),
(544,43,o),
(543,40,o),
(541,44,cs),
(227,676,l),
(89,676,l),
(88,671,l),
(182,664,o),
(200,664,o),
(211,642,cs)
);
},
{
closed = 1;
nodes = (
(524,676,l),
(523,671,l),
(640,666,o),
(655,676,o),
(635,560,cs),
(536,-2,l),
(544,-2,l),
(643,560,ls),
(663,676,o),
(679,666,o),
(783,671,c),
(784,676,l)
);
},
{
closed = 1;
nodes = (
(111,116,ls),
(91,0,o),
(75,10,o),
(-29,5,c),
(-30,0,l),
(230,0,l),
(231,5,l),
(114,10,o),
(99,0,o),
(119,116,cs),
(217,668,l),
(209,671,l)
);
},
{
closed = 1;
nodes = (
(666,896,l,{name = hr01;}),
(656,837,o),
(608,810,o),
(570,810,cs),
(505,810,o),
(454,891,o),
(384,891,cs,{name = hr02;}),
(318,891,o),
(279,824,o),
(288,781,c),
(293,781,l),
(290,839,o),
(338,862,o),
(373,862,cs),
(433,862,o),
(485,783,o),
(557,783,cs,{name = hr03;}),
(618,783,o),
(664,841,o),
(672,896,c,{name = hr04;})
);
}
);
width = 735;
},
{
layerId = "5534EA4B-8E80-4C74-8911-C7987B86627E";
shapes = (
{
closed = 1;
nodes = (
(450,0,l,{name = hr01;}),
(578,0,l),
(610,238,l),
(608,228,o),
(602,227,o),
(598,234,cs),
(373,676,l),
(39,676,l),
(38,668,l),
(124,668,o),
(156,594,o),
(185,530,c)
);
},
{
closed = 1;
nodes = (
(526,676,l),
(525,668,l),
(663,668,o),
(651,468,o),
(624,316,cs),
(568,0,l),
(578,0,l),
(641,356,ls),
(664,489,o),
(730,668,o),
(844,668,c),
(845,676,l)
);
},
{
closed = 1;
nodes = (
(142,361,ls),
(118,227,o),
(82,8,o),
(-69,8,c),
(-70,0,l),
(249,0,l),
(250,8,l),
(112,8,o),
(140,297,o),
(167,449,cs),
(198,625,l),
(188,625,l)
);
},
{
closed = 1;
nodes = (
(688,919,l,{name = hr01;}),
(682,886,o),
(644,872,o),
(611,872,cs),
(554,872,o),
(499,914,o),
(440,914,cs,{name = hr02;}),
(350,914,o),
(301,815,o),
(307,751,c),
(314,751,l),
(318,779,o),
(350,795,o),
(385,795,cs),
(437,795,o),
(478,757,o),
(533,757,cs,{name = hr03;}),
(618,757,o),
(680,849,o),
(694,919,c,{name = hr04;})
);
}
);
width = 754;
}
);
unicode = 209;
},
{
glyphname = degree;
layers = (
{
layerId = "1E866B1E-53BE-4037-8596-F70CE02E0A5A";
shapes = (
{
closed = 1;
nodes = (
(100,511,o),
(156,449,o),
(240,449,cs),
(323,449,o),
(402,511,o),
(416,591,cs),
(430,670,o),
(373,733,o),
(290,733,cs),
(206,733,o),
(128,670,o),
(114,591,cs)
);
},
{
closed = 1;
nodes = (
(375,725,o),
(400,659,o),
(389,594,cs),
(377,525,o),
(323,457,o),
(242,457,cs),
(159,457,o),
(130,523,o),
(142,591,cs),
(154,659,o),
(206,725,o),
(289,725,cs)
);
}
);
width = 442;
},
{
layerId = "5534EA4B-8E80-4C74-8911-C7987B86627E";
shapes = (
{
closed = 1;
nodes = (
(75,480,o),
(146,405,o),
(253,405,cs),
(358,405,o),
(459,480,o),
(476,576,cs),
(492,670,o),
(419,747,o),
(314,747,cs),
(207,747,o),
(108,670,o),
(92,576,cs)
);
},
{
closed = 1;
nodes = (
(368,738,o),
(378,658,o),
(364,579,cs),
(349,496,o),
(307,414,o),
(255,414,cs),
(201,414,o),
(189,494,o),
(204,576,cs),
(218,658,o),
(258,738,o),
(312,738,cs)
);
}
);
width = 484;
}
);
unicode = 176;
},
{
glyphname = ordfeminine;
layers = (
{
layerId = "2AEC2686-2476-49B2-BBF6-37042191F199";
name = img;
width = 475;
},
{
layerId = "1E866B1E-53BE-4037-8596-F70CE02E0A5A";
shapes = (
{
closed = 1;
nodes = (
(379,635,l),
(301,589,o),
(134,574,o),
(117,479,cs),
(109,429,o),
(144,407,o),
(183,407,cs),
(253,407,o),
(328,468,o),
(360,551,c),
(360,563,l),
(360,559,o),
(349,498,o),
(349,498,cs),
(337,429,o),
(352,404,o),
(391,404,cs),
(415,404,o),
(438,413,o),
(448,430,c),
(445,433,l),
(436,421,o),
(426,415,o),
(409,415,cs),
(380,415,o),
(369,433,o),
(380,492,cs),
(411,669,ls),
(423,737,o),
(403,789,o),
(319,789,cs),
(238,789,o),
(194,735,o),
(186,690,cs),
(183,673,o),
(186,659,o),
(203,659,cs),
(220,659,o),
(231,672,o),
(234,688,cs),
(237,705,o),
(230,721,o),
(218,728,c),
(235,761,o),
(272,783,o),
(317,783,cs),
(383,783,o),
(394,744,o),
(386,697,cs),
(369,600,ls),
(355,523,o),
(282,421,o),
(200,421,cs),
(152,421,o),
(145,460,o),
(150,490,cs),
(165,570,o),
(304,590,o),
(382,628,c)
);
}
);
width = 475;
},
{
layerId = "5534EA4B-8E80-4C74-8911-C7987B86627E";
shapes = (
{
closed = 1;
nodes = (
(335,652,l),
(239,597,o),
(74,587,o),
(56,487,cs),
(45,428,o),
(100,406,o),
(143,406,cs),
(223,406,o),
(271,455,o),
(302,537,c),
(305,537,l),
(304,533,o),
(304,533,o),
(303,530,cs),
(288,445,o),
(309,406,o),
(374,406,cs),
(407,406,o),
(444,416,o),
(464,446,c),
(461,451,l),
(456,442,o),
(451,440,o),
(447,440,cs),
(438,440,o),
(436,453,o),
(444,498,cs),
(465,620,ls),
(483,720,o),
(466,799,o),
(323,799,cs),
(194,799,o),
(131,737,o),
(121,683,cs),
(114,643,o),
(132,618,o),
(169,618,cs),
(211,618,o),
(236,652,o),
(242,686,cs),
(247,712,o),
(239,739,o),
(215,750,c),
(229,771,o),
(258,789,o),
(288,789,cs),
(334,789,o),
(341,748,o),
(334,711,cs),
(319,624,ls),
(300,518,o),
(255,451,o),
(221,451,cs),
(200,451,o),
(195,477,o),
(200,504,cs),
(212,574,o),
(279,618,o),
(337,642,c)
);
}
);
width = 475;
}
);
unicode = 170;
},
{
glyphname = ordmasculine;
layers = (
{
layerId = "2AEC2686-2476-49B2-BBF6-37042191F199";
name = img;
width = 488;
},
{
layerId = "1E866B1E-53BE-4037-8596-F70CE02E0A5A";
shapes = (
{
closed = 1;
nodes = (
(94,473,o),
(160,406,o),
(255,406,cs),
(352,406,o),
(440,473,o),
(463,602,cs),
(484,721,o),
(433,799,o),
(324,799,cs),
(229,799,o),
(140,733,o),
(117,602,cs)
);
},
{
closed = 1;
nodes = (
(171,735,o),
(245,793,o),
(323,793,cs),
(402,793,o),
(457,735,o),
(433,602,cs),
(409,463,o),
(335,412,o),
(256,412,cs),
(178,412,o),
(123,463,o),
(147,602,cs)
);
}
);
width = 488;
},
{
layerId = "5534EA4B-8E80-4C74-8911-C7987B86627E";
shapes = (
{
closed = 1;
nodes = (
(48,473,o),
(134,406,o),
(255,406,cs),
(378,406,o),
(486,473,o),
(509,602,cs),
(532,733,o),
(447,799,o),
(324,799,cs),
(203,799,o),
(94,733,o),
(71,602,cs)
);
},
{
closed = 1;
nodes = (
(245,735,o),
(285,790,o),
(322,790,cs),
(360,790,o),
(383,735,o),
(359,602,cs),
(335,463,o),
(294,415,o),
(256,415,cs),
(219,415,o),
(197,463,o),
(221,602,cs)
);
}
);
width = 488;
}
);
unicode = 186;
},
{
glyphname = onesuperior;
layers = (
{
layerId = "2AEC2686-2476-49B2-BBF6-37042191F199";
name = img;
width = 340;
},
{
layerId = "1E866B1E-53BE-4037-8596-F70CE02E0A5A";
shapes = (
{
closed = 1;
nodes = (
(85,418,l),
(284,418,l),
(284,422,l),
(221,429,o),
(197,422,o),
(204,460,cs),
(263,796,l),
(159,771,l),
(158,767,l),
(232,781,o),
(235,779,o),
(228,737,cs),
(179,460,ls),
(172,422,o),
(152,429,o),
(85,422,c)
);
}
);
width = 340;
},
{
layerId = "5534EA4B-8E80-4C74-8911-C7987B86627E";
shapes = (
{
closed = 1;
nodes = (
(64,417,l),
(304,417,l),
(305,426,l),
(258,426,o),
(246,442,o),
(252,475,cs),
(309,798,l),
(127,775,l),
(125,765,l),
(172,765,o),
(184,749,o),
(178,717,cs,{name = hr01;}),
(136,475,ls),
(130,442,o),
(112,426,o),
(65,426,c)
);
}
);
width = 340;
}
);
unicode = 185;
},
{
glyphname = twosuperior;
layers = (
{
layerId = "2AEC2686-2476-49B2-BBF6-37042191F199";
name = img;
width = 373;
},
{
layerId = "1E866B1E-53BE-4037-8596-F70CE02E0A5A";
shapes = (
{
closed = 1;
nodes = (
(84,405,l),
(86,416,ls),
(91,440,o),
(107,453,o),
(126,453,cs),
(163,453,o),
(172,408,o),
(233,408,cs),
(300,408,o),
(325,456,o),
(336,497,c),
(331,497,l),
(320,451,o),
(296,434,o),
(247,434,cs),
(193,434,o),
(177,460,o),
(130,460,cs),
(115,460,o),
(101,451,o),
(94,440,cs),
(92,437,o),
(93,443,o),
(95,449,cs),
(156,591,o),
(344,611,o),
(362,714,cs),
(371,764,o),
(327,798,o),
(266,798,cs),
(213,798,o),
(156,768,o),
(147,714,cs),
(143,692,o),
(153,676,o),
(169,676,cs),
(184,676,o),
(193,685,o),
(195,695,cs),
(196,705,o),
(191,716,o),
(178,716,cs),
(170,716,o),
(161,711,o),
(156,705,c),
(157,761,o),
(212,793,o),
(261,793,cs),
(305,793,o),
(341,765,o),
(332,716,cs),
(313,604,o),
(107,580,o),
(79,405,c,{name = hr01;})
);
}
);
width = 373;
},
{
layerId = "5534EA4B-8E80-4C74-8911-C7987B86627E";
shapes = (
{
closed = 1;
nodes = (
(45,406,l),
(46,416,ls),
(51,440,o),
(67,455,o),
(89,455,cs),
(132,455,o),
(156,406,o),
(230,406,cs),
(344,406,o),
(371,514,o),
(381,570,c),
(373,570,l),
(366,532,o),
(337,523,o),
(294,523,cs),
(261,523,o),
(221,529,o),
(182,529,cs),
(130,529,o),
(94,504,o),
(67,472,c),
(66,471,o),
(65,471,o),
(65,472,c),
(145,630,o),
(374,556,o),
(400,702,cs),
(413,775,o),
(327,799,o),
(262,799,cs),
(197,799,o),
(113,770,o),
(100,697,cs),
(93,657,o),
(118,635,o),
(154,635,cs),
(190,635,o),
(212,660,o),
(217,685,cs),
(222,717,o),
(198,733,o),
(172,733,cs),
(159,733,o),
(144,728,o),
(132,721,c,{name = hr01;}),
(137,750,o),
(177,784,o),
(227,784,cs),
(265,784,o),
(283,762,o),
(278,732,cs),
(257,610,o),
(68,586,o),
(37,406,c)
);
}
);
width = 373;
}
);
unicode = 178;
},
{
glyphname = threesuperior;
layers = (
{
layerId = "2AEC2686-2476-49B2-BBF6-37042191F199";
name = img;
width = 373;
},
{
layerId = "1E866B1E-53BE-4037-8596-F70CE02E0A5A";
shapes = (
{
closed = 1;
nodes = (
(200,606,l),
(279,606,o),
(318,572,o),
(307,513,cs),
(300,471,o),
(271,414,o),
(176,414,cs),
(123,414,o),
(90,445,o),
(104,490,c),
(110,487,o),
(115,483,o),
(121,483,cs),
(132,483,o),
(144,489,o),
(147,503,cs),
(148,513,o),
(142,524,o),
(128,524,cs),
(107,524,o),
(98,506,o),
(95,489,cs),
(85,430,o),
(135,405,o),
(191,405,cs),
(243,405,o),
(320,429,o),
(333,507,cs),
(347,583,o),
(272,610,o),
(208,610,cs),
(201,610,l)
);
},
{
closed = 1;
nodes = (
(201,610,l),
(220,607,l),
(246,613,o),
(344,628,o),
(359,712,cs),
(369,773,o),
(317,798,o),
(263,798,cs),
(213,798,o),
(157,770,o),
(147,717,cs),
(144,700,o),
(149,682,o),
(168,682,cs),
(182,682,o),
(192,693,o),
(194,702,cs),
(195,711,o),
(189,722,o),
(176,722,cs),
(169,722,o),
(161,717,o),
(155,711,c),
(154,758,o),
(211,793,o),
(256,793,cs),
(330,793,o),
(338,751,o),
(332,716,cs),
(323,663,o),
(275,611,o),
(201,611,c)
);
}
);
width = 373;
},
{
layerId = "5534EA4B-8E80-4C74-8911-C7987B86627E";
shapes = (
{
closed = 1;
nodes = (
(181,605,l),
(234,605,o),
(252,571,o),
(242,514,cs),
(235,477,o),
(214,422,o),
(156,422,cs),
(104,422,o),
(78,454,o),
(83,482,c),
(93,476,o),
(104,470,o),
(118,470,cs),
(145,470,o),
(175,486,o),
(180,516,cs),
(185,542,o),
(169,567,o),
(134,567,cs),
(98,567,o),
(65,544,o),
(58,505,cs),
(46,435,o),
(120,406,o),
(185,406,cs),
(256,406,o),
(358,431,o),
(371,507,cs),
(387,593,o),
(281,613,o),
(196,613,cs),
(182,613,l)
);
},
{
closed = 1;
nodes = (
(194,610,l),
(206,610,l),
(242,616,o),
(386,628,o),
(401,712,cs),
(412,778,o),
(327,799,o),
(262,799,cs),
(203,799,o),
(125,772,o),
(114,708,cs),
(107,672,o),
(131,653,o),
(164,653,cs),
(198,653,o),
(218,674,o),
(222,696,cs),
(227,726,o),
(204,739,o),
(180,739,cs),
(168,739,o),
(155,735,o),
(144,730,c),
(148,755,o),
(185,785,o),
(231,785,cs),
(279,785,o),
(288,747,o),
(282,716,cs),
(273,663,o),
(240,613,o),
(194,613,c)
);
}
);
width = 373;
}
);
unicode = 179;
},
{
glyphname = fraction;
layers = (
{
layerId = "1E866B1E-53BE-4037-8596-F70CE02E0A5A";
shapes = (
{
closed = 1;
nodes = (
(-10,0,l),
(3,0,l),
(394,721,l),
(381,721,l)
);
}
);
width = 377;
},
{
layerId = "5534EA4B-8E80-4C74-8911-C7987B86627E";
shapes = (
{
closed = 1;
nodes = (
(-10,0,l),
(3,0,l),
(394,721,l),
(381,721,l)
);
}
);
width = 377;
}
);
unicode = 8260;
},
{
glyphname = onequarter;
layers = (
{
layerId = "2AEC2686-2476-49B2-BBF6-37042191F199";
name = img;
width = 685;
},
{
layerId = "1E866B1E-53BE-4037-8596-F70CE02E0A5A";
shapes = (
{
closed = 1;
nodes = (
(549,721,l),
(158,0,l),
(166,0,l),
(557,721,l,{name = hr01;})
);
},
{
closed = 1;
nodes = (
(62,295,l),
(261,295,l),
(262,299,l),
(198,306,o),
(175,299,o),
(181,337,cs),
(241,673,l),
(136,648,l),
(136,644,l),
(209,658,o),
(213,656,o),
(205,614,cs),
(156,337,ls),
(150,299,o),
(129,306,o),
(63,299,c)
);
},
{
closed = 1;
nodes = (
(283,92,l),
(283,89,l),
(583,89,l),
(593,102,l),
(298,102,l),
(504,362,l),
(449,49,ls),
(442,11,o),
(421,18,o),
(355,11,c),
(354,7,l),
(553,7,l),
(554,11,l),
(490,18,o),
(467,11,o),
(474,49,cs),
(531,376,l),
(507,376,l)
);
}
);
width = 685;
},
{
layerId = "5534EA4B-8E80-4C74-8911-C7987B86627E";
shapes = (
{
closed = 1;
nodes = (
(549,721,l),
(158,0,l),
(171,0,l),
(562,721,l,{name = hr01;})
);
},
{
closed = 1;
nodes = (
(42,295,l),
(282,295,l),
(284,304,l),
(237,304,o),
(224,320,o),
(230,353,cs),
(287,676,l),
(105,653,l),
(103,643,l),
(150,643,o),
(163,627,o),
(157,595,cs),
(114,353,ls),
(108,320,o),
(91,304,o),
(44,304,c)
);
},
{
closed = 1;
nodes = (
(277,92,l),
(275,78,l),
(581,78,l),
(593,102,l),
(298,102,l),
(443,259,l),
(406,53,ls),
(401,20,o),
(383,4,o),
(336,4,c),
(334,-5,l),
(574,-5,l),
(576,4,l),
(529,4,o),
(517,20,o),
(522,53,cs),
(579,376,l),
(538,376,l)
);
}
);
width = 685;
}
);
unicode = 188;
},
{
glyphname = onehalf;
layers = (
{
layerId = "2AEC2686-2476-49B2-BBF6-37042191F199";
name = img;
width = 737;
},
{
layerId = "1E866B1E-53BE-4037-8596-F70CE02E0A5A";
shapes = (
{
closed = 1;
nodes = (
(158,0,l),
(167,0,l),
(558,721,l,{name = hr01;}),
(549,721,l)
);
},
{
closed = 1;
nodes = (
(62,295,l),
(261,295,l),
(262,298,l),
(198,305,o),
(175,298,o),
(181,336,cs),
(241,673,l),
(136,648,l),
(136,645,l),
(209,659,o),
(213,657,o),
(205,615,cs),
(156,336,ls),
(150,298,o),
(129,305,o),
(63,298,c)
);
},
{
closed = 1;
nodes = (
(349,-8,l),
(351,3,ls),
(355,27,o),
(371,40,o),
(390,40,cs),
(427,40,o),
(436,-5,o),
(497,-5,cs),
(564,-5,o),
(590,43,o),
(600,84,c),
(595,84,l),
(584,38,o),
(560,21,o),
(511,21,cs),
(457,21,o),
(441,47,o),
(394,47,cs),
(379,47,o),
(365,39,o),
(358,28,cs),
(356,25,o),
(357,30,o),
(359,36,cs),
(417,170,o),
(608,198,o),
(626,301,cs),
(635,351,o),
(591,385,o),
(530,385,cs),
(477,385,o),
(421,355,o),
(411,301,cs),
(407,279,o),
(417,263,o),
(433,263,cs),
(448,263,o),
(457,272,o),
(459,282,cs),
(460,292,o),
(455,303,o),
(442,303,cs),
(434,303,o),
(426,298,o),
(420,292,c),
(421,348,o),
(476,379,o),
(525,379,cs),
(569,379,o),
(605,352,o),
(596,303,cs),
(577,191,o),
(371,167,o),
(344,-8,c,{name = hr01;})
);
}
);
width = 737;
},
{
layerId = "5534EA4B-8E80-4C74-8911-C7987B86627E";
shapes = (
{
closed = 1;
nodes = (
(158,0,l),
(171,0,l),
(562,721,l,{name = hr01;}),
(549,721,l)
);
},
{
closed = 1;
nodes = (
(42,295,l),
(282,295,l),
(284,304,l),
(237,304,o),
(224,320,o),
(230,353,cs),
(287,676,l),
(105,653,l),
(103,643,l),
(150,643,o),
(163,627,o),
(157,595,cs),
(114,353,ls),
(108,320,o),
(91,304,o),
(44,304,c)
);
},
{
closed = 1;
nodes = (
(311,-9,l),
(313,1,ls),
(317,25,o),
(334,40,o),
(356,40,cs),
(399,40,o),
(422,-9,o),
(496,-9,cs),
(610,-9,o),
(637,99,o),
(647,155,c),
(639,155,l),
(633,117,o),
(604,108,o),
(561,108,cs),
(528,108,o),
(488,114,o),
(449,114,cs),
(397,114,o),
(361,89,o),
(334,57,cs),
(333,55,o),
(331,54,o),
(332,57,cs),
(412,215,o),
(641,141,o),
(667,287,cs),
(679,360,o),
(594,384,o),
(529,384,cs),
(464,384,o),
(380,355,o),
(367,282,cs),
(360,242,o),
(385,220,o),
(421,220,cs),
(457,220,o),
(479,245,o),
(484,270,cs),
(489,302,o),
(465,318,o),
(439,318,cs),
(426,318,o),
(411,313,o),
(399,306,c),
(404,335,o),
(444,369,o),
(494,369,cs),
(532,369,o),
(550,347,o),
(545,317,cs),
(523,195,o),
(335,171,o),
(303,-9,c)
);
}
);
width = 737;
}
);
unicode = 189;
},
{
glyphname = threequarters;
layers = (
{
layerId = "2AEC2686-2476-49B2-BBF6-37042191F199";
name = img;
width = 730;
},
{
layerId = "1E866B1E-53BE-4037-8596-F70CE02E0A5A";
shapes = (
{
closed = 1;
nodes = (
(203,0,l),
(212,0,l),
(603,721,l,{name = hr01;}),
(594,721,l)
);
},
{
closed = 1;
nodes = (
(563,376,l),
(339,92,l),
(339,89,l),
(639,89,l),
(649,102,l),
(354,102,l),
(560,362,l),
(505,49,ls),
(498,11,o),
(477,18,o),
(411,11,c),
(410,7,l),
(609,7,l),
(610,11,l),
(546,18,o),
(523,11,o),
(530,49,cs),
(587,376,l)
);
},
{
closed = 1;
nodes = (
(199,485,l),
(278,485,o),
(317,451,o),
(306,392,cs),
(299,350,o),
(270,293,o),
(175,293,cs),
(122,293,o),
(89,324,o),
(103,369,c),
(109,366,o),
(114,362,o),
(120,362,cs),
(131,362,o),
(143,368,o),
(145,382,cs),
(147,392,o),
(141,403,o),
(127,403,cs),
(106,403,o),
(97,385,o),
(94,368,cs),
(83,309,o),
(134,284,o),
(190,284,cs),
(242,284,o),
(318,308,o),
(332,386,cs),
(345,462,o),
(270,489,o),
(206,489,cs),
(199,489,l)
);
},
{
closed = 1;
nodes = (
(199,489,l),
(219,486,l),
(245,492,o),
(342,507,o),
(357,591,cs),
(368,652,o),
(315,677,o),
(261,677,cs),
(211,677,o),
(155,649,o),
(146,596,cs),
(143,579,o),
(148,561,o),
(167,561,cs),
(181,561,o),
(191,572,o),
(192,581,cs),
(194,590,o),
(188,601,o),
(175,601,cs),
(168,601,o),
(160,596,o),
(154,590,c),
(152,637,o),
(209,672,o),
(254,672,cs),
(328,672,o),
(337,630,o),
(331,595,cs),
(322,542,o),
(273,490,o),
(199,490,c)
);
}
);
width = 730;
},
{
layerId = "5534EA4B-8E80-4C74-8911-C7987B86627E";
shapes = (
{
closed = 1;
nodes = (
(203,0,l),
(216,0,l),
(607,721,l,{name = hr01;}),
(594,721,l)
);
},
{
closed = 1;
nodes = (
(580,376,l),
(319,92,l),
(317,78,l),
(623,78,l),
(635,102,l),
(340,102,l),
(485,259,l),
(448,53,ls),
(443,20,o),
(425,4,o),
(378,4,c),
(376,-5,l),
(616,-5,l),
(618,4,l),
(571,4,o),
(559,20,o),
(564,53,cs),
(621,376,l)
);
},
{
closed = 1;
nodes = (
(180,483,l),
(233,483,o),
(251,449,o),
(241,392,cs),
(235,355,o),
(214,300,o),
(156,300,cs),
(104,300,o),
(78,332,o),
(82,360,c),
(92,354,o),
(103,348,o),
(117,348,cs),
(144,348,o),
(174,364,o),
(179,394,cs),
(184,420,o),
(168,445,o),
(133,445,cs),
(97,445,o),
(64,422,o),
(58,383,cs),
(45,313,o),
(119,284,o),
(184,284,cs),
(255,284,o),
(357,309,o),
(371,385,cs),
(386,471,o),
(281,491,o),
(196,491,cs),
(182,491,l)
);
},
{
closed = 1;
nodes = (
(193,488,l),
(205,488,l),
(241,494,o),
(385,506,o),
(400,590,cs),
(412,656,o),
(326,677,o),
(261,677,cs),
(202,677,o),
(125,650,o),
(113,586,cs),
(107,550,o),
(131,531,o),
(164,531,cs),
(198,531,o),
(217,552,o),
(221,574,cs),
(227,604,o),
(204,617,o),
(180,617,cs),
(168,617,o),
(154,613,o),
(143,608,c),
(148,633,o),
(185,663,o),
(231,663,cs),
(279,663,o),
(287,625,o),
(282,594,cs),
(272,541,o),
(240,491,o),
(194,491,c)
);
}
);
width = 730;
}
);
unicode = 190;
},
{
glyphname = perthousand;
layers = (
{
layerId = "1E866B1E-53BE-4037-8596-F70CE02E0A5A";
shapes = (
{
closed = 1;
nodes = (
(237,574,l),
(198,574,o),
(173,541,o),
(168,509,cs),
(161,473,o),
(179,419,o),
(283,419,cs),
(399,419,o),
(517,487,o),
(563,552,cs),
(570,562,o),
(566,568,o),
(558,568,cs),
(554,568,o),
(550,566,o),
(545,561,cs),
(470,476,o),
(387,426,o),
(283,426,cs),
(182,426,o),
(168,476,o),
(174,509,cs),
(179,538,o),
(201,568,o),
(236,568,c)
);
},
{
closed = 1;
nodes = (
(508,320,o),
(525,267,o),
(516,213,cs),
(506,156,o),
(467,98,o),
(410,98,cs),
(350,98,o),
(333,154,o),
(343,210,cs),
(353,265,o),
(389,320,o),
(449,320,cs)
);
},
{
closed = 1;
nodes = (
(302,143,o),
(345,92,o),
(409,92,cs),
(472,92,o),
(533,143,o),
(545,209,cs),
(556,273,o),
(513,326,o),
(450,326,cs),
(386,326,o),
(325,273,o),
(314,209,cs)
);
},
{
closed = 1;
nodes = (
(545,561,l),
(76,88,l),
(85,88,l),
(555,561,l)
);
},
{
closed = 1;
nodes = (
(295,568,o),
(312,515,o),
(302,461,cs),
(292,404,o),
(253,346,o),
(197,346,cs),
(137,346,o),
(120,402,o),
(130,458,cs),
(139,513,o),
(176,568,o),
(236,568,cs)
);
},
{
closed = 1;
nodes = (
(89,391,o),
(132,340,o),
(196,340,cs),
(259,340,o),
(320,391,o),
(332,457,cs),
(343,521,o),
(300,574,o),
(237,574,cs),
(173,574,o),
(112,521,o),
(101,457,cs)
);
},
{
closed = 1;
nodes = (
(712,320,o),
(729,267,o),
(720,213,cs),
(710,156,o),
(671,98,o),
(614,98,cs),
(554,98,o),
(537,154,o),
(547,210,cs),
(557,265,o),
(593,320,o),
(653,320,cs)
);
},
{
closed = 1;
nodes = (
(506,143,o),
(549,92,o),
(613,92,cs),
(676,92,o),
(737,143,o),
(749,209,cs),
(760,273,o),
(717,326,o),
(654,326,cs),
(590,326,o),
(529,273,o),
(518,209,cs)
);
}
);
width = 812;
},
{
layerId = "5534EA4B-8E80-4C74-8911-C7987B86627E";
shapes = (
{
closed = 1;
nodes = (
(210,574,l),
(190,574,o),
(157,542,o),
(151,509,cs),
(144,473,o),
(171,435,o),
(281,435,cs),
(382,435,o),
(508,472,o),
(577,559,cs),
(595,582,o),
(585,600,o),
(565,600,cs),
(558,600,o),
(547,596,o),
(537,586,cs),
(434,479,o),
(367,444,o),
(272,444,cs),
(174,444,o),
(152,477,o),
(157,509,c),
(162,539,o),
(192,568,o),
(209,568,c)
);
},
{
closed = 1;
nodes = (
(453,320,o),
(458,267,o),
(449,213,cs),
(439,156,o),
(413,98,o),
(383,98,cs),
(351,98,o),
(346,154,o),
(356,210,cs),
(366,265,o),
(390,320,o),
(422,320,cs)
);
},
{
closed = 1;
nodes = (
(258,143,o),
(309,92,o),
(382,92,cs),
(454,92,o),
(523,143,o),
(535,209,cs),
(546,273,o),
(495,326,o),
(423,326,cs),
(350,326,o),
(281,273,o),
(270,209,cs)
);
},
{
closed = 1;
nodes = (
(537,586,l),
(44,88,l),
(53,88,l),
(547,586,l)
);
},
{
closed = 1;
nodes = (
(240,568,o),
(245,515,o),
(235,461,cs),
(225,404,o),
(200,346,o),
(170,346,cs),
(138,346,o),
(133,402,o),
(143,458,cs),
(152,513,o),
(177,568,o),
(209,568,cs)
);
},
{
closed = 1;
nodes = (
(45,391,o),
(96,340,o),
(169,340,cs),
(241,340,o),
(310,391,o),
(322,457,cs),
(333,521,o),
(282,574,o),
(210,574,cs),
(137,574,o),
(68,521,o),
(57,457,cs)
);
},
{
closed = 1;
nodes = (
(635,320,o),
(640,267,o),
(631,213,cs),
(621,156,o),
(595,98,o),
(565,98,cs),
(533,98,o),
(528,154,o),
(538,210,cs),
(548,265,o),
(572,320,o),
(604,320,cs)
);
},
{
closed = 1;
nodes = (
(440,143,o),
(491,92,o),
(564,92,cs),
(636,92,o),
(705,143,o),
(717,209,cs),
(728,273,o),
(677,326,o),
(605,326,cs),
(532,326,o),
(463,273,o),
(452,209,cs)
);
}
);
width = 781;
}
);
unicode = 8240;
},
{
glyphname = mu;
leftMetricsKey = u;
layers = (
{
layerId = "1E866B1E-53BE-4037-8596-F70CE02E0A5A";
shapes = (
{
closed = 1;
nodes = (
(439,101,ls),
(423,14,o),
(439,-9,o),
(474,-9,cs),
(511,-9,o),
(530,11,o),
(543,35,c),
(541,37,l),
(527,15,o),
(511,3,o),
(492,3,cs),
(458,3,o),
(455,37,o),
(463,85,cs),
(531,472,l),
(523,462,o),
(509,458,o),
(502,458,c)
);
},
{
closed = 1;
nodes = (
(163,244,l),
(78,-240,l),
(105,-240,l),
(184,212,l)
);
},
{
closed = 1;
nodes = (
(230,472,l),
(200,459,o),
(154,453,o),
(113,453,c),
(112,449,l),
(179,449,o),
(199,449,o),
(192,410,cs),
(146,147,ls),
(125,28,o),
(170,-7,o),
(242,-7,cs,{name = hr01;}),
(351,-7,o),
(444,109,o),
(464,223,c),
(461,228,l),
(449,157,o),
(383,4,o),
(245,4,cs),
(188,4,o),
(155,46,o),
(168,118,cs)
);
}
);
width = 667;
},
{
layerId = "5534EA4B-8E80-4C74-8911-C7987B86627E";
shapes = (
{
closed = 1;
nodes = (
(441,184,ls),
(417,47,o),
(455,-9,o),
(550,-9,cs),
(611,-9,o),
(643,14,o),
(661,47,c),
(658,54,l),
(650,37,o),
(640,32,o),
(633,32,cs),
(619,32,o),
(621,60,o),
(629,106,cs),
(698,500,l),
(621,481,o),
(570,473,o),
(491,467,c)
);
},
{
closed = 1;
nodes = (
(143,244,l),
(58,-240,l),
(247,-240,l),
(326,212,l)
);
},
{
closed = 1;
nodes = (
(379,500,l),
(302,487,o),
(212,481,o),
(108,481,c),
(106,473,l),
(162,473,o),
(183,468,o),
(173,416,cs),
(135,200,ls),
(110,57,o),
(120,-6,o),
(240,-6,cs,{name = hr01;}),
(311,-6,o),
(421,45,o),
(441,159,c),
(441,184,l),
(431,126,o),
(389,42,o),
(339,42,cs),
(312,42,o),
(302,65,o),
(312,118,cs)
);
}
);
width = 737;
}
);
unicode = (956,181);
},
{
glyphname = paragraph;
layers = (
{
layerId = "2AEC2686-2476-49B2-BBF6-37042191F199";
name = img;
width = 478;
},
{
layerId = "1E866B1E-53BE-4037-8596-F70CE02E0A5A";
shapes = (
{
closed = 1;
nodes = (
(462,621,l),
(284,621,l),
(243,621,o),
(189,593,o),
(179,537,cs),
(169,481,o),
(214,453,o),
(255,453,c),
(188,73,l),
(199,73,l),
(291,597,ls),
(293,606,o),
(297,611,o),
(307,611,cs),
(393,611,l),
(298,73,l),
(309,73,l),
(404,611,l),
(461,611,l)
);
}
);
width = 478;
},
{
layerId = "5534EA4B-8E80-4C74-8911-C7987B86627E";
shapes = (
{
closed = 1;
nodes = (
(462,621,l),
(284,621,ls),
(203,621,o),
(97,566,o),
(78,457,cs),
(58,348,o),
(145,292,o),
(226,292,c),
(188,73,l),
(199,73,l),
(291,597,ls),
(293,606,o),
(297,611,o),
(307,611,cs),
(393,611,l),
(298,73,l),
(309,73,l),
(404,611,l),
(461,611,l)
);
}
);
width = 478;
}
);
unicode = 182;
},
{
glyphname = section;
layers = (
{
layerId = "1E866B1E-53BE-4037-8596-F70CE02E0A5A";
shapes = (
{
closed = 1;
nodes = (
(320,251,o),
(366,288,o),
(376,346,cs),
(397,464,o),
(192,460,o),
(210,562,cs),
(218,609,o),
(273,619,o),
(299,619,cs),
(348,619,o),
(385,582,o),
(375,524,c),
(375,522,o),
(376,521,o),
(377,521,c),
(380,521,o),
(380,521,o),
(381,525,cs),
(399,631,l),
(394,631,l),
(392,616,o),
(384,609,o),
(372,609,cs),
(354,609,o),
(338,624,o),
(301,624,cs),
(234,624,o),
(185,586,o),
(178,531,cs),
(171,472,o),
(224,442,o),
(271,410,c),
(266,410,o),
(260,411,o),
(254,411,cs),
(188,411,o),
(132,370,o),
(125,318,cs),
(110,208,o),
(308,212,o),
(291,112,cs),
(283,67,o),
(236,30,o),
(176,30,cs),
(134,30,o),
(111,53,o),
(110,74,c),
(121,83,o),
(132,96,o),
(135,112,cs),
(138,130,o),
(128,146,o),
(108,146,cs),
(85,146,o),
(71,129,o),
(67,110,c),
(59,62,o),
(97,26,o),
(176,26,cs),
(242,26,o),
(321,56,o),
(335,135,cs),
(345,192,o),
(299,220,o),
(252,246,c),
(256,246,o),
(260,246,o),
(264,246,cs)
);
},
{
closed = 1;
nodes = (
(192,279,o),
(152,303,o),
(160,348,cs),
(169,397,o),
(228,404,o),
(253,404,cs),
(273,404,o),
(287,399,o),
(302,387,cs),
(324,369,o),
(336,348,o),
(331,316,cs),
(323,272,o),
(292,253,o),
(258,253,cs),
(251,253,o),
(244,254,o),
(236,255,c)
);
}
);
width = 489;
},
{
layerId = "5534EA4B-8E80-4C74-8911-C7987B86627E";
shapes = (
{
closed = 1;
nodes = (
(390,284,o),
(459,322,o),
(470,399,cs),
(490,545,o),
(261,540,o),
(276,624,cs),
(279,643,o),
(295,659,o),
(339,659,cs),
(427,659,o),
(447,595,o),
(451,529,c),
(451,528,o),
(452,527,o),
(454,527,c),
(455,527,o),
(458,527,o),
(458,530,c),
(484,673,l),
(477,673,l),
(476,668,o),
(473,650,o),
(447,650,cs),
(424,650,o),
(387,666,o),
(330,666,cs),
(230,666,o),
(142,618,o),
(135,546,cs),
(128,466,o),
(215,436,o),
(278,401,c),
(271,401,o),
(265,401,o),
(258,400,cs),
(169,392,o),
(97,346,o),
(89,281,cs),
(74,156,o),
(299,158,o),
(283,67,cs),
(277,33,o),
(241,4,o),
(197,4,cs),
(167,4,o),
(129,18,o),
(124,37,c,{name = hr01;}),
(144,54,o),
(162,75,o),
(167,100,cs),
(172,130,o),
(156,157,o),
(121,157,cs),
(84,157,o),
(55,129,o),
(49,94,cs),
(38,33,o),
(106,-3,o),
(199,-3,cs),
(294,-3,o),
(411,34,o),
(424,135,cs,{name = hr02;}),
(435,221,o),
(359,254,o),
(298,285,c),
(305,284,o),
(312,284,o),
(318,284,cs)
);
},
{
closed = 1;
nodes = (
(246,312,o),
(224,331,o),
(229,360,cs),
(234,384,o),
(254,393,o),
(274,393,cs),
(288,393,o),
(304,385,o),
(312,379,cs),
(329,365,o),
(340,349,o),
(336,327,cs),
(332,305,o),
(317,293,o),
(297,293,cs),
(294,293,o),
(278,296,o),
(278,295,c)
);
}
);
width = 534;
}
);
unicode = 167;
},
{
glyphname = dagger;
layers = (
{
layerId = "2AEC2686-2476-49B2-BBF6-37042191F199";
name = img;
width = 562;
},
{
layerId = "1E866B1E-53BE-4037-8596-F70CE02E0A5A";
shapes = (
{
closed = 1;
nodes = (
(284,-141,l),
(282,-58,l),
(282,79,o),
(241,150,o),
(165,150,cs),
(132,150,o),
(107,126,o),
(107,94,cs),
(107,62,o),
(128,46,o),
(151,46,cs),
(178,46,o),
(191,68,o),
(191,88,cs),
(191,103,o),
(181,123,o),
(162,127,c),
(167,131,o),
(174,132,o),
(180,132,cs),
(237,132,o),
(278,48,o),
(278,-50,c)
);
},
{
closed = 1;
nodes = (
(317,-185,l),
(292,-155,o),
(284,-104,o),
(284,-50,cs),
(284,86,o),
(283,126,o),
(295,190,c),
(284,734,l),
(278,734,l),
(267,190,l),
(279,126,o),
(278,86,o),
(278,-50,cs),
(278,-104,o),
(270,-155,o),
(245,-185,c)
);
},
{
closed = 1;
nodes = (
(278,-141,l),
(284,-50,l),
(284,48,o),
(325,132,o),
(382,132,cs),
(388,132,o),
(395,131,o),
(400,127,c),
(381,123,o),
(371,103,o),
(371,88,cs),
(371,68,o),
(384,46,o),
(411,46,cs),
(434,46,o),
(455,62,o),
(455,94,cs),
(455,126,o),
(430,150,o),
(397,150,cs),
(321,150,o),
(280,79,o),
(280,-58,c)
);
}
);
width = 562;
},
{
layerId = "5534EA4B-8E80-4C74-8911-C7987B86627E";
shapes = (
{
closed = 1;
nodes = (
(284,-141,l),
(282,-58,l),
(282,79,o),
(224,150,o),
(148,150,cs),
(88,150,o),
(50,110,o),
(50,57,cs),
(50,3,o),
(86,-23,o),
(125,-23,cs),
(169,-23,o),
(191,13,o),
(191,46,cs),
(191,72,o),
(177,103,o),
(153,110,c),
(159,112,o),
(167,112,o),
(169,112,c),
(222,112,o),
(278,48,o),
(278,-50,c)
);
},
{
closed = 1;
nodes = (
(317,-185,l),
(292,-155,o),
(284,-104,o),
(284,-50,cs),
(284,86,o),
(289,126,o),
(301,190,c),
(284,734,l),
(278,734,l),
(261,190,l),
(273,126,o),
(278,86,o),
(278,-50,cs),
(278,-104,o),
(270,-155,o),
(245,-185,c)
);
},
{
closed = 1;
nodes = (
(278,-141,l),
(284,-50,l),
(284,48,o),
(340,112,o),
(393,112,c),
(395,112,o),
(403,112,o),
(409,110,c),
(385,103,o),
(371,72,o),
(371,46,cs),
(371,13,o),
(393,-23,o),
(437,-23,cs),
(476,-23,o),
(512,3,o),
(512,57,cs),
(512,110,o),
(474,150,o),
(414,150,cs),
(338,150,o),
(280,79,o),
(280,-58,c)
);
}
);
width = 562;
}
);
unicode = 8224;
},
{
glyphname = daggerdbl;
layers = (
{
layerId = "2AEC2686-2476-49B2-BBF6-37042191F199";
name = img;
width = 935;
},
{
layerId = "1E866B1E-53BE-4037-8596-F70CE02E0A5A";
shapes = (
{
closed = 1;
nodes = (
(109,-93,l),
(166,-33,l),
(263,64,o),
(285,143,o),
(231,197,cs),
(207,221,o),
(173,221,o),
(150,198,cs),
(127,175,o),
(131,149,o),
(147,133,cs),
(166,114,o),
(191,120,o),
(205,134,cs),
(216,145,o),
(223,166,o),
(212,183,c),
(219,182,o),
(223,178,o),
(228,173,cs),
(269,132,o),
(238,45,o),
(169,-25,c)
);
},
{
closed = 1;
nodes = (
(101,-148,l),
(105,-109,o),
(135,-67,o),
(173,-29,cs),
(270,67,o),
(297,96,o),
(351,133,c),
(824,621,l),
(819,626,l),
(331,153,l),
(294,99,o),
(265,72,o),
(169,-25,cs),
(131,-63,o),
(89,-93,o),
(50,-97,c)
);
},
{
closed = 1;
nodes = (
(105,-89,l),
(173,-29,l),
(243,40,o),
(331,71,o),
(371,31,cs),
(376,26,o),
(380,21,o),
(381,14,c),
(364,25,o),
(343,18,o),
(332,7,cs),
(318,-7,o),
(312,-32,o),
(331,-51,cs),
(347,-67,o),
(373,-71,o),
(396,-48,cs),
(419,-25,o),
(419,9,o),
(395,33,cs),
(341,87,o),
(262,65,o),
(165,-32,c)
);
},
{
closed = 1;
nodes = (
(827,-93,l),
(767,-25,l),
(698,45,o),
(667,132,o),
(708,173,cs),
(713,178,o),
(717,182,o),
(724,183,c),
(713,166,o),
(720,145,o),
(731,134,cs),
(745,120,o),
(770,114,o),
(789,133,cs),
(797,141,o),
(802,152,o),
(802,163,cs),
(802,175,o),
(797,187,o),
(786,198,cs),
(763,221,o),
(729,221,o),
(705,197,cs),
(651,143,o),
(673,64,o),
(770,-33,c)
);
},
{
closed = 1;
nodes = (
(585,133,l),
(639,96,o),
(666,67,o),
(763,-29,cs),
(801,-67,o),
(831,-109,o),
(835,-148,c),
(886,-97,l),
(847,-93,o),
(805,-63,o),
(767,-25,cs),
(671,72,o),
(642,99,o),
(605,153,c),
(117,626,l),
(112,621,l)
);
},
{
closed = 1;
nodes = (
(831,-89,l),
(771,-32,l),
(674,65,o),
(595,87,o),
(541,33,cs),
(517,9,o),
(517,-25,o),
(540,-48,cs),
(563,-71,o),
(589,-67,o),
(605,-51,cs),
(624,-32,o),
(618,-7,o),
(604,7,cs),
(593,18,o),
(572,25,o),
(555,14,c),
(556,21,o),
(560,26,o),
(565,31,cs),
(605,71,o),
(693,40,o),
(763,-29,c)
);
}
);
width = 936;
},
{
layerId = "5534EA4B-8E80-4C74-8911-C7987B86627E";
shapes = (
{
closed = 1;
nodes = (
(124,-76,l),
(176,-23,ls),
(260,62,o),
(269,143,o),
(221,190,cs),
(183,228,o),
(135,226,o),
(102,194,c),
(69,160,o),
(75,121,o),
(99,97,cs),
(126,69,o),
(162,78,o),
(183,98,c),
(199,115,o),
(210,143,o),
(199,162,c),
(205,160,o),
(209,155,o),
(211,154,c),
(243,120,o),
(239,46,o),
(177,-15,c)
);
},
{
closed = 1;
nodes = (
(100,-147,l),
(104,-108,o),
(134,-67,o),
(173,-28,cs),
(269,68,o),
(301,93,o),
(354,129,c),
(823,623,l),
(819,627,l),
(326,158,l),
(289,104,o),
(265,72,o),
(168,-24,cs),
(130,-62,o),
(88,-93,o),
(50,-96,c)
);
},
{
closed = 1;
nodes = (
(121,-72,l),
(182,-19,l),
(242,42,o),
(317,47,o),
(350,14,c),
(352,13,o),
(356,8,o),
(359,2,c),
(339,13,o),
(311,2,o),
(295,-13,c),
(275,-34,o),
(266,-70,o),
(294,-97,c),
(317,-122,o),
(356,-128,o),
(390,-95,c),
(423,-61,o),
(424,-13,o),
(387,24,cs),
(339,72,o),
(259,64,o),
(174,-21,c)
);
},
{
closed = 1;
nodes = (
(811,-76,l),
(758,-15,l),
(696,46,o),
(691,121,o),
(724,154,cs),
(726,156,o),
(730,160,o),
(736,162,c),
(725,143,o),
(735,115,o),
(752,98,cs),
(773,77,o),
(809,69,o),
(836,97,cs),
(848,109,o),
(856,126,o),
(856,144,cs),
(856,183,o),
(815,219,o),
(777,219,cs),
(726,219,o),
(685,169,o),
(685,120,cs),
(685,78,o),
(708,28,o),
(759,-23,cs)
);
},
{
closed = 1;
nodes = (
(581,129,l),
(634,93,o),
(666,68,o),
(762,-28,cs),
(801,-67,o),
(831,-108,o),
(835,-147,c),
(885,-96,l),
(847,-93,o),
(805,-62,o),
(767,-24,cs),
(670,72,o),
(646,104,o),
(609,158,c),
(116,627,l),
(112,623,l)
);
},
{
closed = 1;
nodes = (
(814,-72,l),
(761,-21,l),
(676,64,o),
(596,72,o),
(548,24,cs),
(511,-13,o),
(512,-61,o),
(545,-95,c),
(579,-128,o),
(618,-122,o),
(641,-97,c),
(669,-70,o),
(660,-34,o),
(640,-13,c),
(624,2,o),
(596,13,o),
(576,2,c),
(579,8,o),
(583,13,o),
(585,14,c),
(618,47,o),
(693,42,o),
(753,-19,c)
);
}
);
width = 935;
}
);
unicode = 8225;
},
{
glyphname = asciitilde;
layers = (
{
layerId = "2AEC2686-2476-49B2-BBF6-37042191F199";
name = img;
width = 728;
},
{
layerId = "1E866B1E-53BE-4037-8596-F70CE02E0A5A";
shapes = (
{
closed = 1;
nodes = (
(59,256,l),
(57,268,o),
(58,281,o),
(60,293,cs),
(70,353,o),
(128,404,o),
(203,404,cs),
(338,404,o),
(381,244,o),
(520,244,cs),
(604,244,o),
(662,304,o),
(669,348,cs),
(672,361,o),
(670,374,o),
(665,383,c),
(658,379,l),
(662,372,o),
(663,360,o),
(661,348,cs),
(654,308,o),
(599,252,o),
(520,252,cs),
(382,252,o),
(343,412,o),
(205,412,cs),
(126,412,o),
(63,357,o),
(51,292,cs),
(49,279,o),
(49,266,o),
(51,254,c)
);
}
);
width = 728;
},
{
layerId = "5534EA4B-8E80-4C74-8911-C7987B86627E";
shapes = (
{
closed = 1;
nodes = (
(59,256,l),
(57,268,o),
(58,281,o),
(60,293,cs),
(70,353,o),
(128,404,o),
(203,404,cs),
(338,404,o),
(381,244,o),
(520,244,cs),
(604,244,o),
(662,304,o),
(669,348,cs),
(672,361,o),
(670,374,o),
(665,383,c),
(658,379,l),
(662,372,o),
(663,360,o),
(661,348,cs),
(654,308,o),
(599,252,o),
(520,252,cs),
(382,252,o),
(343,412,o),
(205,412,cs),
(126,412,o),
(63,357,o),
(51,292,cs),
(49,279,o),
(49,266,o),
(51,254,c)
);
}
);
width = 728;
}
);
unicode = 126;
},
{
glyphname = guilsinglleft;
layers = (
{
layerId = "2AEC2686-2476-49B2-BBF6-37042191F199";
name = img;
width = 314;
},
{
layerId = "1E866B1E-53BE-4037-8596-F70CE02E0A5A";
shapes = (
{
closed = 1;
nodes = (
(252,445,l),
(248,451,l),
(77,326,l),
(77,322,l),
(203,197,l),
(210,203,l),
(109,324,l)
);
}
);
width = 314;
},
{
layerId = "5534EA4B-8E80-4C74-8911-C7987B86627E";
shapes = (
{
closed = 1;
nodes = (
(252,445,l),
(248,451,l),
(47,326,l),
(47,322,l),
(203,197,l),
(210,203,l),
(139,324,l)
);
}
);
width = 314;
}
);
unicode = 8249;
},
{
glyphname = guilsinglright;
layers = (
{
layerId = "2AEC2686-2476-49B2-BBF6-37042191F199";
name = img;
width = 314;
},
{
layerId = "1E866B1E-53BE-4037-8596-F70CE02E0A5A";
shapes = (
{
closed = 1;
nodes = (
(56,203,l),
(61,197,l),
(231,322,l),
(231,326,l),
(106,451,l),
(98,445,l),
(199,324,l)
);
}
);
width = 314;
},
{
layerId = "5534EA4B-8E80-4C74-8911-C7987B86627E";
shapes = (
{
closed = 1;
nodes = (
(56,203,l),
(61,197,l),
(261,322,l),
(261,326,l),
(106,451,l),
(98,445,l),
(169,324,l)
);
}
);
width = 314;
}
);
unicode = 8250;
},
{
glyphname = guillemotleft;
layers = (
{
layerId = "2AEC2686-2476-49B2-BBF6-37042191F199";
name = img;
width = 465;
},
{
layerId = "1E866B1E-53BE-4037-8596-F70CE02E0A5A";
shapes = (
{
closed = 1;
nodes = (
(77,322,l),
(203,197,l),
(210,203,l),
(109,324,l),
(252,445,l),
(248,451,l),
(77,326,l)
);
},
{
closed = 1;
nodes = (
(228,322,l),
(354,197,l),
(361,203,l),
(260,324,l),
(403,445,l),
(399,451,l),
(228,326,l)
);
}
);
width = 465;
},
{
layerId = "5534EA4B-8E80-4C74-8911-C7987B86627E";
shapes = (
{
closed = 1;
nodes = (
(47,322,l),
(203,197,l),
(210,203,l),
(139,324,l),
(252,445,l),
(248,451,l),
(47,326,l)
);
},
{
closed = 1;
nodes = (
(198,322,l),
(354,197,l),
(361,203,l),
(290,324,l),
(403,445,l),
(399,451,l),
(198,326,l)
);
}
);
width = 465;
}
);
unicode = 171;
},
{
glyphname = guillemotright;
layers = (
{
layerId = "2AEC2686-2476-49B2-BBF6-37042191F199";
name = img;
width = 465;
},
{
layerId = "1E866B1E-53BE-4037-8596-F70CE02E0A5A";
shapes = (
{
closed = 1;
nodes = (
(207,203,l),
(212,197,l),
(382,322,l),
(382,326,l),
(257,451,l),
(249,445,l),
(350,324,l)
);
},
{
closed = 1;
nodes = (
(56,203,l),
(61,197,l),
(231,322,l),
(231,326,l),
(106,451,l),
(98,445,l),
(199,324,l)
);
}
);
width = 465;
},
{
layerId = "5534EA4B-8E80-4C74-8911-C7987B86627E";
shapes = (
{
closed = 1;
nodes = (
(207,203,l),
(212,197,l),
(412,322,l),
(412,326,l),
(257,451,l),
(249,445,l),
(320,324,l)
);
},
{
closed = 1;
nodes = (
(56,203,l),
(61,197,l),
(261,322,l),
(261,326,l),
(106,451,l),
(98,445,l),
(169,324,l)
);
}
);
width = 465;
}
);
unicode = 187;
},
{
glyphname = breve;
layers = (
{
layerId = "2AEC2686-2476-49B2-BBF6-37042191F199";
name = img;
width = 376;
},
{
layerId = "1E866B1E-53BE-4037-8596-F70CE02E0A5A";
shapes = (
{
closed = 1;
nodes = (
(383,876,l),
(362,829,o),
(312,802,o),
(270,802,cs),
(227,802,o),
(185,829,o),
(180,876,c),
(173,866,l),
(173,819,o),
(210,772,o),
(264,772,cs),
(318,772,o),
(371,817,o),
(389,866,c)
);
}
);
width = 376;
},
{
layerId = "5534EA4B-8E80-4C74-8911-C7987B86627E";
shapes = (
{
closed = 1;
nodes = (
(383,876,l),
(366,849,o),
(318,834,o),
(276,834,cs),
(233,834,o),
(189,849,o),
(180,876,c),
(173,866,l),
(173,819,o),
(210,772,o),
(264,772,cs),
(318,772,o),
(371,817,o),
(389,866,c)
);
}
);
width = 376;
}
);
unicode = 728;
},
{
glyphname = dotaccent;
layers = (
{
layerId = "1E866B1E-53BE-4037-8596-F70CE02E0A5A";
shapes = (
{
closed = 1;
nodes = (
(210,783,o),
(220,772,o),
(236,772,cs),
(252,772,o),
(266,783,o),
(269,797,cs),
(271,811,o),
(261,822,o),
(245,822,cs),
(229,822,o),
(215,811,o),
(213,797,cs)
);
}
);
width = 320;
},
{
layerId = "5534EA4B-8E80-4C74-8911-C7987B86627E";
shapes = (
{
closed = 1;
nodes = (
(134,815,o),
(174,772,o),
(236,772,cs),
(298,772,o),
(354,815,o),
(363,870,cs),
(373,925,o),
(333,968,o),
(271,968,cs),
(209,968,o),
(153,925,o),
(143,870,cs)
);
}
);
width = 320;
}
);
unicode = 729;
},
{
glyphname = ring;
layers = (
{
layerId = "1E866B1E-53BE-4037-8596-F70CE02E0A5A";
shapes = (
{
closed = 1;
nodes = (
(140,815,o),
(178,772,o),
(236,772,cs),
(293,772,o),
(348,815,o),
(357,870,cs),
(367,924,o),
(328,968,o),
(271,968,cs),
(213,968,o),
(159,924,o),
(149,870,cs)
);
},
{
closed = 1;
nodes = (
(322,960,o),
(338,916,o),
(330,872,cs),
(322,826,o),
(288,780,o),
(238,780,cs),
(187,780,o),
(169,825,o),
(177,870,cs),
(185,915,o),
(218,960,o),
(269,960,cs)
);
}
);
width = 320;
},
{
layerId = "5534EA4B-8E80-4C74-8911-C7987B86627E";
shapes = (
{
closed = 1;
nodes = (
(134,815,o),
(175,772,o),
(236,772,cs),
(296,772,o),
(354,815,o),
(363,870,cs),
(373,924,o),
(331,968,o),
(271,968,cs),
(210,968,o),
(153,924,o),
(143,870,cs)
);
},
{
closed = 1;
nodes = (
(301,960,o),
(308,916,o),
(300,872,cs),
(292,826,o),
(268,780,o),
(238,780,cs),
(207,780,o),
(199,825,o),
(207,870,cs),
(215,915,o),
(238,960,o),
(269,960,cs)
);
}
);
width = 320;
}
);
unicode = 730;
},
{
glyphname = hungarumlaut;
layers = (
{
layerId = "2AEC2686-2476-49B2-BBF6-37042191F199";
name = img;
width = 680;
},
{
layerId = "1E866B1E-53BE-4037-8596-F70CE02E0A5A";
shapes = (
{
closed = 1;
nodes = (
(227,789,l),
(231,789,l),
(247,796,o),
(403,880,o),
(428,895,cs),
(438,901,o),
(444,908,o),
(445,914,cs),
(446,921,o),
(441,926,o),
(434,926,cs),
(425,926,o),
(415,920,o),
(403,912,cs)
);
},
{
closed = 1;
nodes = (
(411,789,l),
(415,789,l),
(431,796,o),
(587,880,o),
(612,895,cs),
(622,901,o),
(628,908,o),
(629,914,cs),
(630,921,o),
(625,926,o),
(618,926,cs),
(609,926,o),
(598,920,o),
(587,912,cs)
);
}
);
width = 680;
},
{
layerId = "5534EA4B-8E80-4C74-8911-C7987B86627E";
shapes = (
{
closed = 1;
nodes = (
(196,772,l),
(209,772,l),
(260,788,o),
(356,804,o),
(418,838,cs),
(448,855,o),
(469,875,o),
(474,901,cs),
(479,930,o),
(461,952,o),
(423,952,cs),
(385,952,o),
(346,921,o),
(312,887,cs)
);
},
{
closed = 1;
nodes = (
(415,772,l),
(428,772,l),
(479,788,o),
(576,804,o),
(637,838,cs),
(668,855,o),
(688,875,o),
(693,901,cs),
(698,930,o),
(680,952,o),
(642,952,cs),
(604,952,o),
(565,921,o),
(531,887,cs)
);
}
);
width = 680;
}
);
unicode = 733;
},
{
glyphname = ogonek;
layers = (
{
layerId = "2AEC2686-2476-49B2-BBF6-37042191F199";
name = img;
width = 251;
},
{
layerId = "1E866B1E-53BE-4037-8596-F70CE02E0A5A";
shapes = (
{
closed = 1;
nodes = (
(79,9,l),
(18,-24,o),
(-56,-69,o),
(-66,-122,cs),
(-73,-162,o),
(-56,-192,o),
(-10,-192,cs),
(33,-192,o),
(65,-169,o),
(90,-145,c),
(87,-141,l),
(66,-163,o),
(36,-182,o),
(8,-182,cs),
(-18,-182,o),
(-43,-166,o),
(-34,-116,cs),
(-25,-63,o),
(34,-17,o),
(87,5,c)
);
}
);
width = 251;
},
{
layerId = "5534EA4B-8E80-4C74-8911-C7987B86627E";
shapes = (
{
closed = 1;
nodes = (
(79,9,l),
(13,-24,o),
(-67,-64,o),
(-76,-115,cs),
(-84,-159,o),
(-63,-192,o),
(-10,-192,cs),
(33,-192,o),
(65,-169,o),
(90,-145,c),
(85,-139,l),
(72,-153,o),
(54,-163,o),
(36,-163,cs),
(14,-163,o),
(-8,-147,o),
(1,-95,cs),
(9,-52,o),
(51,-13,o),
(87,5,c)
);
}
);
width = 251;
}
);
unicode = 731;
},
{
glyphname = caron;
layers = (
{
layerId = "2AEC2686-2476-49B2-BBF6-37042191F199";
name = img;
width = 366;
},
{
anchors = (
{
name = _top;
position = "{258, 750}";
}
);
layerId = "1E866B1E-53BE-4037-8596-F70CE02E0A5A";
shapes = (
{
closed = 1;
nodes = (
(147,937,ls),
(141,945,o),
(132,941,o),
(136,935,cs),
(254,772,l),
(267,772,l),
(440,936,l),
(443,941,o),
(439,945,o),
(430,938,cs),
(263,794,l)
);
}
);
width = 366;
},
{
anchors = (
{
name = _top;
position = "{257, 750}";
}
);
layerId = "5534EA4B-8E80-4C74-8911-C7987B86627E";
shapes = (
{
closed = 1;
nodes = (
(150,937,l),
(142,944,o),
(133,942,o),
(136,935,c),
(248,772,l),
(273,772,l),
(440,936,l),
(443,941,o),
(436,944,o),
(427,938,c),
(274,855,l)
);
}
);
width = 366;
}
);
unicode = 711;
},
{
glyphname = grave;
layers = (
{
layerId = "2AEC2686-2476-49B2-BBF6-37042191F199";
name = img;
width = 442;
},
{
anchors = (
{
name = _top;
position = "{317, 750}";
}
);
layerId = "1E866B1E-53BE-4037-8596-F70CE02E0A5A";
shapes = (
{
closed = 1;
nodes = (
(423,789,l),
(291,912,ls),
(281,920,o),
(273,926,o),
(264,926,cs),
(257,926,o),
(250,921,o),
(249,914,cs),
(248,908,o),
(252,901,o),
(260,895,cs),
(279,880,o),
(405,796,o),
(419,789,c)
);
}
);
width = 442;
},
{
anchors = (
{
name = _top;
position = "{338, 750}";
}
);
layerId = "5534EA4B-8E80-4C74-8911-C7987B86627E";
shapes = (
{
closed = 1;
nodes = (
(451,772,l),
(375,887,ls),
(353,921,o),
(327,952,o),
(286,952,cs),
(251,952,o),
(224,930,o),
(219,901,cs),
(215,878,o),
(225,859,o),
(245,844,cs),
(292,806,o),
(390,788,o),
(438,772,c)
);
}
);
width = 442;
}
);
unicode = 96;
},
{
glyphname = circumflex;
layers = (
{
layerId = "2AEC2686-2476-49B2-BBF6-37042191F199";
name = img;
width = 366;
},
{
anchors = (
{
name = _top;
position = "{252, 750}";
}
);
layerId = "1E866B1E-53BE-4037-8596-F70CE02E0A5A";
shapes = (
{
closed = 1;
nodes = (
(108,775,ls),
(102,769,o),
(109,765,o),
(118,773,cs),
(284,916,l),
(401,772,ls),
(407,765,o),
(413,769,o),
(411,774,c),
(296,938,l),
(283,938,l)
);
}
);
width = 366;
},
{
anchors = (
{
name = _top;
position = "{262, 752}";
}
);
guides = (
{
angle = 90;
position = "{183, 0}";
}
);
layerId = "5534EA4B-8E80-4C74-8911-C7987B86627E";
shapes = (
{
closed = 1;
nodes = (
(108,775,ls),
(102,769,o),
(110,767,o),
(121,773,cs),
(274,855,l),
(398,772,ls),
(406,767,o),
(414,770,o),
(411,774,cs),
(302,938,l),
(277,938,l)
);
}
);
width = 366;
}
);
unicode = 710;
},
{
glyphname = dieresis;
layers = (
{
anchors = (
{
name = _top;
position = "{338, 750}";
}
);
layerId = "1E866B1E-53BE-4037-8596-F70CE02E0A5A";
shapes = (
{
closed = 1;
nodes = (
(225,783,o),
(235,772,o),
(251,772,cs),
(267,772,o),
(281,783,o),
(284,797,cs),
(286,811,o),
(276,822,o),
(260,822,cs),
(244,822,o),
(230,811,o),
(228,797,cs)
);
},
{
closed = 1;
nodes = (
(413,783,o),
(423,772,o),
(439,772,cs),
(455,772,o),
(469,783,o),
(472,797,cs),
(474,811,o),
(464,822,o),
(448,822,cs),
(432,822,o),
(418,811,o),
(416,797,cs)
);
}
);
width = 538;
},
{
anchors = (
{
name = _top;
position = "{366, 751}";
}
);
guides = (
{
angle = 90;
position = "{291, 0}";
}
);
layerId = "5534EA4B-8E80-4C74-8911-C7987B86627E";
shapes = (
{
closed = 1;
nodes = (
(160,810,o),
(196,772,o),
(251,772,cs),
(306,772,o),
(355,810,o),
(363,859,cs),
(372,908,o),
(337,946,o),
(282,946,cs),
(227,946,o),
(177,908,o),
(168,859,cs)
);
},
{
closed = 1;
nodes = (
(392,810,o),
(427,772,o),
(482,772,cs),
(537,772,o),
(587,810,o),
(595,859,cs),
(604,908,o),
(568,946,o),
(513,946,cs),
(458,946,o),
(409,908,o),
(400,859,cs)
);
}
);
width = 581;
}
);
unicode = 168;
},
{
glyphname = acute;
layers = (
{
layerId = "2AEC2686-2476-49B2-BBF6-37042191F199";
name = img;
width = 442;
},
{
anchors = (
{
name = _top;
position = "{276, 750}";
}
);
layerId = "1E866B1E-53BE-4037-8596-F70CE02E0A5A";
shapes = (
{
closed = 1;
nodes = (
(227,789,l),
(231,789,l),
(247,796,o),
(403,880,o),
(428,895,cs),
(438,901,o),
(444,908,o),
(445,914,cs),
(446,921,o),
(441,926,o),
(434,926,cs),
(425,926,o),
(415,920,o),
(403,912,cs)
);
}
);
width = 442;
},
{
anchors = (
{
name = _top;
position = "{334, 750}";
}
);
layerId = "5534EA4B-8E80-4C74-8911-C7987B86627E";
shapes = (
{
closed = 1;
nodes = (
(196,773,l),
(209,773,l),
(260,789,o),
(356,805,o),
(418,839,cs),
(448,856,o),
(469,876,o),
(474,902,cs),
(479,931,o),
(461,953,o),
(423,953,cs),
(385,953,o),
(347,922,o),
(313,888,cs)
);
}
);
width = 442;
}
);
unicode = 180;
},
{
glyphname = cedilla;
layers = (
{
layerId = "2AEC2686-2476-49B2-BBF6-37042191F199";
name = img;
width = 267;
},
{
layerId = "1E866B1E-53BE-4037-8596-F70CE02E0A5A";
shapes = (
{
closed = 1;
nodes = (
(-44,-227,l),
(-35,-238,o),
(-19,-243,o),
(3,-243,cs),
(64,-243,o),
(111,-191,o),
(111,-132,cs),
(111,-90,o),
(85,-64,o),
(35,-64,cs),
(13,-64,o),
(-10,-76,o),
(-13,-78,c),
(80,21,l),
(73,23,l),
(-22,-78,l),
(-24,-91,l),
(-17,-91,l),
(-6,-82,o),
(9,-72,o),
(29,-72,cs),
(66,-72,o),
(83,-99,o),
(83,-130,cs),
(83,-176,o),
(42,-236,o),
(-7,-236,cs),
(-23,-236,o),
(-36,-230,o),
(-40,-223,c)
);
}
);
width = 267;
},
{
layerId = "5534EA4B-8E80-4C74-8911-C7987B86627E";
shapes = (
{
closed = 1;
nodes = (
(-51,-232,l),
(-42,-244,o),
(-25,-249,o),
(-3,-249,cs),
(66,-249,o),
(126,-204,o),
(126,-132,cs),
(126,-88,o),
(94,-62,o),
(44,-62,cs),
(15,-62,o),
(-7,-71,o),
(-10,-74,c),
(80,21,l),
(69,23,l),
(-26,-78,l),
(-28,-91,l),
(-17,-91,l),
(-8,-83,o),
(5,-75,o),
(22,-75,cs),
(53,-75,o),
(64,-101,o),
(64,-132,cs),
(64,-176,o),
(33,-238,o),
(-17,-238,cs),
(-30,-238,o),
(-42,-233,o),
(-44,-225,c)
);
}
);
width = 267;
}
);
unicode = 184;
},
{
glyphname = a;
layers = (
{
background = {
shapes = (
{
closed = 1;
nodes = (
(338,251,o),
(386,203,o),
(446,203,cs),
(506,203,o),
(555,251,o),
(555,311,cs),
(555,371,o),
(506,420,o),
(446,420,cs),
(386,420,o),
(338,371,o),
(338,311,cs)
);
}
);
};
layerId = "1E866B1E-53BE-4037-8596-F70CE02E0A5A";
shapes = (
{
closed = 1;
nodes = (
(314,0,l),
(534,0,l),
(535,5,l),
(462,12,o),
(448,5,o),
(433,114,cs),
(356,676,l),
(221,676,l),
(220,671,l),
(287,666,o),
(313,666,o),
(325,657,c),
(71,127,ls),
(18,16,o),
(14,12,o),
(-83,5,c),
(-84,0,l),
(143,0,l),
(144,5,l),
(32,12,o),
(27,19,o),
(75,118,cs),
(157,289,l),
(383,289,l),
(408,106,ls),
(420,12,o),
(407,12,o),
(315,5,c)
);
},
{
closed = 1;
nodes = (
(161,297,l),
(331,650,l),
(334,644,o),
(335,636,o),
(337,624,cs),
(382,297,l)
);
}
);
width = 569;
},
{
layerId = "5534EA4B-8E80-4C74-8911-C7987B86627E";
shapes = (
{
closed = 1;
nodes = (
(245,0,l),
(645,0,l),
(646,8,l),
(619,8,o),
(588,28,o),
(573,114,cs),
(478,676,l),
(166,676,l),
(165,668,l),
(245,668,o),
(260,630,o),
(269,574,c),
(123,278,ls),
(90,211,o),
(-23,8,o),
(-119,8,c),
(-120,0,l),
(187,0,l),
(188,8,l),
(30,8,o),
(91,193,o),
(140,292,cs),
(143,298,l),
(314,298,l),
(342,129,ls),
(358,25,o),
(323,8,o),
(246,8,c)
);
},
{
closed = 1;
nodes = (
(148,308,l),
(271,559,l),
(273,550,o),
(273,544,o),
(275,535,cs),
(313,308,l)
);
}
);
width = 659;
}
);
leftKerningGroup = A;
rightKerningGroup = A;
unicode = 97;
},
{
glyphname = b;
layers = (
{
layerId = "1E866B1E-53BE-4037-8596-F70CE02E0A5A";
leftMetricsKey = h;
shapes = (
{
closed = 1;
nodes = (
(-30,0,l),
(102,0,l),
(164,349,l),
(245,349,ls),
(352,349,o),
(487,416,o),
(487,539,cs),
(487,618,o),
(415,676,o),
(294,676,cs),
(89,676,l),
(88,671,l),
(167,664,o),
(195,672,o),
(185,614,cs),
(88,62,ls,{name = hr02;}),
(78,4,o),
(52,12,o),
(-29,5,c)
);
},
{
closed = 1;
nodes = (
(165,357,l),
(220,668,l),
(284,668,ls),
(411,668,o),
(456,615,o),
(456,545,cs),
(456,420,o),
(358,357,o),
(238,357,cs)
);
},
{
closed = 1;
nodes = (
(75,8,l),
(71,0,l),
(216,0,ls),
(342,0,o),
(448,80,o),
(466,180,cs),
(483,277,o),
(408,348,o),
(274,355,cs),
(233,357,l),
(241,349,l),
(423,349,o),
(450,259,o),
(435,178,cs),
(420,88,o),
(341,8,o),
(194,8,cs)
);
}
);
width = 524;
},
{
layerId = "5534EA4B-8E80-4C74-8911-C7987B86627E";
shapes = (
{
closed = 1;
nodes = (
(-58,0,l),
(266,0,l),
(328,349,l),
(392,349,ls),
(570,349,o),
(703,436,o),
(703,536,cs),
(703,612,o),
(628,676,o),
(481,676,cs),
(61,676,l),
(60,668,l),
(140,668,o),
(162,639,o),
(151,581,cs),
(66,95,ls),
(56,37,o),
(23,8,o),
(-57,8,c)
);
},
{
closed = 1;
nodes = (
(329,358,l),
(384,667,l),
(417,667,ls),
(470,667,o),
(491,621,o),
(491,564,cs),
(491,492,o),
(448,358,o),
(363,358,cs)
);
},
{
closed = 1;
nodes = (
(252,10,l),
(250,0,l),
(377,0,ls),
(578,0,o),
(658,89,o),
(667,177,cs),
(677,279,o),
(581,345,o),
(410,356,cs),
(380,358,l),
(347,349,l),
(448,349,o),
(460,272,o),
(448,189,cs),
(437,112,o),
(392,10,o),
(318,10,cs)
);
}
);
width = 689;
}
);
rightKerningGroup = O;
unicode = 98;
},
{
glyphname = c;
leftMetricsKey = o;
layers = (
{
background = {
shapes = (
{
closed = 1;
nodes = (
(483,680,o),
(521,673,o),
(533,659,c),
(474,623,o),
(449,571,o),
(449,528,cs),
(449,471,o),
(492,423,o),
(555,423,cs),
(609,423,o),
(668,459,o),
(668,537,cs),
(668,640,o),
(565,692,o),
(435,692,cs),
(205,692,o),
(28,545,o),
(28,334,cs),
(28,152,o),
(163,-16,o),
(396,-16,cs),
(536,-16,o),
(631,51,o),
(659,149,c),
(659,154,o),
(660,158,o),
(656,158,c),
(625,70,o),
(578,36,o),
(488,36,cs),
(346,36,o),
(279,106,o),
(279,357,cs),
(279,610,o),
(347,679,o),
(451,680,c)
);
},
{
closed = 1;
nodes = (
(0,373,l),
(10,373,l),
(10,471,o),
(126,643,o),
(211,667,c),
(211,95,ls),
(211,37,o),
(184,8,o),
(104,8,c),
(104,0,l),
(535,0,l),
(535,8,l),
(455,8,o),
(428,37,o),
(428,95,cs),
(428,667,l),
(513,643,o),
(629,471,o),
(629,373,c),
(639,373,l),
(639,676,l),
(0,676,l)
);
}
);
};
layerId = "1E866B1E-53BE-4037-8596-F70CE02E0A5A";
shapes = (
{
closed = 1;
nodes = (
(541,91,l),
(489,32,o),
(390,-4,o),
(309,-4,cs),
(92,-4,o),
(41,179,o),
(69,341,cs),
(96,492,o),
(211,680,o),
(442,680,cs),
(545,680,o),
(630,634,o),
(621,520,c),
(625,520,l,{name = hr01;}),
(640,683,l),
(635,683,l),
(629,653,o),
(622,644,o),
(611,644,cs),
(583,644,o),
(544,688,o),
(443,688,cs),
(240,688,o),
(75,542,o),
(39,339,cs),
(1,125,o),
(125,-12,o),
(296,-12,cs),
(396,-12,o),
(486,26,o),
(539,79,c)
);
}
);
width = 636;
},
{
layerId = "5534EA4B-8E80-4C74-8911-C7987B86627E";
shapes = (
{
closed = 1;
nodes = (
(634,141,l),
(580,81,o),
(506,42,o),
(427,42,cs),
(334,42,o),
(259,108,o),
(259,269,cs),
(259,394,o),
(316,679,o),
(468,679,cs),
(587,679,o),
(640,512,o),
(659,373,c),
(667,373,l),
(702,687,l),
(693,687,l),
(691,668,o),
(681,654,o),
(657,654,cs),
(597,654,o),
(546,688,o),
(454,688,cs),
(192,688,o),
(13,529,o),
(13,278,cs),
(13,89,o),
(149,-17,o),
(320,-17,cs),
(457,-17,o),
(568,44,o),
(638,134,c)
);
}
);
width = 687;
}
);
leftKerningGroup = G;
unicode = 99;
},
{
glyphname = d;
rightMetricsKey = o;
layers = (
{
background = {
shapes = (
{
closed = 1;
nodes = (
(-238,338,o),
(-172,276,o),
(-82,276,cs),
(8,276,o),
(81,341,o),
(81,430,cs),
(81,496,o),
(39,566,o),
(-30,561,c),
(-28,540,o),
(-56,512,o),
(-86,512,cs),
(-109,512,o),
(-135,532,o),
(-135,571,cs),
(-135,647,o),
(-53,697,o),
(65,697,cs),
(108,697,l),
(108,134,ls),
(108,97,o),
(113,9,o),
(2,9,cs),
(-10,9,o),
(-11,0,o),
(2,0,cs),
(363,0,ls),
(559,0,o),
(741,103,o),
(741,369,cs),
(741,574,o),
(585,706,o),
(386,706,cs),
(39,706,ls),
(-96,706,o),
(-238,580,o),
(-238,448,cs)
);
},
{
closed = 1;
nodes = (
(322,697,l),
(380,697,ls),
(458,697,o),
(515,667,o),
(515,542,cs),
(515,205,ls),
(515,44,o),
(439,10,o),
(366,10,cs),
(229,10,ls),
(218,10,o),
(220,21,o),
(229,21,cs),
(315,21,o),
(322,106,o),
(322,149,c)
);
},
{
closed = 1;
nodes = (
(348,667,l),
(359,667,ls),
(433,667,o),
(465,595,o),
(465,519,cs),
(465,439,o),
(429,358,o),
(360,357,c),
(360,349,l),
(390,349,ls),
(568,349,o),
(670,432,o),
(670,523,cs),
(670,604,o),
(590,676,o),
(435,676,cs),
(348,676,l)
);
},
{
closed = 1;
nodes = (
(357,0,l),
(445,0,ls),
(614,0,o),
(705,89,o),
(705,180,cs),
(705,279,o),
(599,357,o),
(400,357,cs),
(370,357,l),
(370,349,l),
(449,347,o),
(490,272,o),
(490,184,cs),
(490,100,o),
(452,10,o),
(369,10,cs),
(303,10,l)
);
}
);
};
layerId = "1E866B1E-53BE-4037-8596-F70CE02E0A5A";
leftMetricsKey = h;
shapes = (
{
closed = 1;
nodes = (
(-30,0,l),
(270,0,ls),
(407,0,o),
(608,110,o),
(645,349,cs),
(681,582,o),
(526,676,o),
(388,676,cs),
(89,676,l),
(88,671,l),
(167,664,o),
(195,672,o),
(185,614,cs),
(88,62,ls),
(78,4,o),
(52,12,o),
(-29,5,c)
);
},
{
closed = 1;
nodes = (
(103,8,l),
(220,668,l),
(383,668,ls),
(571,668,o),
(640,520,o),
(615,349,cs),
(590,179,o),
(454,8,o),
(265,8,cs)
);
}
);
width = 663;
},
{
layerId = "5534EA4B-8E80-4C74-8911-C7987B86627E";
shapes = (
{
closed = 1;
nodes = (
(-58,0,l),
(336,0,ls),
(509,0,o),
(724,113,o),
(757,349,cs),
(790,582,o),
(604,676,o),
(432,676,cs),
(61,676,l),
(60,668,l),
(140,668,o),
(162,639,o),
(151,581,cs),
(66,95,ls),
(56,37,o),
(23,8,o),
(-57,8,c)
);
},
{
closed = 1;
nodes = (
(267,8,l),
(384,668,l),
(435,668,ls),
(549,668,o),
(549,519,o),
(524,349,cs),
(500,186,o),
(436,8,o),
(317,8,cs)
);
}
);
width = 766;
}
);
rightKerningGroup = O;
unicode = 100;
},
{
glyphname = e;
layers = (
{
anchors = (
{
name = top;
position = "{345, 751}";
}
);
background = {
shapes = (
{
closed = 1;
nodes = (
(581,0,ls),
(625,0,o),
(658,22,o),
(658,82,cs),
(658,303,ls),
(658,319,o),
(646,320,o),
(646,303,cs),
(646,168,o),
(576,10,o),
(388,10,cs),
(240,10,ls),
(228,10,o),
(229,21,o),
(240,21,cs),
(326,21,o),
(334,106,o),
(334,149,cs),
(334,365,l),
(359,365,ls),
(422,365,o),
(492,331,o),
(492,265,cs),
(492,247,ls),
(492,238,o),
(502,238,o),
(502,247,cs),
(502,499,ls),
(502,508,o),
(492,508,o),
(492,499,cs),
(492,479,ls),
(492,409,o),
(422,376,o),
(358,376,cs),
(334,376,l),
(334,697,l),
(425,697,ls),
(583,697,o),
(614,561,o),
(614,493,cs),
(614,476,o),
(626,477,o),
(626,493,c),
(626,493,o),
(628,608,o),
(628,661,cs),
(628,697,o),
(606,706,o),
(562,706,cs),
(64,706,ls),
(-115,706,o),
(-238,580,o),
(-238,448,cs),
(-238,338,o),
(-172,276,o),
(-82,276,cs),
(8,276,o),
(81,341,o),
(81,430,cs),
(81,496,o),
(39,566,o),
(-30,561,c),
(-28,540,o),
(-56,512,o),
(-86,512,cs),
(-109,512,o),
(-135,532,o),
(-135,571,cs),
(-135,645,o),
(-58,697,o),
(56,697,cs),
(119,697,l),
(119,134,ls),
(119,97,o),
(123,9,o),
(12,9,cs),
(0,9,o),
(-1,0,o),
(12,0,c)
);
},
{
closed = 1;
nodes = (
(341,667,ls),
(499,667,o),
(602,507,o),
(602,408,c),
(616,625,o),
(529,670,o),
(326,667,c)
);
},
{
closed = 1;
nodes = (
(632,157,l),
(595,24,o),
(466,3,o),
(426,0,c),
(632,0,l)
);
}
);
};
layerId = "1E866B1E-53BE-4037-8596-F70CE02E0A5A";
leftMetricsKey = h;
shapes = (
{
closed = 1;
nodes = (
(-30,0,l),
(416,0,l),
(448,149,l),
(443,149,l),
(408,16,o),
(414,8,o),
(256,8,cs),
(103,8,l),
(161,333,l),
(301,333,ls),
(344,333,o),
(335,282,o),
(329,231,c),
(335,231,l),
(373,443,l),
(367,443,l),
(355,392,o),
(346,341,o),
(303,341,cs),
(163,341,l),
(220,668,l),
(374,668,ls),
(511,668,o),
(493,643,o),
(487,528,c),
(492,528,l),
(512,676,l),
(89,676,l),
(88,671,l),
(167,664,o),
(195,672,o),
(185,614,cs),
(88,62,ls),
(78,4,o),
(52,12,o),
(-29,5,c)
);
}
);
width = 520;
},
{
anchors = (
{
name = top;
position = "{430, 751}";
}
);
layerId = "5534EA4B-8E80-4C74-8911-C7987B86627E";
shapes = (
{
closed = 1;
nodes = (
(-58,0,l),
(553,0,l),
(624,272,l),
(614,272,l),
(592,173,o),
(441,9,o),
(283,9,cs),
(268,9,l),
(323,326,l),
(338,326,ls),
(419,326,o),
(496,274,o),
(484,208,c),
(493,208,l),
(537,460,l),
(528,460,l),
(516,390,o),
(422,337,o),
(340,337,cs),
(325,337,l),
(384,667,l),
(399,667,ls),
(557,667,o),
(616,516,o),
(616,408,c),
(624,408,l),
(648,676,l),
(61,676,l),
(60,668,l),
(140,668,o),
(162,639,o),
(151,581,cs),
(66,95,ls),
(56,37,o),
(23,8,o),
(-57,8,c)
);
}
);
width = 658;
}
);
unicode = 101;
},
{
glyphname = f;
layers = (
{
background = {
shapes = (
{
closed = 1;
nodes = (
(344,376,l),
(328,376,l),
(328,697,l),
(347,697,l),
(347,706,l),
(62,706,ls),
(-116,706,o),
(-238,579,o),
(-238,448,cs),
(-238,338,o),
(-172,276,o),
(-82,276,cs),
(8,276,o),
(81,341,o),
(81,430,cs),
(81,496,o),
(39,566,o),
(-30,561,c),
(-28,540,o),
(-56,512,o),
(-86,512,cs),
(-109,512,o),
(-135,532,o),
(-135,571,cs),
(-135,646,o),
(-55,696,o),
(62,697,c),
(113,697,l),
(113,134,ls),
(113,97,o),
(117,9,o),
(6,9,cs),
(-6,9,o),
(-6,0,o),
(7,0,cs),
(394,0,ls),
(403,0,o),
(403,10,o),
(394,10,cs),
(231,10,ls),
(218,10,o),
(220,21,o),
(234,21,cs),
(320,21,o),
(328,106,o),
(328,149,cs),
(328,365,l),
(344,365,l)
);
},
{
closed = 1;
nodes = (
(326,667,l),
(341,667,ls),
(499,667,o),
(602,507,o),
(602,408,c),
(612,408,l),
(612,617,o),
(529,676,o),
(326,676,c)
);
}
);
};
layerId = "1E866B1E-53BE-4037-8596-F70CE02E0A5A";
leftMetricsKey = h;
shapes = (
{
closed = 1;
nodes = (
(-30,0,l),
(209,0,l),
(210,5,l),
(131,12,o),
(103,4,o),
(113,62,cs),
(220,668,l),
(377,668,ls),
(514,668,o),
(496,643,o),
(490,528,c),
(495,528,l),
(515,676,l),
(89,676,l),
(88,671,l),
(167,664,o),
(195,672,o),
(185,614,cs),
(88,62,ls),
(78,4,o),
(52,12,o),
(-29,5,c)
);
},
{
closed = 1;
nodes = (
(157,329,l),
(297,329,ls),
(338,329,o),
(332,283,o),
(326,235,c),
(325,227,l),
(331,227,l),
(368,439,l),
(362,439,l),
(361,431,l),
(349,382,o),
(339,337,o),
(298,337,cs),
(158,337,l)
);
}
);
width = 505;
},
{
layerId = "5534EA4B-8E80-4C74-8911-C7987B86627E";
shapes = (
{
closed = 1;
nodes = (
(-58,0,l),
(373,0,l),
(374,8,l),
(294,8,o),
(273,37,o),
(283,95,cs),
(384,667,l),
(399,667,ls),
(557,667,o),
(619,511,o),
(615,406,c),
(624,406,l),
(646,676,l),
(61,676,l),
(60,668,l),
(140,668,o),
(162,639,o),
(151,581,cs),
(66,95,ls),
(56,37,o),
(23,8,o),
(-57,8,c)
);
},
{
closed = 1;
nodes = (
(314,287,l),
(332,287,ls),
(413,287,o),
(491,242,o),
(479,176,cs),
(478,169,l),
(488,169,l),
(532,421,l),
(522,421,l),
(521,413,ls),
(508,343,o),
(416,298,o),
(334,298,cs),
(316,298,l)
);
}
);
width = 646;
}
);
unicode = 102;
},
{
glyphname = g;
leftMetricsKey = o;
layers = (
{
background = {
shapes = (
{
closed = 1;
nodes = (
(775,584,o),
(577,685,o),
(408,685,cs),
(387,685,ls),
(218,685,o),
(20,584,o),
(20,338,cs),
(20,91,o),
(218,-9,o),
(387,-9,cs),
(408,-9,ls),
(577,-9,o),
(775,91,o),
(775,338,cs)
);
},
{
closed = 1;
nodes = (
(542,156,o),
(516,0,o),
(404,0,cs),
(391,0,ls),
(279,0,o),
(253,156,o),
(253,338,cs),
(253,519,o),
(279,676,o),
(391,676,cs),
(404,676,ls),
(516,676,o),
(542,519,o),
(542,338,cs)
);
},
{
closed = 1;
nodes = (
(714,159,l),
(714,245,ls),
(714,303,o),
(741,332,o),
(821,332,c),
(821,340,l),
(390,340,l),
(390,332,l),
(470,332,o),
(497,303,o),
(497,245,cs),
(497,159,l)
);
}
);
};
layerId = "2AEC2686-2476-49B2-BBF6-37042191F199";
name = img;
width = 775;
},
{
layerId = "1E866B1E-53BE-4037-8596-F70CE02E0A5A";
shapes = (
{
closed = 1;
nodes = (
(450,249,l),
(522,242,o),
(547,250,o),
(537,192,cs),
(519,90,ls),
(509,31,o),
(413,-1,o),
(331,-1,cs),
(109,-1,o),
(41,194,o),
(69,355,cs),
(96,506,o),
(213,680,o),
(444,680,cs),
(547,680,o),
(632,634,o),
(623,520,c),
(627,520,l,{name = hr01;}),
(642,683,l),
(637,683,l),
(631,653,o),
(624,644,o),
(613,644,cs),
(585,644,o),
(546,688,o),
(445,688,cs),
(242,688,o),
(75,556,o),
(39,353,cs),
(1,139,o),
(139,-12,o),
(310,-12,cs),
(459,-12,o),
(484,44,o),
(512,44,cs),
(522,44,o),
(528,34,o),
(522,-5,c),
(527,-5,l),
(562,192,ls),
(572,250,o),
(595,242,o),
(669,249,c),
(670,254,l),
(451,254,l)
);
}
);
width = 689;
},
{
layerId = "5534EA4B-8E80-4C74-8911-C7987B86627E";
shapes = (
{
closed = 1;
nodes = (
(402,330,l),
(470,330,o),
(489,301,o),
(479,243,cs),
(452,90,ls),
(441,31,o),
(433,3,o),
(374,3,cs),
(268,3,o),
(225,101,o),
(270,344,cs),
(316,592,o),
(386,679,o),
(481,679,cs),
(600,679,o),
(653,512,o),
(672,373,c),
(680,373,l),
(715,687,l),
(706,687,l),
(704,668,o),
(694,654,o),
(670,654,cs),
(610,654,o),
(559,688,o),
(467,688,cs),
(222,688,o),
(46,551,o),
(17,337,cs),
(-8,153,o),
(87,-12,o),
(304,-12,cs),
(460,-12,o),
(534,48,o),
(595,48,cs),
(643,48,o),
(643,21,o),
(638,-5,c),
(646,-5,l),
(690,243,ls),
(700,301,o),
(728,330,o),
(792,330,c),
(794,338,l),
(404,338,l)
);
}
);
width = 774;
}
);
leftKerningGroup = G;
unicode = 103;
},
{
glyphname = h;
layers = (
{
background = {
};
layerId = "1E866B1E-53BE-4037-8596-F70CE02E0A5A";
shapes = (
{
closed = 1;
nodes = (
(408,0,l),
(647,0,l),
(648,5,l),
(569,12,o),
(541,4,o),
(551,62,cs),
(648,614,ls),
(658,672,o),
(684,664,o),
(765,671,c),
(766,676,l),
(527,676,l),
(526,671,l),
(605,664,o),
(633,672,o),
(623,614,cs),
(526,62,ls),
(516,4,o),
(490,12,o),
(409,5,c)
);
},
{
closed = 1;
nodes = (
(148,321,l),
(583,321,l),
(584,329,l),
(149,329,l)
);
},
{
closed = 1;
nodes = (
(-30,0,l),
(209,0,l),
(210,5,l),
(131,12,o),
(103,4,o),
(113,62,cs),
(210,614,ls),
(220,672,o),
(246,664,o),
(327,671,c),
(328,676,l),
(89,676,l),
(88,671,l),
(167,664,o),
(195,672,o),
(185,614,cs),
(88,62,ls),
(78,4,o),
(52,12,o),
(-29,5,c)
);
}
);
width = 737;
},
{
layerId = "5534EA4B-8E80-4C74-8911-C7987B86627E";
shapes = (
{
closed = 1;
nodes = (
(394,0,l),
(810,0,l),
(811,8,l),
(731,8,o),
(710,37,o),
(720,95,cs),
(805,581,ls),
(815,639,o),
(848,668,o),
(928,668,c),
(929,676,l),
(513,676,l),
(512,668,l),
(580,668,o),
(598,639,o),
(588,581,cs),
(503,95,ls),
(493,37,o),
(463,8,o),
(395,8,c)
);
},
{
closed = 1;
nodes = (
(312,321,l),
(586,321,l),
(588,332,l),
(314,332,l)
);
},
{
closed = 1;
nodes = (
(-58,0,l),
(358,0,l),
(359,8,l),
(291,8,o),
(273,37,o),
(283,95,cs),
(368,581,ls),
(378,639,o),
(408,668,o),
(476,668,c),
(477,676,l),
(61,676,l),
(60,668,l),
(140,668,o),
(161,639,o),
(151,581,cs),
(66,95,ls),
(56,37,o),
(23,8,o),
(-57,8,c)
);
}
);
width = 872;
}
);
unicode = 104;
},
